{
.appVersion = "1230";
DisplayStrings = (
"/uni725F/uni793C/uni753A \012/uni725F/uni793C/uni753A",
"/uni4EA0/uni2F07/uni5C71/uni2F2D/uni65E5/uni2F47/uni66F0/uni2F48/uni7530/uni2F65/uni767D/uni2F69/uni76BF/uni2F6B/uni76EE/uni2F6C/uni81EA/uni2F83/uni8840/uni2F8E/uni8A00/uni2F94",
"/uni5182/uni2F0C/uni9F20/uni2FCF",
"/uni9E7F/uni2FC5"
);
copyright = "Copyright © 2019 by Neil Summerour. All rights reserved.";
customParameters = (
{
name = vendorID;
value = PTYP;
},
{
name = panose;
value = (
2,
11,
0,
3,
2,
2,
4,
2,
2,
4
);
},
{
name = unicodeRanges;
value = (
0,
1,
2,
3,
4,
5,
6,
7,
9,
24,
29,
30,
31,
32,
33,
35,
36,
37,
38,
39,
40,
42,
43,
44,
45,
46,
47,
48,
49,
50,
54,
55,
57,
59,
61,
62,
65,
68,
89,
90
);
},
{
name = codePageRanges;
value = (
1252,
1250,
1251,
1253,
1254,
1255,
1257,
1258,
932,
950,
869,
866,
865,
863,
862,
861,
860,
857,
855,
852,
775,
737,
850,
437
);
}
);
date = "2019-05-04 20:23:36 +0000";
designer = "Neil Summerour";
designerURL = "http://positype.com";
disablesNiceNames = 1;
familyName = Murecho;
featurePrefixes = (
{
code = "languagesystem DFLT dflt;\012languagesystem hani dflt;\012languagesystem kana dflt;\012languagesystem latn dflt;\012languagesystem cyrl dflt;\012languagesystem grek dflt;\012languagesystem hebr dflt;\012languagesystem latn ROM;\012languagesystem latn MOL;\012languagesystem latn CAT;\012";
name = Languagesystems;
}
);
fontMaster = (
{
ascender = 860;
capHeight = 700;
custom = Thin;
customParameters = (
{
name = typoAscender;
value = 860;
},
{
name = typoDescender;
value = -140;
},
{
name = typoLineGap;
value = 90;
},
{
name = winAscent;
value = 1075;
},
{
name = winDescent;
value = 320;
},
{
name = hheaAscender;
value = 1075;
},
{
name = hheaDescender;
value = -320;
},
{
name = strikeoutPosition;
value = 260;
},
{
name = strikeoutSize;
value = 40;
},
{
name = "CVT Table";
value = (
-10,
0,
520,
730,
750,
33,
633
);
}
);
descender = -140;
iconName = Light_SemiExtended;
id = "444456EC-4579-471A-B2C3-7F5DF9BBCA9A";

glyphs = (
{
color = 10;
glyphname = A;
lastChange = "2019-06-11 21:14:11 +0000";
layers = (
{
anchors = (
{
name = bottom;
position = "{305, 0}";
},
{
name = ogonek;
position = "{576, 0}";
},
{
name = top;
position = "{305, 734}";
}
);
hints = (
{
horizontal = 1;
origin = "{0, 9}";
target = up;
type = BottomGhost;
},
{
horizontal = 1;
origin = "{1, 3}";
target = "{1, 2}";
type = Stem;
},
{
horizontal = 1;
origin = "{0, 8}";
target = down;
type = TopGhost;
}
);
layerId = "444456EC-4579-471A-B2C3-7F5DF9BBCA9A";
paths = (
{
closed = 1;
nodes = (
"56 0 LINE",
"243 531 LINE",
"307 715 LINE",
"302 715 LINE",
"366 531 LINE",
"553 0 LINE",
"576 0 LINE",
"315 734 LINE",
"294 734 LINE",
"33 0 LINE"
);
},
{
closed = 1;
nodes = (
"476 234 LINE",
"470 254 LINE",
"138 254 LINE",
"133 234 LINE"
);
}
);
width = 609;
},
{
anchors = (
{
name = bottom;
position = "{344, 0}";
},
{
name = ogonek;
position = "{673, 0}";
},
{
name = top;
position = "{344, 734}";
}
);
hints = (
{
horizontal = 1;
origin = "{0, 9}";
target = up;
type = BottomGhost;
},
{
horizontal = 1;
origin = "{1, 3}";
target = "{1, 2}";
type = Stem;
},
{
horizontal = 1;
origin = "{0, 8}";
target = down;
type = TopGhost;
}
);
layerId = "CDA8F3AC-A9A8-4005-B9E6-B6E3BABC1C09";
paths = (
{
closed = 1;
nodes = (
"229 0 LINE",
"313 382 LINE",
"365 598 LINE",
"323 598 LINE",
"375 382 LINE",
"459 0 LINE",
"673 0 LINE",
"447 734 LINE",
"241 734 LINE",
"15 0 LINE"
);
},
{
closed = 1;
nodes = (
"450 138 LINE",
"414 289 LINE",
"276 289 LINE",
"238 138 LINE"
);
}
);
width = 688;
}
);
unicode = 0041;
},
{
color = 10;
glyphname = AE;
lastChange = "2019-06-11 21:26:01 +0000";
layers = (
{
hints = (
{
horizontal = 1;
origin = "{0, 4}";
target = "{2, 2}";
type = Stem;
},
{
horizontal = 1;
origin = "{2, 3}";
target = "{2, 6}";
type = Stem;
},
{
horizontal = 1;
origin = "{0, 3}";
target = "{2, 7}";
type = Stem;
},
{
horizontal = 1;
origin = "{1, 3}";
target = "{1, 2}";
type = Stem;
},
{
place = "{562, 2000}";
type = Stem;
}
);
layerId = "444456EC-4579-471A-B2C3-7F5DF9BBCA9A";
paths = (
{
closed = 1;
nodes = (
"58 0 LINE",
"435 531 LINE",
"574 734 LINE",
"554 734 LINE",
"33 0 LINE"
);
},
{
closed = 1;
nodes = (
"561 234 LINE",
"561 254 LINE",
"229 254 LINE",
"218 234 LINE"
);
},
{
closed = 1;
nodes = (
"982 0 LINE",
"982 20 LINE",
"578 20 LINE",
"578 370 LINE",
"932 370 LINE",
"932 389 LINE",
"578 389 LINE",
"578 714 LINE",
"982 714 LINE",
"982 734 LINE",
"558 734 LINE",
"558 0 LINE"
);
}
);
width = 1041;
},
{
hints = (
{
horizontal = 1;
origin = "{0, 4}";
target = "{2, 2}";
type = Stem;
},
{
horizontal = 1;
origin = "{2, 3}";
target = "{2, 6}";
type = Stem;
},
{
horizontal = 1;
origin = "{0, 3}";
target = "{2, 7}";
type = Stem;
},
{
horizontal = 1;
origin = "{1, 3}";
target = "{1, 2}";
type = Stem;
},
{
place = "{470, 306}";
type = Stem;
}
);
layerId = "CDA8F3AC-A9A8-4005-B9E6-B6E3BABC1C09";
paths = (
{
closed = 1;
nodes = (
"239 0 LINE",
"415 382 LINE",
"567 734 LINE",
"413 734 LINE",
"15 0 LINE"
);
},
{
closed = 1;
nodes = (
"494 138 LINE",
"492 289 LINE",
"355 289 LINE",
"282 138 LINE"
);
},
{
closed = 1;
nodes = (
"948 0 LINE",
"948 171 LINE",
"670 171 LINE",
"670 298 LINE",
"908 298 LINE",
"908 453 LINE",
"670 453 LINE",
"670 563 LINE",
"948 563 LINE",
"948 734 LINE",
"470 734 LINE",
"470 0 LINE"
);
}
);
width = 988;
}
);
leftMetricsKey = A;
rightMetricsKey = E;
unicode = 00C6;
},
{
color = 10;
glyphname = B;
lastChange = "2019-06-11 21:14:11 +0000";
layers = (
{
hints = (
{
horizontal = 1;
origin = "{0, 15}";
target = "{1, 8}";
type = Stem;
},
{
horizontal = 1;
origin = "{1, 0}";
target = "{2, 8}";
type = Stem;
},
{
horizontal = 1;
origin = "{0, 14}";
target = "{2, 0}";
type = Stem;
},
{
place = "{96, 20}";
type = Stem;
},
{
place = "{552, 21}";
type = Stem;
},
{
place = "{526, 21}";
type = Stem;
}
);
layerId = "444456EC-4579-471A-B2C3-7F5DF9BBCA9A";
paths = (
{
closed = 1;
nodes = (
"349 0 LINE SMOOTH",
"496 0 OFFCURVE",
"573 64 OFFCURVE",
"573 190 CURVE SMOOTH",
"573 302 OFFCURVE",
"514 371 OFFCURVE",
"370 379 CURVE",
"371 373 LINE",
"495 382 OFFCURVE",
"546 449 OFFCURVE",
"546 549 CURVE SMOOTH",
"546 673 OFFCURVE",
"473 734 OFFCURVE",
"330 734 CURVE SMOOTH",
"96 734 LINE",
"96 0 LINE"
);
},
{
closed = 1;
nodes = (
"116 367 LINE",
"342 367 LINE SMOOTH",
"452 367 OFFCURVE",
"552 333 OFFCURVE",
"552 192 CURVE SMOOTH",
"552 50 OFFCURVE",
"450 19 OFFCURVE",
"347 19 CURVE SMOOTH",
"116 19 LINE"
);
},
{
closed = 1;
nodes = (
"116 715 LINE",
"329 715 LINE SMOOTH",
"428 715 OFFCURVE",
"526 686 OFFCURVE",
"526 548 CURVE SMOOTH",
"526 416 OFFCURVE",
"437 385 OFFCURVE",
"342 385 CURVE SMOOTH",
"116 385 LINE"
);
}
);
width = 634;
},
{
hints = (
{
horizontal = 1;
origin = "{0, 15}";
target = "{1, 8}";
type = Stem;
},
{
horizontal = 1;
origin = "{1, 0}";
target = "{2, 8}";
type = Stem;
},
{
horizontal = 1;
origin = "{0, 14}";
target = "{2, 0}";
type = Stem;
},
{
place = "{49, 200}";
type = Stem;
},
{
place = "{428, 202}";
type = Stem;
},
{
place = "{408, 198}";
type = Stem;
}
);
layerId = "CDA8F3AC-A9A8-4005-B9E6-B6E3BABC1C09";
paths = (
{
closed = 1;
nodes = (
"362 0 LINE SMOOTH",
"543 0 OFFCURVE",
"630 63 OFFCURVE",
"630 191 CURVE SMOOTH",
"630 318 OFFCURVE",
"542 384 OFFCURVE",
"405 375 CURVE",
"389 355 LINE",
"551 367 OFFCURVE",
"606 445 OFFCURVE",
"606 544 CURVE SMOOTH",
"606 672 OFFCURVE",
"514 734 OFFCURVE",
"361 734 CURVE SMOOTH",
"49 734 LINE",
"49 0 LINE"
);
},
{
closed = 1;
nodes = (
"249 306 LINE",
"333 306 LINE SMOOTH",
"388 306 OFFCURVE",
"428 297 OFFCURVE",
"428 231 CURVE SMOOTH",
"428 166 OFFCURVE",
"388 157 OFFCURVE",
"333 157 CURVE SMOOTH",
"249 157 LINE"
);
},
{
closed = 1;
nodes = (
"249 577 LINE",
"322 577 LINE SMOOTH",
"371 577 OFFCURVE",
"408 568 OFFCURVE",
"408 508 CURVE SMOOTH",
"408 447 OFFCURVE",
"370 437 OFFCURVE",
"321 437 CURVE SMOOTH",
"249 437 LINE"
);
}
);
width = 659;
}
);
leftMetricsKey = H;
unicode = 0042;
},
{
color = 10;
glyphname = C;
lastChange = "2019-06-11 21:14:11 +0000";
layers = (
{
anchors = (
{
name = bottom;
position = "{334, 0}";
},
{
name = top;
position = "{337, 734}";
}
);
hints = (
{
horizontal = 1;
origin = "{0, 51}";
target = up;
type = BottomGhost;
},
{
horizontal = 1;
origin = "{0, 38}";
target = down;
type = TopGhost;
},
{
horizontal = 1;
origin = "{0, 51}";
target = "{0, 12}";
type = Stem;
},
{
horizontal = 1;
origin = "{0, 38}";
target = "{0, 25}";
type = Stem;
},
{
place = "{101, 20}";
type = Stem;
}
);
layerId = "444456EC-4579-471A-B2C3-7F5DF9BBCA9A";
paths = (
{
closed = 1;
nodes = (
"422 -10 OFFCURVE",
"486 16 OFFCURVE",
"528 61 CURVE SMOOTH",
"552 87 OFFCURVE",
"570 119 OFFCURVE",
"582 156 CURVE",
"564 166 LINE",
"552 128 OFFCURVE",
"536 99 OFFCURVE",
"513 75 CURVE SMOOTH",
"472 31 OFFCURVE",
"413 10 OFFCURVE",
"333 10 CURVE SMOOTH",
"255 10 OFFCURVE",
"194 32 OFFCURVE",
"153 75 CURVE SMOOTH",
"106 125 OFFCURVE",
"83 206 OFFCURVE",
"83 324 CURVE SMOOTH",
"83 410 LINE SMOOTH",
"83 528 OFFCURVE",
"106 609 OFFCURVE",
"154 659 CURVE SMOOTH",
"194 702 OFFCURVE",
"255 724 OFFCURVE",
"333 724 CURVE SMOOTH",
"413 724 OFFCURVE",
"472 703 OFFCURVE",
"514 659 CURVE SMOOTH",
"536 635 OFFCURVE",
"552 606 OFFCURVE",
"564 568 CURVE",
"582 578 LINE",
"570 615 OFFCURVE",
"552 647 OFFCURVE",
"528 673 CURVE SMOOTH",
"485 718 OFFCURVE",
"422 744 OFFCURVE",
"333 744 CURVE SMOOTH",
"246 744 OFFCURVE",
"181 718 OFFCURVE",
"139 673 CURVE SMOOTH",
"82 613 OFFCURVE",
"63 518 OFFCURVE",
"63 410 CURVE SMOOTH",
"63 324 LINE SMOOTH",
"63 216 OFFCURVE",
"82 122 OFFCURVE",
"139 61 CURVE SMOOTH",
"181 16 OFFCURVE",
"246 -10 OFFCURVE",
"333 -10 CURVE SMOOTH"
);
}
);
width = 636;
},
{
anchors = (
{
name = bottom;
position = "{341, 0}";
},
{
name = top;
position = "{359, 734}";
}
);
hints = (
{
horizontal = 1;
origin = "{0, 51}";
target = up;
type = BottomGhost;
},
{
horizontal = 1;
origin = "{0, 38}";
target = down;
type = TopGhost;
},
{
horizontal = 1;
origin = "{0, 51}";
target = "{0, 12}";
type = Stem;
},
{
horizontal = 1;
origin = "{0, 38}";
target = "{0, 25}";
type = Stem;
},
{
place = "{38, 199}";
type = Stem;
}
);
layerId = "CDA8F3AC-A9A8-4005-B9E6-B6E3BABC1C09";
paths = (
{
closed = 1;
nodes = (
"458 -10 OFFCURVE",
"537 19 OFFCURVE",
"589 71 CURVE SMOOTH",
"618 99 OFFCURVE",
"639 137 OFFCURVE",
"654 180 CURVE",
"471 257 LINE",
"467 228 OFFCURVE",
"457 207 OFFCURVE",
"445 192 CURVE SMOOTH",
"424 166 OFFCURVE",
"392 155 OFFCURVE",
"356 155 CURVE SMOOTH",
"320 155 OFFCURVE",
"289 165 OFFCURVE",
"267 192 CURVE SMOOTH",
"247 218 OFFCURVE",
"235 261 OFFCURVE",
"235 326 CURVE SMOOTH",
"235 408 LINE SMOOTH",
"235 473 OFFCURVE",
"245 516 OFFCURVE",
"267 542 CURVE SMOOTH",
"289 567 OFFCURVE",
"320 579 OFFCURVE",
"356 579 CURVE SMOOTH",
"392 579 OFFCURVE",
"423 568 OFFCURVE",
"445 542 CURVE SMOOTH",
"458 527 OFFCURVE",
"467 506 OFFCURVE",
"471 477 CURVE",
"654 554 LINE",
"639 597 OFFCURVE",
"617 636 OFFCURVE",
"589 663 CURVE SMOOTH",
"537 715 OFFCURVE",
"458 744 OFFCURVE",
"356 744 CURVE SMOOTH",
"252 744 OFFCURVE",
"174 715 OFFCURVE",
"123 663 CURVE SMOOTH",
"65 603 OFFCURVE",
"35 512 OFFCURVE",
"35 402 CURVE SMOOTH",
"35 332 LINE SMOOTH",
"35 222 OFFCURVE",
"61 132 OFFCURVE",
"123 71 CURVE SMOOTH",
"175 19 OFFCURVE",
"252 -10 OFFCURVE",
"356 -10 CURVE SMOOTH"
);
}
);
width = 681;
}
);
leftMetricsKey = O;
unicode = 0043;
},
{
color = 10;
glyphname = D;
lastChange = "2019-06-11 21:26:21 +0000";
layers = (
{
anchors = (
{
name = bottom;
position = "{324, 0}";
},
{
name = center;
position = "{324, 367}";
},
{
name = top;
position = "{313, 734}";
}
);
hints = (
{
horizontal = 1;
origin = "{0, 14}";
target = "{1, 14}";
type = Stem;
},
{
horizontal = 1;
origin = "{0, 13}";
target = "{1, 0}";
type = Stem;
},
{
place = "{96, 20}";
type = Stem;
},
{
place = "{566, 21}";
type = Stem;
}
);
layerId = "444456EC-4579-471A-B2C3-7F5DF9BBCA9A";
paths = (
{
closed = 1;
nodes = (
"302 0 LINE SMOOTH",
"424 0 OFFCURVE",
"492 25 OFFCURVE",
"532 74 CURVE SMOOTH",
"581 136 OFFCURVE",
"586 234 OFFCURVE",
"586 367 CURVE SMOOTH",
"586 500 OFFCURVE",
"580 598 OFFCURVE",
"532 660 CURVE SMOOTH",
"492 709 OFFCURVE",
"424 734 OFFCURVE",
"302 734 CURVE SMOOTH",
"96 734 LINE",
"96 0 LINE"
);
},
{
closed = 1;
nodes = (
"116 714 LINE",
"303 714 LINE SMOOTH",
"413 714 OFFCURVE",
"479 693 OFFCURVE",
"516 647 CURVE SMOOTH",
"560 590 OFFCURVE",
"566 501 OFFCURVE",
"566 367 CURVE SMOOTH",
"566 233 OFFCURVE",
"560 144 OFFCURVE",
"515 87 CURVE SMOOTH",
"479 41 OFFCURVE",
"413 20 OFFCURVE",
"303 20 CURVE SMOOTH",
"116 20 LINE"
);
}
);
width = 649;
},
{
anchors = (
{
name = bottom;
position = "{340, 0}";
},
{
name = center;
position = "{340, 367}";
},
{
name = top;
position = "{328, 734}";
}
);
hints = (
{
horizontal = 1;
origin = "{0, 14}";
target = "{1, 14}";
type = Stem;
},
{
horizontal = 1;
origin = "{0, 13}";
target = "{1, 0}";
type = Stem;
},
{
place = "{49, 200}";
type = Stem;
},
{
place = "{445, 200}";
type = Stem;
}
);
layerId = "CDA8F3AC-A9A8-4005-B9E6-B6E3BABC1C09";
paths = (
{
closed = 1;
nodes = (
"305 0 LINE SMOOTH",
"443 0 OFFCURVE",
"520 24 OFFCURVE",
"567 73 CURVE SMOOTH",
"626 135 OFFCURVE",
"645 240 OFFCURVE",
"645 367 CURVE SMOOTH",
"645 489 OFFCURVE",
"622 592 OFFCURVE",
"561 655 CURVE SMOOTH",
"503 715 OFFCURVE",
"417 734 OFFCURVE",
"305 734 CURVE SMOOTH",
"49 734 LINE",
"49 0 LINE"
);
},
{
closed = 1;
nodes = (
"248 563 LINE",
"316 563 LINE SMOOTH",
"373 563 OFFCURVE",
"398 555 OFFCURVE",
"418 527 CURVE SMOOTH",
"438 500 OFFCURVE",
"445 463 OFFCURVE",
"445 367 CURVE SMOOTH",
"445 271 OFFCURVE",
"438 234 OFFCURVE",
"418 208 CURVE SMOOTH",
"398 179 OFFCURVE",
"373 171 OFFCURVE",
"316 171 CURVE SMOOTH",
"248 171 LINE"
);
}
);
width = 681;
}
);
leftMetricsKey = H;
rightMetricsKey = O;
unicode = 0044;
},
{
color = 10;
glyphname = Eth;
lastChange = "2019-06-11 21:14:11 +0000";
layers = (
{
hints = (
{
horizontal = 1;
origin = "{0, 14}";
target = "{1, 14}";
type = Stem;
},
{
horizontal = 1;
origin = "{2, 3}";
target = "{2, 2}";
type = Stem;
},
{
horizontal = 1;
origin = "{0, 13}";
target = "{1, 0}";
type = Stem;
},
{
place = "{15, 11}";
type = Stem;
},
{
place = "{75, 11}";
type = Stem;
}
);
layerId = "444456EC-4579-471A-B2C3-7F5DF9BBCA9A";
paths = (
{
closed = 1;
nodes = (
"315 0 LINE SMOOTH",
"437 0 OFFCURVE",
"505 25 OFFCURVE",
"544 74 CURVE SMOOTH",
"593 136 OFFCURVE",
"599 234 OFFCURVE",
"599 367 CURVE SMOOTH",
"599 500 OFFCURVE",
"593 598 OFFCURVE",
"544 660 CURVE SMOOTH",
"505 709 OFFCURVE",
"437 734 OFFCURVE",
"315 734 CURVE SMOOTH",
"108 734 LINE",
"108 0 LINE"
);
},
{
closed = 1;
nodes = (
"129 714 LINE",
"315 714 LINE SMOOTH",
"426 714 OFFCURVE",
"491 693 OFFCURVE",
"528 647 CURVE SMOOTH",
"572 590 OFFCURVE",
"578 501 OFFCURVE",
"578 367 CURVE SMOOTH",
"578 233 OFFCURVE",
"572 144 OFFCURVE",
"528 87 CURVE SMOOTH",
"491 41 OFFCURVE",
"426 20 OFFCURVE",
"315 20 CURVE SMOOTH",
"129 20 LINE"
);
},
{
closed = 1;
nodes = (
"315 357 LINE",
"315 377 LINE",
"41 377 LINE",
"41 357 LINE"
);
}
);
width = 660;
},
{
hints = (
{
horizontal = 1;
origin = "{0, 14}";
target = "{1, 14}";
type = Stem;
},
{
horizontal = 1;
origin = "{2, 3}";
target = "{2, 2}";
type = Stem;
},
{
horizontal = 1;
origin = "{0, 13}";
target = "{1, 0}";
type = Stem;
},
{
place = "{66, 199}";
type = Stem;
},
{
place = "{441, 202}";
type = Stem;
}
);
layerId = "CDA8F3AC-A9A8-4005-B9E6-B6E3BABC1C09";
paths = (
{
closed = 1;
nodes = (
"330 0 LINE SMOOTH",
"470 0 OFFCURVE",
"547 24 OFFCURVE",
"593 73 CURVE SMOOTH",
"653 135 OFFCURVE",
"670 240 OFFCURVE",
"670 367 CURVE SMOOTH",
"670 489 OFFCURVE",
"649 592 OFFCURVE",
"588 655 CURVE SMOOTH",
"530 715 OFFCURVE",
"443 734 OFFCURVE",
"330 734 CURVE SMOOTH",
"71 734 LINE",
"71 0 LINE"
);
},
{
closed = 1;
nodes = (
"271 563 LINE",
"339 563 LINE SMOOTH",
"395 563 OFFCURVE",
"420 555 OFFCURVE",
"441 527 CURVE SMOOTH",
"460 500 OFFCURVE",
"467 463 OFFCURVE",
"467 367 CURVE SMOOTH",
"467 271 OFFCURVE",
"460 234 OFFCURVE",
"441 208 CURVE SMOOTH",
"420 179 OFFCURVE",
"395 171 OFFCURVE",
"339 171 CURVE SMOOTH",
"271 171 LINE"
);
},
{
closed = 1;
nodes = (
"374 291 LINE",
"374 443 LINE",
"15 443 LINE",
"15 291 LINE"
);
}
);
width = 706;
}
);
unicode = 00D0;
},
{
color = 10;
glyphname = E;
lastChange = "2019-06-11 21:14:11 +0000";
layers = (
{
anchors = (
{
name = bottom;
position = "{291, 0}";
},
{
name = ogonek;
position = "{521, 0}";
},
{
name = top;
position = "{291, 734}";
},
{
name = topleft;
position = "{32, 734}";
}
);
hints = (
{
horizontal = 1;
origin = "{0, 11}";
target = "{0, 2}";
type = Stem;
},
{
horizontal = 1;
origin = "{0, 3}";
target = "{0, 6}";
type = Stem;
},
{
horizontal = 1;
origin = "{0, 10}";
target = "{0, 7}";
type = Stem;
},
{
place = "{96, 20}";
type = Stem;
}
);
layerId = "444456EC-4579-471A-B2C3-7F5DF9BBCA9A";
paths = (
{
closed = 1;
nodes = (
"521 0 LINE",
"521 20 LINE",
"116 20 LINE",
"116 370 LINE",
"471 370 LINE",
"471 389 LINE",
"116 389 LINE",
"116 714 LINE",
"521 714 LINE",
"521 734 LINE",
"96 734 LINE",
"96 0 LINE"
);
}
);
width = 580;
},
{
anchors = (
{
name = bottom;
position = "{284, 0}";
},
{
name = ogonek;
position = "{527, 0}";
},
{
name = top;
position = "{284, 734}";
},
{
name = topleft;
position = "{23, 734}";
}
);
hints = (
{
horizontal = 1;
origin = "{0, 11}";
target = "{0, 2}";
type = Stem;
},
{
horizontal = 1;
origin = "{0, 3}";
target = "{0, 6}";
type = Stem;
},
{
horizontal = 1;
origin = "{0, 10}";
target = "{0, 7}";
type = Stem;
},
{
place = "{49, 200}";
type = Stem;
}
);
layerId = "CDA8F3AC-A9A8-4005-B9E6-B6E3BABC1C09";
paths = (
{
closed = 1;
nodes = (
"527 0 LINE",
"527 171 LINE",
"249 171 LINE",
"249 298 LINE",
"487 298 LINE",
"487 453 LINE",
"249 453 LINE",
"249 563 LINE",
"527 563 LINE",
"527 734 LINE",
"49 734 LINE",
"49 0 LINE"
);
}
);
width = 567;
}
);
leftMetricsKey = H;
unicode = 0045;
},
{
color = 10;
glyphname = F;
lastChange = "2019-06-11 21:14:11 +0000";
layers = (
{
hints = (
{
horizontal = 1;
origin = "{0, 9}";
target = up;
type = BottomGhost;
},
{
horizontal = 1;
origin = "{0, 1}";
target = "{0, 4}";
type = Stem;
},
{
horizontal = 1;
origin = "{0, 8}";
target = "{0, 5}";
type = Stem;
},
{
place = "{96, 20}";
type = Stem;
}
);
layerId = "444456EC-4579-471A-B2C3-7F5DF9BBCA9A";
paths = (
{
closed = 1;
nodes = (
"116 0 LINE",
"116 363 LINE",
"469 363 LINE",
"469 383 LINE",
"116 383 LINE",
"116 714 LINE",
"511 714 LINE",
"511 734 LINE",
"96 734 LINE",
"96 0 LINE"
);
}
);
width = 548;
},
{
hints = (
{
horizontal = 1;
origin = "{0, 9}";
target = up;
type = BottomGhost;
},
{
horizontal = 1;
origin = "{0, 1}";
target = "{0, 4}";
type = Stem;
},
{
horizontal = 1;
origin = "{0, 8}";
target = "{0, 5}";
type = Stem;
},
{
place = "{49, 200}";
type = Stem;
}
);
layerId = "CDA8F3AC-A9A8-4005-B9E6-B6E3BABC1C09";
paths = (
{
closed = 1;
nodes = (
"249 0 LINE",
"249 255 LINE",
"469 255 LINE",
"469 413 LINE",
"249 413 LINE",
"249 561 LINE",
"500 561 LINE",
"500 734 LINE",
"49 734 LINE",
"49 0 LINE"
);
}
);
width = 524;
}
);
leftMetricsKey = H;
unicode = 0046;
},
{
color = 10;
glyphname = G;
lastChange = "2019-06-11 21:14:11 +0000";
layers = (
{
anchors = (
{
name = bottom;
position = "{329, 0}";
},
{
name = top;
position = "{329, 734}";
}
);
hints = (
{
horizontal = 1;
origin = "{1, 5}";
target = up;
type = BottomGhost;
},
{
horizontal = 1;
origin = "{1, 3}";
target = "{1, 2}";
type = Stem;
},
{
horizontal = 1;
origin = "{0, 35}";
target = down;
type = TopGhost;
},
{
horizontal = 1;
origin = "{0, 48}";
target = "{0, 9}";
type = Stem;
},
{
horizontal = 1;
origin = "{0, 35}";
target = "{0, 22}";
type = Stem;
},
{
place = "{63, 20}";
type = Stem;
},
{
place = "{564, 17}";
type = Stem;
}
);
layerId = "444456EC-4579-471A-B2C3-7F5DF9BBCA9A";
paths = (
{
closed = 1;
nodes = (
"465 -10 OFFCURVE",
"572 69 OFFCURVE",
"576 328 CURVE",
"563 335 LINE",
"559 217 OFFCURVE",
"536 138 OFFCURVE",
"501 88 CURVE SMOOTH",
"458 29 OFFCURVE",
"391 9 OFFCURVE",
"324 9 CURVE SMOOTH",
"254 9 OFFCURVE",
"194 32 OFFCURVE",
"153 75 CURVE SMOOTH",
"106 125 OFFCURVE",
"83 206 OFFCURVE",
"83 324 CURVE SMOOTH",
"83 410 LINE SMOOTH",
"83 528 OFFCURVE",
"106 609 OFFCURVE",
"154 659 CURVE SMOOTH",
"194 702 OFFCURVE",
"255 725 OFFCURVE",
"334 725 CURVE SMOOTH",
"413 725 OFFCURVE",
"472 703 OFFCURVE",
"514 659 CURVE SMOOTH",
"536 635 OFFCURVE",
"552 606 OFFCURVE",
"564 568 CURVE",
"582 578 LINE",
"570 615 OFFCURVE",
"553 647 OFFCURVE",
"528 673 CURVE",
"485 718 OFFCURVE",
"422 744 OFFCURVE",
"334 744 CURVE SMOOTH",
"246 744 OFFCURVE",
"181 718 OFFCURVE",
"139 673 CURVE SMOOTH",
"82 613 OFFCURVE",
"63 518 OFFCURVE",
"63 410 CURVE SMOOTH",
"63 324 LINE SMOOTH",
"63 216 OFFCURVE",
"81 122 OFFCURVE",
"139 61 CURVE SMOOTH",
"182 16 OFFCURVE",
"245 -10 OFFCURVE",
"323 -10 CURVE SMOOTH"
);
},
{
closed = 1;
nodes = (
"582 0 LINE",
"582 352 LINE",
"322 352 LINE",
"322 334 LINE",
"563 334 LINE",
"565 0 LINE"
);
}
);
width = 656;
},
{
anchors = (
{
name = bottom;
position = "{335, 0}";
},
{
name = top;
position = "{351, 734}";
}
);
hints = (
{
horizontal = 1;
origin = "{1, 5}";
target = up;
type = BottomGhost;
},
{
horizontal = 1;
origin = "{1, 3}";
target = "{1, 2}";
type = Stem;
},
{
horizontal = 1;
origin = "{0, 35}";
target = down;
type = TopGhost;
},
{
horizontal = 1;
origin = "{0, 48}";
target = "{0, 9}";
type = Stem;
},
{
horizontal = 1;
origin = "{0, 35}";
target = "{0, 22}";
type = Stem;
},
{
place = "{35, 198}";
type = Stem;
},
{
place = "{531, 122}";
type = Stem;
}
);
layerId = "CDA8F3AC-A9A8-4005-B9E6-B6E3BABC1C09";
paths = (
{
closed = 1;
nodes = (
"484 -10 OFFCURVE",
"576 78 OFFCURVE",
"615 234 CURVE",
"473 276 LINE",
"470 238 OFFCURVE",
"459 211 OFFCURVE",
"445 193 CURVE SMOOTH",
"424 165 OFFCURVE",
"392 155 OFFCURVE",
"354 155 CURVE SMOOTH",
"317 155 OFFCURVE",
"287 165 OFFCURVE",
"266 191 CURVE SMOOTH",
"245 218 OFFCURVE",
"234 260 OFFCURVE",
"234 326 CURVE SMOOTH",
"234 408 LINE SMOOTH",
"234 474 OFFCURVE",
"245 517 OFFCURVE",
"266 543 CURVE SMOOTH",
"288 569 OFFCURVE",
"318 579 OFFCURVE",
"355 579 CURVE SMOOTH",
"392 579 OFFCURVE",
"422 569 OFFCURVE",
"444 543 CURVE SMOOTH",
"457 527 OFFCURVE",
"466 506 OFFCURVE",
"471 477 CURVE",
"653 555 LINE",
"638 598 OFFCURVE",
"617 635 OFFCURVE",
"587 663 CURVE",
"536 714 OFFCURVE",
"458 744 OFFCURVE",
"355 744 CURVE SMOOTH",
"252 744 OFFCURVE",
"172 715 OFFCURVE",
"121 663 CURVE SMOOTH",
"63 604 OFFCURVE",
"35 513 OFFCURVE",
"35 401 CURVE SMOOTH",
"35 333 LINE SMOOTH",
"35 222 OFFCURVE",
"61 131 OFFCURVE",
"121 71 CURVE SMOOTH",
"174 18 OFFCURVE",
"238 -10 OFFCURVE",
"333 -10 CURVE SMOOTH"
);
},
{
closed = 1;
nodes = (
"653 0 LINE",
"653 387 LINE",
"359 387 LINE",
"359 253 LINE",
"509 253 LINE",
"534 0 LINE"
);
}
);
width = 703;
}
);
leftMetricsKey = O;
unicode = 0047;
},
{
color = 10;
glyphname = H;
lastChange = "2019-06-11 21:14:11 +0000";
layers = (
{
hints = (
{
horizontal = 1;
origin = "{1, 3}";
target = up;
type = BottomGhost;
},
{
horizontal = 1;
origin = "{2, 3}";
target = "{2, 2}";
type = Stem;
},
{
horizontal = 1;
origin = "{1, 2}";
target = down;
type = TopGhost;
},
{
place = "{96, 20}";
type = Stem;
},
{
place = "{555, 20}";
type = Stem;
}
);
layerId = "444456EC-4579-471A-B2C3-7F5DF9BBCA9A";
paths = (
{
closed = 1;
nodes = (
"575 0 LINE",
"575 734 LINE",
"555 734 LINE",
"555 0 LINE"
);
},
{
closed = 1;
nodes = (
"116 0 LINE",
"116 734 LINE",
"96 734 LINE",
"96 0 LINE"
);
},
{
closed = 1;
nodes = (
"565 370 LINE",
"565 389 LINE",
"106 389 LINE",
"106 370 LINE"
);
}
);
width = 671;
},
{
hints = (
{
horizontal = 1;
origin = "{1, 3}";
target = up;
type = BottomGhost;
},
{
horizontal = 1;
origin = "{2, 3}";
target = "{2, 2}";
type = Stem;
},
{
horizontal = 1;
origin = "{1, 2}";
target = down;
type = TopGhost;
},
{
place = "{49, 200}";
type = Stem;
},
{
place = "{432, 200}";
type = Stem;
}
);
layerId = "CDA8F3AC-A9A8-4005-B9E6-B6E3BABC1C09";
paths = (
{
closed = 1;
nodes = (
"632 0 LINE",
"632 734 LINE",
"433 734 LINE",
"433 0 LINE"
);
},
{
closed = 1;
nodes = (
"249 0 LINE",
"249 734 LINE",
"49 734 LINE",
"49 0 LINE"
);
},
{
closed = 1;
nodes = (
"462 283 LINE",
"462 454 LINE",
"225 454 LINE",
"225 283 LINE"
);
}
);
width = 681;
}
);
unicode = 0048;
},
{
color = 10;
glyphname = Hbar;
lastChange = "2019-06-11 21:17:16 +0000";
layers = (
{
hints = (
{
horizontal = 1;
origin = "{1, 3}";
target = up;
type = BottomGhost;
},
{
horizontal = 1;
origin = "{2, 3}";
target = "{2, 2}";
type = Stem;
},
{
horizontal = 1;
origin = "{1, 2}";
target = down;
type = TopGhost;
},
{
place = "{97, 25}";
type = Stem;
},
{
place = "{555, 20}";
type = Stem;
},
{
horizontal = 1;
origin = "{3, 3}";
target = "{3, 2}";
type = Stem;
},
{
place = "{2, 18}";
type = Stem;
}
);
layerId = "444456EC-4579-471A-B2C3-7F5DF9BBCA9A";
paths = (
{
closed = 1;
nodes = (
"575 0 LINE",
"575 734 LINE",
"555 734 LINE",
"555 0 LINE"
);
},
{
closed = 1;
nodes = (
"116 0 LINE",
"116 734 LINE",
"96 734 LINE",
"96 0 LINE"
);
},
{
closed = 1;
nodes = (
"565 370 LINE",
"565 389 LINE",
"106 389 LINE",
"106 370 LINE"
);
},
{
closed = 1;
nodes = (
"671 555 LINE",
"671 573 LINE",
"0 573 LINE",
"0 555 LINE"
);
}
);
width = 671;
},
{
hints = (
{
horizontal = 1;
origin = "{1, 3}";
target = up;
type = BottomGhost;
},
{
horizontal = 1;
origin = "{2, 3}";
target = "{2, 2}";
type = Stem;
},
{
horizontal = 1;
origin = "{1, 2}";
target = down;
type = TopGhost;
},
{
place = "{50, 210}";
type = Stem;
},
{
place = "{432, 200}";
type = Stem;
},
{
horizontal = 1;
origin = "{3, 3}";
target = "{3, 2}";
type = Stem;
},
{
place = "{5, 343}";
type = Stem;
}
);
layerId = "CDA8F3AC-A9A8-4005-B9E6-B6E3BABC1C09";
paths = (
{
closed = 1;
nodes = (
"632 0 LINE",
"632 734 LINE",
"432 734 LINE",
"432 0 LINE"
);
},
{
closed = 1;
nodes = (
"249 0 LINE",
"249 734 LINE",
"49 734 LINE",
"49 0 LINE"
);
},
{
closed = 1;
nodes = (
"462 283 LINE",
"462 454 LINE",
"225 454 LINE",
"225 283 LINE"
);
},
{
closed = 1;
nodes = (
"681 545 LINE",
"681 646 LINE",
"0 646 LINE",
"0 545 LINE"
);
}
);
width = 681;
}
);
widthMetricsKey = H;
unicode = 0126;
},
{
color = 10;
glyphname = I;
lastChange = "2019-06-11 21:26:18 +0000";
layers = (
{
anchors = (
{
name = bottom;
position = "{106, 0}";
},
{
name = ogonek;
position = "{181, 10}";
},
{
name = top;
position = "{106, 734}";
},
{
name = topleft;
position = "{32, 734}";
}
);
hints = (
{
horizontal = 1;
origin = "{0, 3}";
target = up;
type = BottomGhost;
},
{
horizontal = 1;
origin = "{0, 2}";
target = down;
type = TopGhost;
},
{
place = "{96, 20}";
type = Stem;
}
);
layerId = "444456EC-4579-471A-B2C3-7F5DF9BBCA9A";
paths = (
{
closed = 1;
nodes = (
"116 0 LINE",
"116 734 LINE",
"96 734 LINE",
"96 0 LINE"
);
}
);
width = 212;
},
{
anchors = (
{
name = bottom;
position = "{149, 0}";
},
{
name = ogonek;
position = "{265, 10}";
},
{
name = top;
position = "{149, 734}";
},
{
name = topleft;
position = "{23, 734}";
}
);
hints = (
{
horizontal = 1;
origin = "{0, 3}";
target = up;
type = BottomGhost;
},
{
horizontal = 1;
origin = "{0, 2}";
target = down;
type = TopGhost;
},
{
place = "{49, 200}";
type = Stem;
}
);
layerId = "CDA8F3AC-A9A8-4005-B9E6-B6E3BABC1C09";
paths = (
{
closed = 1;
nodes = (
"249 0 LINE",
"249 734 LINE",
"49 734 LINE",
"49 0 LINE"
);
}
);
width = 298;
}
);
leftMetricsKey = H;
rightMetricsKey = H;
unicode = 0049;
},
{
color = 10;
glyphname = J;
lastChange = "2019-06-11 21:26:16 +0000";
layers = (
{
hints = (
{
horizontal = 1;
origin = "{0, 7}";
target = "{0, 6}";
type = Stem;
},
{
horizontal = 1;
origin = "{0, 15}";
target = down;
type = TopGhost;
},
{
place = "{245, 20}";
type = Stem;
}
);
layerId = "444456EC-4579-471A-B2C3-7F5DF9BBCA9A";
paths = (
{
closed = 1;
nodes = (
"245 263 LINE SMOOTH",
"245 178 OFFCURVE",
"234 118 OFFCURVE",
"207 80 CURVE SMOOTH",
"177 36 OFFCURVE",
"128 19 OFFCURVE",
"22 19 CURVE",
"22 0 LINE",
"136 0 OFFCURVE",
"190 19 OFFCURVE",
"224 67 CURVE SMOOTH",
"253 108 OFFCURVE",
"265 172 OFFCURVE",
"265 264 CURVE SMOOTH",
"265 734 LINE",
"245 734 LINE"
);
}
);
width = 361;
},
{
hints = (
{
horizontal = 1;
origin = "{0, 7}";
target = "{0, 6}";
type = Stem;
},
{
horizontal = 1;
origin = "{0, 15}";
target = down;
type = TopGhost;
},
{
place = "{169, 200}";
type = Stem;
}
);
layerId = "CDA8F3AC-A9A8-4005-B9E6-B6E3BABC1C09";
paths = (
{
closed = 1;
nodes = (
"169 295 LINE SMOOTH",
"169 252 OFFCURVE",
"163 221 OFFCURVE",
"144 201 CURVE SMOOTH",
"125 179 OFFCURVE",
"93 170 OFFCURVE",
"13 170 CURVE",
"13 0 LINE",
"172 0 OFFCURVE",
"255 16 OFFCURVE",
"307 66 CURVE SMOOTH",
"350 109 OFFCURVE",
"369 175 OFFCURVE",
"369 276 CURVE SMOOTH",
"369 734 LINE",
"169 734 LINE"
);
}
);
width = 418;
}
);
rightMetricsKey = H;
unicode = 004A;
},
{
color = 10;
glyphname = K;
lastChange = "2019-06-11 21:17:13 +0000";
layers = (
{
anchors = (
{
name = bottom;
position = "{280, 0}";
},
{
name = top;
position = "{280, 734}";
}
);
hints = (
{
horizontal = 1;
origin = "{1, 3}";
target = up;
type = BottomGhost;
},
{
horizontal = 1;
place = "{360, 2000}";
type = Stem;
},
{
horizontal = 1;
origin = "{1, 2}";
target = down;
type = TopGhost;
},
{
place = "{96, 20}";
type = Stem;
}
);
layerId = "444456EC-4579-471A-B2C3-7F5DF9BBCA9A";
paths = (
{
closed = 1;
nodes = (
"525 0 LINE",
"223 369 LINE",
"515 734 LINE",
"488 734 LINE",
"198 369 LINE",
"498 0 LINE"
);
},
{
closed = 1;
nodes = (
"116 0 LINE",
"116 734 LINE",
"96 734 LINE",
"96 0 LINE"
);
},
{
closed = 1;
nodes = (
"110 378 LINE",
"110 360 LINE",
"212 360 LINE",
"212 378 LINE"
);
}
);
width = 561;
},
{
anchors = (
{
name = bottom;
position = "{332, 0}";
},
{
name = top;
position = "{332, 734}";
}
);
hints = (
{
horizontal = 1;
origin = "{1, 3}";
target = up;
type = BottomGhost;
},
{
horizontal = 1;
place = "{129, 292}";
type = Stem;
},
{
horizontal = 1;
origin = "{1, 2}";
target = down;
type = TopGhost;
},
{
place = "{19, 43}";
type = Stem;
}
);
layerId = "CDA8F3AC-A9A8-4005-B9E6-B6E3BABC1C09";
paths = (
{
closed = 1;
nodes = (
"658 0 LINE",
"437 374 LINE",
"639 734 LINE",
"414 734 LINE",
"244 374 LINE",
"433 0 LINE"
);
},
{
closed = 1;
nodes = (
"249 0 LINE",
"249 734 LINE",
"49 734 LINE",
"49 0 LINE"
);
},
{
closed = 1;
nodes = (
"226 437 LINE",
"226 310 LINE",
"307 300 LINE",
"307 447 LINE"
);
}
);
width = 662;
}
);
leftMetricsKey = H;
unicode = 004B;
},
{
color = 10;
glyphname = L;
lastChange = "2019-06-11 21:17:13 +0000";
layers = (
{
anchors = (
{
name = bottom;
position = "{262, 0}";
},
{
name = center;
position = "{262, 367}";
},
{
name = top;
position = "{110, 734}";
},
{
name = topright;
position = "{503, 734}";
}
);
hints = (
{
horizontal = 1;
origin = "{0, 5}";
target = "{0, 2}";
type = Stem;
},
{
horizontal = 1;
origin = "{0, 4}";
target = down;
type = TopGhost;
},
{
place = "{96, 20}";
type = Stem;
}
);
layerId = "444456EC-4579-471A-B2C3-7F5DF9BBCA9A";
paths = (
{
closed = 1;
nodes = (
"492 0 LINE",
"492 20 LINE",
"116 20 LINE",
"116 734 LINE",
"96 734 LINE",
"96 0 LINE"
);
}
);
width = 523;
},
{
anchors = (
{
name = bottom;
position = "{248, 0}";
},
{
name = center;
position = "{248, 367}";
},
{
name = top;
position = "{156, 734}";
},
{
name = topright;
position = "{476, 734}";
}
);
hints = (
{
horizontal = 1;
origin = "{0, 5}";
target = "{0, 2}";
type = Stem;
},
{
horizontal = 1;
origin = "{0, 4}";
target = down;
type = TopGhost;
},
{
place = "{49, 200}";
type = Stem;
}
);
layerId = "CDA8F3AC-A9A8-4005-B9E6-B6E3BABC1C09";
paths = (
{
closed = 1;
nodes = (
"482 0 LINE",
"482 173 LINE",
"249 173 LINE",
"249 734 LINE",
"49 734 LINE",
"49 0 LINE"
);
}
);
width = 496;
}
);
leftMetricsKey = H;
unicode = 004C;
},
{
color = 10;
glyphname = Lslash;
lastChange = "2019-06-11 21:17:13 +0000";
layers = (
{
hints = (
{
horizontal = 1;
origin = "{0, 5}";
target = "{0, 2}";
type = Stem;
},
{
horizontal = 1;
origin = "{0, 4}";
target = down;
type = TopGhost;
},
{
place = "{96, 20}";
type = Stem;
}
);
layerId = "444456EC-4579-471A-B2C3-7F5DF9BBCA9A";
paths = (
{
closed = 1;
nodes = (
"492 0 LINE",
"492 20 LINE",
"116 20 LINE",
"116 734 LINE",
"96 734 LINE",
"96 0 LINE"
);
},
{
closed = 1;
nodes = (
"298 428 LINE",
"293 447 LINE",
"27 376 LINE",
"31 357 LINE"
);
}
);
width = 523;
},
{
hints = (
{
horizontal = 1;
origin = "{0, 5}";
target = "{0, 2}";
type = Stem;
},
{
horizontal = 1;
origin = "{0, 4}";
target = down;
type = TopGhost;
},
{
place = "{49, 200}";
type = Stem;
}
);
layerId = "CDA8F3AC-A9A8-4005-B9E6-B6E3BABC1C09";
paths = (
{
closed = 1;
nodes = (
"482 0 LINE",
"482 173 LINE",
"249 173 LINE",
"249 734 LINE",
"49 734 LINE",
"49 0 LINE"
);
},
{
closed = 1;
nodes = (
"365 382 LINE",
"325 529 LINE",
"-27 434 LINE",
"12 288 LINE"
);
}
);
width = 496;
}
);
unicode = 0141;
},
{
color = 10;
glyphname = M;
lastChange = "2019-06-11 21:18:57 +0000";
layers = (
{
hints = (
{
horizontal = 1;
origin = "{0, 21}";
target = up;
type = BottomGhost;
},
{
horizontal = 1;
origin = "{0, 20}";
target = down;
type = TopGhost;
},
{
place = "{4, 22}";
type = Stem;
},
{
place = "{703, 25}";
type = Stem;
}
);
layerId = "444456EC-4579-471A-B2C3-7F5DF9BBCA9A";
paths = (
{
closed = 1;
nodes = (
"116 0 LINE",
"116 525 LINE",
"116 708 LINE",
"113 708 LINE",
"182 525 LINE",
"384 0 LINE",
"402 0 LINE",
"604 525 LINE",
"673 708 LINE",
"670 708 LINE",
"670 525 LINE",
"670 0 LINE",
"690 0 LINE",
"690 734 LINE",
"662 734 LINE",
"458 200 LINE",
"391 20 LINE",
"395 20 LINE",
"328 200 LINE",
"124 734 LINE",
"96 734 LINE",
"96 0 LINE"
);
}
);
width = 786;
},
{
hints = (
{
horizontal = 1;
origin = "{0, 21}";
target = up;
type = BottomGhost;
},
{
horizontal = 1;
origin = "{0, 20}";
target = down;
type = TopGhost;
},
{
place = "{44, 181}";
type = Stem;
},
{
place = "{596, 181}";
type = Stem;
}
);
layerId = "CDA8F3AC-A9A8-4005-B9E6-B6E3BABC1C09";
paths = (
{
closed = 1;
nodes = (
"230 0 LINE",
"230 280 LINE",
"229 523 LINE",
"208 523 LINE",
"266 281 LINE",
"340 0 LINE",
"483 0 LINE",
"558 281 LINE",
"616 523 LINE",
"594 523 LINE",
"594 280 LINE",
"594 0 LINE",
"775 0 LINE",
"775 734 LINE",
"540 734 LINE",
"435 348 LINE",
"383 148 LINE",
"441 148 LINE",
"389 348 LINE",
"284 734 LINE",
"49 734 LINE",
"49 0 LINE"
);
}
);
width = 824;
}
);
leftMetricsKey = H;
rightMetricsKey = H;
unicode = 004D;
},
{
color = 10;
glyphname = N;
lastChange = "2019-06-11 21:18:57 +0000";
layers = (
{
anchors = (
{
name = bottom;
position = "{336, 0}";
},
{
name = top;
position = "{336, 734}";
}
);
hints = (
{
horizontal = 1;
origin = "{0, 11}";
target = up;
type = BottomGhost;
},
{
horizontal = 1;
origin = "{0, 10}";
target = down;
type = TopGhost;
},
{
place = "{4, 2000}";
type = Stem;
},
{
place = "{710, 2000}";
type = Stem;
}
);
layerId = "444456EC-4579-471A-B2C3-7F5DF9BBCA9A";
paths = (
{
closed = 1;
nodes = (
"116 0 LINE",
"116 703 LINE",
"117 703 LINE",
"549 0 LINE",
"575 0 LINE",
"575 734 LINE",
"555 734 LINE",
"555 32 LINE",
"554 32 LINE",
"123 734 LINE",
"96 734 LINE",
"96 0 LINE"
);
}
);
width = 671;
},
{
anchors = (
{
name = bottom;
position = "{342, 0}";
},
{
name = top;
position = "{342, 734}";
}
);
hints = (
{
horizontal = 1;
origin = "{0, 11}";
target = up;
type = BottomGhost;
},
{
horizontal = 1;
origin = "{0, 10}";
target = down;
type = TopGhost;
},
{
place = "{44, 296}";
type = Stem;
},
{
place = "{453, 296}";
type = Stem;
}
);
layerId = "CDA8F3AC-A9A8-4005-B9E6-B6E3BABC1C09";
paths = (
{
closed = 1;
nodes = (
"239 0 LINE",
"239 426 LINE",
"240 426 LINE",
"450 0 LINE",
"635 0 LINE",
"635 734 LINE",
"445 734 LINE",
"445 331 LINE",
"444 331 LINE",
"252 734 LINE",
"49 734 LINE",
"49 0 LINE"
);
}
);
width = 684;
}
);
leftMetricsKey = H;
rightMetricsKey = H;
unicode = 004E;
},
{
color = 10;
glyphname = Eng;
lastChange = "2019-06-11 21:17:13 +0000";
layers = (
{
anchors = (
{
name = bottom;
position = "{336, 0}";
},
{
name = top;
position = "{336, 734}";
}
);
hints = (
{
horizontal = 1;
origin = "{0, 11}";
target = up;
type = BottomGhost;
},
{
horizontal = 1;
origin = "{0, 10}";
target = down;
type = TopGhost;
},
{
place = "{4, 2000}";
type = Stem;
},
{
place = "{710, 2000}";
type = Stem;
}
);
layerId = "444456EC-4579-471A-B2C3-7F5DF9BBCA9A";
paths = (
{
closed = 1;
nodes = (
"116 0 LINE",
"116 703 LINE",
"117 703 LINE",
"549 0 LINE",
"575 0 LINE",
"575 734 LINE",
"555 734 LINE",
"555 32 LINE",
"554 32 LINE",
"123 734 LINE",
"96 734 LINE",
"96 0 LINE"
);
},
{
closed = 1;
nodes = (
"516 -190 OFFCURVE",
"539 -181 OFFCURVE",
"553 -165 CURVE SMOOTH",
"576 -141 OFFCURVE",
"575 -102 OFFCURVE",
"575 -59 CURVE SMOOTH",
"575 266 LINE",
"555 266 LINE",
"555 -58 LINE SMOOTH",
"555 -99 OFFCURVE",
"555 -132 OFFCURVE",
"538 -152 CURVE SMOOTH",
"519 -173 OFFCURVE",
"492 -173 OFFCURVE",
"466 -172 CURVE",
"466 -190 LINE",
"468 -190 OFFCURVE",
"474 -190 OFFCURVE",
"480 -190 CURVE SMOOTH"
);
}
);
width = 671;
},
{
anchors = (
{
name = bottom;
position = "{342, 0}";
},
{
name = top;
position = "{342, 734}";
}
);
hints = (
{
horizontal = 1;
origin = "{0, 11}";
target = up;
type = BottomGhost;
},
{
horizontal = 1;
origin = "{0, 10}";
target = down;
type = TopGhost;
},
{
place = "{44, 296}";
type = Stem;
},
{
place = "{453, 296}";
type = Stem;
}
);
layerId = "CDA8F3AC-A9A8-4005-B9E6-B6E3BABC1C09";
paths = (
{
closed = 1;
nodes = (
"239 0 LINE",
"239 426 LINE",
"240 426 LINE",
"450 0 LINE",
"635 0 LINE",
"635 734 LINE",
"445 734 LINE",
"445 331 LINE",
"444 331 LINE",
"252 734 LINE",
"49 734 LINE",
"49 0 LINE"
);
},
{
closed = 1;
nodes = (
"541 -191 OFFCURVE",
"583 -177 OFFCURVE",
"607 -144 CURVE SMOOTH",
"628 -115 OFFCURVE",
"635 -75 OFFCURVE",
"635 -19 CURVE SMOOTH",
"635 135 LINE",
"447 135 LINE",
"447 -6 LINE SMOOTH",
"447 -28 OFFCURVE",
"444 -42 OFFCURVE",
"436 -51 CURVE SMOOTH",
"425 -64 OFFCURVE",
"405 -63 OFFCURVE",
"387 -61 CURVE",
"387 -189 LINE",
"403 -190 OFFCURVE",
"446 -191 OFFCURVE",
"470 -191 CURVE SMOOTH"
);
}
);
width = 684;
}
);
unicode = 014A;
},
{
color = 10;
glyphname = O;
lastChange = "2019-06-11 21:17:13 +0000";
layers = (
{
anchors = (
{
name = bottom;
position = "{332, 0}";
},
{
name = center;
position = "{332, 367}";
},
{
name = ogonek;
position = "{588, 10}";
},
{
name = top;
position = "{332, 734}";
},
{
name = topleft;
position = "{32, 734}";
},
{
name = topright;
position = "{632, 734}";
}
);
hints = (
{
horizontal = 1;
origin = "{0, 25}";
target = up;
type = BottomGhost;
},
{
horizontal = 1;
origin = "{0, 12}";
target = down;
type = TopGhost;
},
{
horizontal = 1;
origin = "{0, 25}";
target = "{1, 25}";
type = Stem;
},
{
horizontal = 1;
origin = "{0, 12}";
target = "{1, 12}";
type = Stem;
},
{
place = "{63, 20}";
type = Stem;
},
{
place = "{581, 20}";
type = Stem;
}
);
layerId = "444456EC-4579-471A-B2C3-7F5DF9BBCA9A";
paths = (
{
closed = 1;
nodes = (
"420 -10 OFFCURVE",
"483 16 OFFCURVE",
"525 61 CURVE SMOOTH",
"583 121 OFFCURVE",
"601 216 OFFCURVE",
"601 324 CURVE SMOOTH",
"601 410 LINE SMOOTH",
"601 518 OFFCURVE",
"583 613 OFFCURVE",
"526 673 CURVE SMOOTH",
"483 718 OFFCURVE",
"420 744 OFFCURVE",
"332 744 CURVE SMOOTH",
"245 744 OFFCURVE",
"181 718 OFFCURVE",
"138 673 CURVE SMOOTH",
"81 613 OFFCURVE",
"63 518 OFFCURVE",
"63 410 CURVE SMOOTH",
"63 324 LINE SMOOTH",
"63 216 OFFCURVE",
"81 122 OFFCURVE",
"138 61 CURVE SMOOTH",
"181 16 OFFCURVE",
"245 -10 OFFCURVE",
"332 -10 CURVE SMOOTH"
);
},
{
closed = 1;
nodes = (
"254 9 OFFCURVE",
"194 32 OFFCURVE",
"153 75 CURVE SMOOTH",
"106 125 OFFCURVE",
"83 206 OFFCURVE",
"83 324 CURVE SMOOTH",
"83 410 LINE SMOOTH",
"83 528 OFFCURVE",
"106 609 OFFCURVE",
"154 659 CURVE SMOOTH",
"194 702 OFFCURVE",
"254 725 OFFCURVE",
"332 725 CURVE SMOOTH",
"411 725 OFFCURVE",
"469 703 OFFCURVE",
"511 659 CURVE SMOOTH",
"558 609 OFFCURVE",
"581 528 OFFCURVE",
"581 410 CURVE SMOOTH",
"581 324 LINE SMOOTH",
"581 206 OFFCURVE",
"558 125 OFFCURVE",
"510 75 CURVE SMOOTH",
"469 31 OFFCURVE",
"411 9 OFFCURVE",
"332 9 CURVE SMOOTH"
);
}
);
width = 664;
},
{
anchors = (
{
name = bottom;
position = "{355, 0}";
},
{
name = center;
position = "{355, 367}";
},
{
name = ogonek;
position = "{637, 10}";
},
{
name = top;
position = "{355, 734}";
},
{
name = topleft;
position = "{23, 734}";
},
{
name = topright;
position = "{688, 734}";
}
);
hints = (
{
horizontal = 1;
origin = "{0, 25}";
target = up;
type = BottomGhost;
},
{
horizontal = 1;
origin = "{0, 12}";
target = down;
type = TopGhost;
},
{
horizontal = 1;
origin = "{0, 25}";
target = "{1, 25}";
type = Stem;
},
{
horizontal = 1;
origin = "{0, 12}";
target = "{1, 12}";
type = Stem;
},
{
place = "{35, 199}";
type = Stem;
},
{
place = "{477, 199}";
type = Stem;
}
);
layerId = "CDA8F3AC-A9A8-4005-B9E6-B6E3BABC1C09";
paths = (
{
closed = 1;
nodes = (
"458 -10 OFFCURVE",
"536 19 OFFCURVE",
"589 71 CURVE SMOOTH",
"648 130 OFFCURVE",
"675 221 OFFCURVE",
"675 333 CURVE SMOOTH",
"675 401 LINE SMOOTH",
"675 513 OFFCURVE",
"647 604 OFFCURVE",
"589 663 CURVE SMOOTH",
"536 715 OFFCURVE",
"458 744 OFFCURVE",
"355 744 CURVE SMOOTH",
"252 744 OFFCURVE",
"173 715 OFFCURVE",
"121 663 CURVE SMOOTH",
"63 604 OFFCURVE",
"35 513 OFFCURVE",
"35 401 CURVE SMOOTH",
"35 333 LINE SMOOTH",
"35 221 OFFCURVE",
"62 130 OFFCURVE",
"121 71 CURVE SMOOTH",
"174 19 OFFCURVE",
"252 -10 OFFCURVE",
"355 -10 CURVE SMOOTH"
);
},
{
closed = 1;
nodes = (
"319 155 OFFCURVE",
"288 165 OFFCURVE",
"267 191 CURVE SMOOTH",
"246 217 OFFCURVE",
"234 260 OFFCURVE",
"234 326 CURVE SMOOTH",
"234 408 LINE SMOOTH",
"234 474 OFFCURVE",
"246 517 OFFCURVE",
"267 543 CURVE SMOOTH",
"288 569 OFFCURVE",
"319 579 OFFCURVE",
"355 579 CURVE SMOOTH",
"392 579 OFFCURVE",
"423 569 OFFCURVE",
"444 543 CURVE SMOOTH",
"465 517 OFFCURVE",
"477 474 OFFCURVE",
"477 408 CURVE SMOOTH",
"477 326 LINE SMOOTH",
"477 260 OFFCURVE",
"465 217 OFFCURVE",
"445 191 CURVE SMOOTH",
"423 165 OFFCURVE",
"392 155 OFFCURVE",
"355 155 CURVE SMOOTH"
);
}
);
width = 711;
}
);
unicode = 004F;
},
{
color = 10;
glyphname = Oslash;
lastChange = "2019-06-11 21:17:13 +0000";
layers = (
{
hints = (
{
horizontal = 1;
origin = "{0, 25}";
target = up;
type = BottomGhost;
},
{
horizontal = 1;
origin = "{0, 12}";
target = down;
type = TopGhost;
},
{
horizontal = 1;
origin = "{0, 25}";
target = "{1, 25}";
type = Stem;
},
{
horizontal = 1;
origin = "{0, 12}";
target = "{1, 12}";
type = Stem;
},
{
place = "{63, 20}";
type = Stem;
},
{
place = "{581, 20}";
type = Stem;
}
);
layerId = "444456EC-4579-471A-B2C3-7F5DF9BBCA9A";
paths = (
{
closed = 1;
nodes = (
"420 -10 OFFCURVE",
"483 16 OFFCURVE",
"525 61 CURVE SMOOTH",
"583 121 OFFCURVE",
"601 216 OFFCURVE",
"601 324 CURVE SMOOTH",
"601 410 LINE SMOOTH",
"601 518 OFFCURVE",
"583 613 OFFCURVE",
"526 673 CURVE SMOOTH",
"483 718 OFFCURVE",
"420 744 OFFCURVE",
"332 744 CURVE SMOOTH",
"245 744 OFFCURVE",
"181 718 OFFCURVE",
"138 673 CURVE SMOOTH",
"81 613 OFFCURVE",
"63 518 OFFCURVE",
"63 410 CURVE SMOOTH",
"63 324 LINE SMOOTH",
"63 216 OFFCURVE",
"81 122 OFFCURVE",
"138 61 CURVE SMOOTH",
"181 16 OFFCURVE",
"245 -10 OFFCURVE",
"332 -10 CURVE SMOOTH"
);
},
{
closed = 1;
nodes = (
"254 9 OFFCURVE",
"194 32 OFFCURVE",
"153 75 CURVE SMOOTH",
"106 125 OFFCURVE",
"83 206 OFFCURVE",
"83 324 CURVE SMOOTH",
"83 410 LINE SMOOTH",
"83 528 OFFCURVE",
"106 609 OFFCURVE",
"154 659 CURVE SMOOTH",
"194 702 OFFCURVE",
"254 725 OFFCURVE",
"332 725 CURVE SMOOTH",
"411 725 OFFCURVE",
"469 703 OFFCURVE",
"511 659 CURVE SMOOTH",
"558 609 OFFCURVE",
"581 528 OFFCURVE",
"581 410 CURVE SMOOTH",
"581 324 LINE SMOOTH",
"581 206 OFFCURVE",
"558 125 OFFCURVE",
"510 75 CURVE SMOOTH",
"469 31 OFFCURVE",
"411 9 OFFCURVE",
"332 9 CURVE SMOOTH"
);
},
{
closed = 1;
nodes = (
"139 -40 LINE",
"157 -40 LINE",
"532 774 LINE",
"515 774 LINE"
);
}
);
width = 664;
},
{
hints = (
{
horizontal = 1;
origin = "{0, 25}";
target = up;
type = BottomGhost;
},
{
horizontal = 1;
origin = "{0, 12}";
target = down;
type = TopGhost;
},
{
horizontal = 1;
origin = "{0, 25}";
target = "{1, 25}";
type = Stem;
},
{
horizontal = 1;
origin = "{0, 12}";
target = "{1, 12}";
type = Stem;
},
{
place = "{35, 199}";
type = Stem;
},
{
place = "{477, 199}";
type = Stem;
}
);
layerId = "CDA8F3AC-A9A8-4005-B9E6-B6E3BABC1C09";
paths = (
{
closed = 1;
nodes = (
"458 -10 OFFCURVE",
"536 19 OFFCURVE",
"589 71 CURVE SMOOTH",
"648 130 OFFCURVE",
"675 221 OFFCURVE",
"675 333 CURVE SMOOTH",
"675 401 LINE SMOOTH",
"675 513 OFFCURVE",
"647 604 OFFCURVE",
"589 663 CURVE SMOOTH",
"536 715 OFFCURVE",
"458 744 OFFCURVE",
"355 744 CURVE SMOOTH",
"252 744 OFFCURVE",
"173 715 OFFCURVE",
"121 663 CURVE SMOOTH",
"63 604 OFFCURVE",
"35 513 OFFCURVE",
"35 401 CURVE SMOOTH",
"35 333 LINE SMOOTH",
"35 221 OFFCURVE",
"62 130 OFFCURVE",
"121 71 CURVE SMOOTH",
"174 19 OFFCURVE",
"252 -10 OFFCURVE",
"355 -10 CURVE SMOOTH"
);
},
{
closed = 1;
nodes = (
"319 155 OFFCURVE",
"288 165 OFFCURVE",
"267 191 CURVE SMOOTH",
"246 217 OFFCURVE",
"234 260 OFFCURVE",
"234 326 CURVE SMOOTH",
"234 408 LINE SMOOTH",
"234 474 OFFCURVE",
"246 517 OFFCURVE",
"267 543 CURVE SMOOTH",
"288 569 OFFCURVE",
"319 579 OFFCURVE",
"355 579 CURVE SMOOTH",
"392 579 OFFCURVE",
"423 569 OFFCURVE",
"444 543 CURVE SMOOTH",
"465 517 OFFCURVE",
"477 474 OFFCURVE",
"477 408 CURVE SMOOTH",
"477 326 LINE SMOOTH",
"477 260 OFFCURVE",
"465 217 OFFCURVE",
"445 191 CURVE SMOOTH",
"423 165 OFFCURVE",
"392 155 OFFCURVE",
"355 155 CURVE SMOOTH"
);
},
{
closed = 1;
nodes = (
"93 -40 LINE",
"195 -40 LINE",
"618 774 LINE",
"516 774 LINE"
);
}
);
width = 711;
}
);
leftMetricsKey = O;
rightMetricsKey = O;
unicode = 00D8;
},
{
color = 10;
glyphname = OE;
lastChange = "2019-06-11 21:17:13 +0000";
layers = (
{
hints = (
{
horizontal = 1;
origin = "{2, 11}";
target = "{2, 2}";
type = Stem;
},
{
horizontal = 1;
origin = "{2, 3}";
target = "{2, 6}";
type = Stem;
},
{
horizontal = 1;
origin = "{2, 10}";
target = "{2, 7}";
type = Stem;
},
{
horizontal = 1;
origin = "{0, 25}";
target = up;
type = BottomGhost;
},
{
horizontal = 1;
origin = "{0, 12}";
target = down;
type = TopGhost;
},
{
horizontal = 1;
origin = "{2, 11}";
target = "{1, 25}";
type = Stem;
},
{
horizontal = 1;
origin = "{2, 10}";
target = "{1, 12}";
type = Stem;
},
{
place = "{63, 20}";
type = Stem;
},
{
place = "{581, 20}";
type = Stem;
}
);
layerId = "444456EC-4579-471A-B2C3-7F5DF9BBCA9A";
paths = (
{
closed = 1;
nodes = (
"420 -10 OFFCURVE",
"483 16 OFFCURVE",
"525 61 CURVE SMOOTH",
"583 121 OFFCURVE",
"601 216 OFFCURVE",
"601 324 CURVE SMOOTH",
"601 410 LINE SMOOTH",
"601 518 OFFCURVE",
"583 613 OFFCURVE",
"526 673 CURVE SMOOTH",
"483 718 OFFCURVE",
"420 744 OFFCURVE",
"332 744 CURVE SMOOTH",
"245 744 OFFCURVE",
"181 718 OFFCURVE",
"138 673 CURVE SMOOTH",
"81 613 OFFCURVE",
"63 518 OFFCURVE",
"63 410 CURVE SMOOTH",
"63 324 LINE SMOOTH",
"63 216 OFFCURVE",
"81 122 OFFCURVE",
"138 61 CURVE SMOOTH",
"181 16 OFFCURVE",
"245 -10 OFFCURVE",
"332 -10 CURVE SMOOTH"
);
},
{
closed = 1;
nodes = (
"254 9 OFFCURVE",
"194 32 OFFCURVE",
"153 75 CURVE SMOOTH",
"106 125 OFFCURVE",
"83 206 OFFCURVE",
"83 324 CURVE SMOOTH",
"83 410 LINE SMOOTH",
"83 528 OFFCURVE",
"106 609 OFFCURVE",
"154 659 CURVE SMOOTH",
"194 702 OFFCURVE",
"254 725 OFFCURVE",
"332 725 CURVE SMOOTH",
"411 725 OFFCURVE",
"469 703 OFFCURVE",
"511 659 CURVE SMOOTH",
"558 609 OFFCURVE",
"581 528 OFFCURVE",
"581 410 CURVE SMOOTH",
"581 324 LINE SMOOTH",
"581 206 OFFCURVE",
"558 125 OFFCURVE",
"510 75 CURVE SMOOTH",
"469 31 OFFCURVE",
"411 9 OFFCURVE",
"332 9 CURVE SMOOTH"
);
},
{
closed = 1;
nodes = (
"1006 0 LINE",
"1006 20 LINE",
"601 20 LINE",
"601 370 LINE",
"956 370 LINE",
"956 389 LINE",
"601 389 LINE",
"601 714 LINE",
"1006 714 LINE",
"1006 734 LINE",
"581 734 LINE",
"581 0 LINE"
);
}
);
width = 1065;
},
{
hints = (
{
horizontal = 1;
origin = "{2, 11}";
target = "{2, 2}";
type = Stem;
},
{
horizontal = 1;
origin = "{2, 3}";
target = "{2, 6}";
type = Stem;
},
{
horizontal = 1;
origin = "{2, 10}";
target = "{2, 7}";
type = Stem;
},
{
horizontal = 1;
origin = "{0, 25}";
target = up;
type = BottomGhost;
},
{
horizontal = 1;
origin = "{0, 12}";
target = down;
type = TopGhost;
},
{
horizontal = 1;
origin = "{2, 11}";
target = "{1, 25}";
type = Stem;
},
{
horizontal = 1;
origin = "{2, 10}";
target = "{1, 12}";
type = Stem;
},
{
place = "{35, 199}";
type = Stem;
},
{
place = "{477, 200}";
type = Stem;
}
);
layerId = "CDA8F3AC-A9A8-4005-B9E6-B6E3BABC1C09";
paths = (
{
closed = 1;
nodes = (
"458 -10 OFFCURVE",
"536 19 OFFCURVE",
"589 71 CURVE SMOOTH",
"648 130 OFFCURVE",
"675 221 OFFCURVE",
"675 333 CURVE SMOOTH",
"675 401 LINE SMOOTH",
"675 513 OFFCURVE",
"647 604 OFFCURVE",
"589 663 CURVE SMOOTH",
"536 715 OFFCURVE",
"458 744 OFFCURVE",
"355 744 CURVE SMOOTH",
"252 744 OFFCURVE",
"173 715 OFFCURVE",
"121 663 CURVE SMOOTH",
"63 604 OFFCURVE",
"35 513 OFFCURVE",
"35 401 CURVE SMOOTH",
"35 333 LINE SMOOTH",
"35 221 OFFCURVE",
"62 130 OFFCURVE",
"121 71 CURVE SMOOTH",
"174 19 OFFCURVE",
"252 -10 OFFCURVE",
"355 -10 CURVE SMOOTH"
);
},
{
closed = 1;
nodes = (
"319 155 OFFCURVE",
"288 165 OFFCURVE",
"267 191 CURVE SMOOTH",
"246 217 OFFCURVE",
"234 260 OFFCURVE",
"234 326 CURVE SMOOTH",
"234 408 LINE SMOOTH",
"234 474 OFFCURVE",
"246 517 OFFCURVE",
"267 543 CURVE SMOOTH",
"288 569 OFFCURVE",
"319 579 OFFCURVE",
"355 579 CURVE SMOOTH",
"392 579 OFFCURVE",
"423 569 OFFCURVE",
"444 543 CURVE SMOOTH",
"465 517 OFFCURVE",
"477 474 OFFCURVE",
"477 408 CURVE SMOOTH",
"477 326 LINE SMOOTH",
"477 260 OFFCURVE",
"465 217 OFFCURVE",
"445 191 CURVE SMOOTH",
"423 165 OFFCURVE",
"392 155 OFFCURVE",
"355 155 CURVE SMOOTH"
);
},
{
closed = 1;
nodes = (
"955 0 LINE",
"955 171 LINE",
"677 171 LINE",
"677 298 LINE",
"915 298 LINE",
"915 453 LINE",
"677 453 LINE",
"677 563 LINE",
"955 563 LINE",
"955 734 LINE",
"477 734 LINE",
"477 0 LINE"
);
}
);
width = 995;
}
);
leftMetricsKey = O;
rightMetricsKey = E;
unicode = 0152;
},
{
color = 10;
glyphname = P;
lastChange = "2019-06-11 21:17:13 +0000";
layers = (
{
hints = (
{
horizontal = 1;
origin = "{0, 18}";
target = up;
type = BottomGhost;
},
{
horizontal = 1;
origin = "{0, 9}";
target = "{0, 8}";
type = Stem;
},
{
horizontal = 1;
origin = "{0, 17}";
target = "{0, 0}";
type = Stem;
},
{
place = "{96, 20}";
type = Stem;
},
{
place = "{541, 20}";
type = Stem;
}
);
layerId = "444456EC-4579-471A-B2C3-7F5DF9BBCA9A";
paths = (
{
closed = 1;
nodes = (
"116 714 LINE",
"344 714 LINE SMOOTH",
"453 714 OFFCURVE",
"541 673 OFFCURVE",
"541 527 CURVE SMOOTH",
"541 381 OFFCURVE",
"453 340 OFFCURVE",
"344 340 CURVE SMOOTH",
"111 340 LINE",
"111 320 LINE",
"345 320 LINE SMOOTH",
"488 320 OFFCURVE",
"562 389 OFFCURVE",
"562 527 CURVE SMOOTH",
"562 665 OFFCURVE",
"487 734 OFFCURVE",
"345 734 CURVE SMOOTH",
"96 734 LINE",
"96 0 LINE",
"116 0 LINE"
);
}
);
width = 610;
},
{
hints = (
{
horizontal = 1;
origin = "{0, 18}";
target = up;
type = BottomGhost;
},
{
horizontal = 1;
origin = "{0, 9}";
target = "{0, 8}";
type = Stem;
},
{
horizontal = 1;
origin = "{0, 17}";
target = "{0, 0}";
type = Stem;
},
{
place = "{49, 200}";
type = Stem;
},
{
place = "{411, 197}";
type = Stem;
}
);
layerId = "CDA8F3AC-A9A8-4005-B9E6-B6E3BABC1C09";
paths = (
{
closed = 1;
nodes = (
"249 564 LINE",
"319 564 LINE SMOOTH",
"370 564 OFFCURVE",
"411 551 OFFCURVE",
"411 475 CURVE SMOOTH",
"411 396 OFFCURVE",
"371 386 OFFCURVE",
"319 386 CURVE SMOOTH",
"219 386 LINE",
"219 228 LINE",
"363 228 LINE SMOOTH",
"511 228 OFFCURVE",
"608 299 OFFCURVE",
"608 475 CURVE SMOOTH",
"608 662 OFFCURVE",
"504 734 OFFCURVE",
"363 734 CURVE SMOOTH",
"49 734 LINE",
"49 0 LINE",
"249 0 LINE"
);
}
);
width = 632;
}
);
leftMetricsKey = H;
unicode = 0050;
},
{
color = 10;
glyphname = Thorn;
lastChange = "2019-06-11 21:26:08 +0000";
layers = (
{
hints = (
{
horizontal = 1;
origin = "{0, 1}";
target = up;
type = BottomGhost;
},
{
horizontal = 1;
origin = "{1, 13}";
target = "{1, 12}";
type = Stem;
},
{
horizontal = 1;
origin = "{1, 4}";
target = "{1, 3}";
type = Stem;
},
{
horizontal = 1;
origin = "{0, 0}";
target = down;
type = TopGhost;
},
{
place = "{96, 20}";
type = Stem;
},
{
place = "{542, 21}";
type = Stem;
}
);
layerId = "444456EC-4579-471A-B2C3-7F5DF9BBCA9A";
paths = (
{
closed = 1;
nodes = (
"96 734 LINE",
"96 0 LINE",
"116 0 LINE",
"116 734 LINE"
);
},
{
closed = 1;
nodes = (
"563 505 OFFCURVE",
"488 574 OFFCURVE",
"346 574 CURVE SMOOTH",
"111 574 LINE",
"111 554 LINE",
"345 554 LINE SMOOTH",
"454 554 OFFCURVE",
"542 513 OFFCURVE",
"542 367 CURVE SMOOTH",
"542 221 OFFCURVE",
"454 180 OFFCURVE",
"345 180 CURVE SMOOTH",
"111 180 LINE",
"111 160 LINE",
"346 160 LINE SMOOTH",
"488 160 OFFCURVE",
"563 229 OFFCURVE",
"563 367 CURVE SMOOTH"
);
}
);
width = 611;
},
{
hints = (
{
horizontal = 1;
origin = "{0, 1}";
target = up;
type = BottomGhost;
},
{
horizontal = 1;
origin = "{1, 13}";
target = "{1, 12}";
type = Stem;
},
{
horizontal = 1;
origin = "{1, 4}";
target = "{1, 3}";
type = Stem;
},
{
horizontal = 1;
origin = "{0, 0}";
target = down;
type = TopGhost;
},
{
place = "{49, 200}";
type = Stem;
},
{
place = "{411, 201}";
type = Stem;
}
);
layerId = "CDA8F3AC-A9A8-4005-B9E6-B6E3BABC1C09";
paths = (
{
closed = 1;
nodes = (
"49 734 LINE",
"49 0 LINE",
"249 0 LINE",
"249 734 LINE"
);
},
{
closed = 1;
nodes = (
"612 543 OFFCURVE",
"515 614 OFFCURVE",
"367 614 CURVE SMOOTH",
"219 614 LINE",
"219 456 LINE",
"319 456 LINE SMOOTH",
"371 456 OFFCURVE",
"411 446 OFFCURVE",
"411 367 CURVE SMOOTH",
"411 288 OFFCURVE",
"371 278 OFFCURVE",
"319 278 CURVE SMOOTH",
"219 278 LINE",
"219 120 LINE",
"367 120 LINE SMOOTH",
"515 120 OFFCURVE",
"612 191 OFFCURVE",
"612 367 CURVE SMOOTH"
);
}
);
width = 636;
}
);
leftMetricsKey = H;
rightMetricsKey = P;
unicode = 00DE;
},
{
color = 10;
glyphname = Q;
lastChange = "2019-06-11 21:19:39 +0000";
layers = (
{
hints = (
{
horizontal = 1;
origin = "{1, 12}";
target = down;
type = TopGhost;
},
{
horizontal = 1;
origin = "{1, 25}";
target = up;
type = BottomGhost;
},
{
horizontal = 1;
origin = "{1, 25}";
target = "{2, 25}";
type = Stem;
},
{
horizontal = 1;
origin = "{1, 12}";
target = "{2, 12}";
type = Stem;
},
{
place = "{63, 20}";
type = Stem;
},
{
place = "{581, 20}";
type = Stem;
}
);
layerId = "444456EC-4579-471A-B2C3-7F5DF9BBCA9A";
paths = (
{
closed = 1;
nodes = (
"503 58 LINE",
"491 46 LINE",
"638 -77 LINE",
"638 -53 LINE"
);
},
{
closed = 1;
nodes = (
"420 -10 OFFCURVE",
"483 16 OFFCURVE",
"525 61 CURVE SMOOTH",
"583 121 OFFCURVE",
"601 216 OFFCURVE",
"601 324 CURVE SMOOTH",
"601 410 LINE SMOOTH",
"601 518 OFFCURVE",
"583 613 OFFCURVE",
"526 673 CURVE SMOOTH",
"483 718 OFFCURVE",
"420 744 OFFCURVE",
"332 744 CURVE SMOOTH",
"245 744 OFFCURVE",
"181 718 OFFCURVE",
"138 673 CURVE SMOOTH",
"81 613 OFFCURVE",
"63 518 OFFCURVE",
"63 410 CURVE SMOOTH",
"63 324 LINE SMOOTH",
"63 216 OFFCURVE",
"81 122 OFFCURVE",
"138 61 CURVE SMOOTH",
"181 16 OFFCURVE",
"245 -10 OFFCURVE",
"332 -10 CURVE SMOOTH"
);
},
{
closed = 1;
nodes = (
"254 9 OFFCURVE",
"194 32 OFFCURVE",
"153 75 CURVE SMOOTH",
"106 125 OFFCURVE",
"83 206 OFFCURVE",
"83 324 CURVE SMOOTH",
"83 410 LINE SMOOTH",
"83 528 OFFCURVE",
"106 609 OFFCURVE",
"154 659 CURVE SMOOTH",
"194 702 OFFCURVE",
"254 725 OFFCURVE",
"332 725 CURVE SMOOTH",
"411 725 OFFCURVE",
"469 703 OFFCURVE",
"511 659 CURVE SMOOTH",
"558 609 OFFCURVE",
"581 528 OFFCURVE",
"581 410 CURVE SMOOTH",
"581 324 LINE SMOOTH",
"581 206 OFFCURVE",
"558 125 OFFCURVE",
"510 75 CURVE SMOOTH",
"469 31 OFFCURVE",
"411 9 OFFCURVE",
"332 9 CURVE SMOOTH"
);
}
);
width = 664;
},
{
hints = (
{
horizontal = 1;
origin = "{1, 12}";
target = down;
type = TopGhost;
},
{
horizontal = 1;
origin = "{1, 25}";
target = up;
type = BottomGhost;
},
{
horizontal = 1;
origin = "{1, 25}";
target = "{2, 25}";
type = Stem;
},
{
horizontal = 1;
origin = "{1, 12}";
target = "{2, 12}";
type = Stem;
},
{
place = "{35, 199}";
type = Stem;
},
{
place = "{477, 199}";
type = Stem;
}
);
layerId = "CDA8F3AC-A9A8-4005-B9E6-B6E3BABC1C09";
paths = (
{
closed = 1;
nodes = (
"505 121 LINE",
"418 24 LINE",
"708 -118 LINE",
"708 63 LINE"
);
},
{
closed = 1;
nodes = (
"458 -10 OFFCURVE",
"536 19 OFFCURVE",
"589 71 CURVE SMOOTH",
"648 130 OFFCURVE",
"675 221 OFFCURVE",
"675 333 CURVE SMOOTH",
"675 401 LINE SMOOTH",
"675 513 OFFCURVE",
"647 604 OFFCURVE",
"589 663 CURVE SMOOTH",
"536 715 OFFCURVE",
"458 744 OFFCURVE",
"355 744 CURVE SMOOTH",
"252 744 OFFCURVE",
"173 715 OFFCURVE",
"121 663 CURVE SMOOTH",
"63 604 OFFCURVE",
"35 513 OFFCURVE",
"35 401 CURVE SMOOTH",
"35 333 LINE SMOOTH",
"35 221 OFFCURVE",
"62 130 OFFCURVE",
"121 71 CURVE SMOOTH",
"174 19 OFFCURVE",
"252 -10 OFFCURVE",
"355 -10 CURVE SMOOTH"
);
},
{
closed = 1;
nodes = (
"319 155 OFFCURVE",
"288 165 OFFCURVE",
"267 191 CURVE SMOOTH",
"246 217 OFFCURVE",
"234 260 OFFCURVE",
"234 326 CURVE SMOOTH",
"234 408 LINE SMOOTH",
"234 474 OFFCURVE",
"246 517 OFFCURVE",
"267 543 CURVE SMOOTH",
"288 569 OFFCURVE",
"319 579 OFFCURVE",
"355 579 CURVE SMOOTH",
"392 579 OFFCURVE",
"423 569 OFFCURVE",
"444 543 CURVE SMOOTH",
"465 517 OFFCURVE",
"477 474 OFFCURVE",
"477 408 CURVE SMOOTH",
"477 326 LINE SMOOTH",
"477 260 OFFCURVE",
"465 217 OFFCURVE",
"445 191 CURVE SMOOTH",
"423 165 OFFCURVE",
"392 155 OFFCURVE",
"355 155 CURVE SMOOTH"
);
}
);
width = 711;
}
);
leftMetricsKey = O;
unicode = 0051;
},
{
color = 10;
glyphname = R;
lastChange = "2019-06-11 21:20:00 +0000";
layers = (
{
anchors = (
{
name = bottom;
position = "{312, 0}";
},
{
name = top;
position = "{279, 734}";
}
);
hints = (
{
horizontal = 1;
origin = "{0, 23}";
target = up;
type = BottomGhost;
},
{
horizontal = 1;
origin = "{0, 10}";
target = "{0, 9}";
type = Stem;
},
{
horizontal = 1;
origin = "{0, 22}";
target = "{0, 1}";
type = Stem;
},
{
place = "{96, 20}";
type = Stem;
},
{
place = "{524, 20}";
type = Stem;
}
);
layerId = "444456EC-4579-471A-B2C3-7F5DF9BBCA9A";
paths = (
{
closed = 1;
nodes = (
"116 0 LINE",
"116 714 LINE",
"327 714 LINE SMOOTH",
"436 714 OFFCURVE",
"524 676 OFFCURVE",
"524 537 CURVE SMOOTH",
"524 399 OFFCURVE",
"436 360 OFFCURVE",
"332 360 CURVE SMOOTH",
"111 360 LINE",
"111 341 LINE",
"326 341 LINE",
"549 0 LINE",
"573 0 LINE",
"344 349 LINE",
"337 341 LINE",
"468 342 OFFCURVE",
"544 409 OFFCURVE",
"544 538 CURVE SMOOTH",
"544 668 OFFCURVE",
"470 734 OFFCURVE",
"329 734 CURVE SMOOTH",
"96 734 LINE",
"96 0 LINE"
);
}
);
width = 623;
},
{
anchors = (
{
name = bottom;
position = "{331, 0}";
},
{
name = top;
position = "{304, 734}";
}
);
hints = (
{
horizontal = 1;
origin = "{0, 23}";
target = up;
type = BottomGhost;
},
{
horizontal = 1;
origin = "{0, 10}";
target = "{0, 9}";
type = Stem;
},
{
horizontal = 1;
origin = "{0, 22}";
target = "{0, 1}";
type = Stem;
},
{
place = "{49, 200}";
type = Stem;
},
{
place = "{397, 197}";
type = Stem;
}
);
layerId = "CDA8F3AC-A9A8-4005-B9E6-B6E3BABC1C09";
paths = (
{
closed = 1;
nodes = (
"249 0 LINE",
"249 562 LINE",
"307 562 LINE SMOOTH",
"357 562 OFFCURVE",
"397 551 OFFCURVE",
"397 489 CURVE SMOOTH",
"397 429 OFFCURVE",
"360 411 OFFCURVE",
"307 411 CURVE SMOOTH",
"219 411 LINE",
"219 256 LINE",
"272 256 LINE",
"400 0 LINE",
"623 0 LINE",
"450 294 LINE",
"336 262 LINE",
"490 262 OFFCURVE",
"594 341 OFFCURVE",
"594 495 CURVE SMOOTH",
"594 663 OFFCURVE",
"479 734 OFFCURVE",
"339 734 CURVE SMOOTH",
"49 734 LINE",
"49 0 LINE"
);
}
);
width = 647;
}
);
leftMetricsKey = H;
unicode = 0052;
},
{
color = 10;
glyphname = S;
lastChange = "2019-06-11 21:20:52 +0000";
layers = (
{
anchors = (
{
name = bottom;
position = "{311, 0}";
},
{
name = top;
position = "{311, 734}";
}
);
hints = (
{
horizontal = 1;
origin = "{0, 37}";
target = "{0, 30}";
type = Stem;
},
{
horizontal = 1;
origin = "{0, 18}";
target = "{0, 11}";
type = Stem;
},
{
place = "{85, 20}";
type = Stem;
},
{
place = "{534, 20}";
type = Stem;
}
);
layerId = "444456EC-4579-471A-B2C3-7F5DF9BBCA9A";
paths = (
{
closed = 1;
nodes = (
"449 -10 OFFCURVE",
"554 57 OFFCURVE",
"554 191 CURVE SMOOTH",
"554 343 OFFCURVE",
"419 375 OFFCURVE",
"314 402 CURVE SMOOTH",
"209 430 OFFCURVE",
"105 457 OFFCURVE",
"105 568 CURVE SMOOTH",
"105 669 OFFCURVE",
"202 724 OFFCURVE",
"304 724 CURVE SMOOTH",
"394 724 OFFCURVE",
"469 684 OFFCURVE",
"501 604 CURVE",
"520 613 LINE",
"485 696 OFFCURVE",
"406 744 OFFCURVE",
"304 744 CURVE SMOOTH",
"176 744 OFFCURVE",
"85 671 OFFCURVE",
"85 568 CURVE SMOOTH",
"85 444 OFFCURVE",
"199 412 OFFCURVE",
"305 385 CURVE SMOOTH",
"409 358 OFFCURVE",
"534 329 OFFCURVE",
"534 190 CURVE SMOOTH",
"534 78 OFFCURVE",
"449 10 OFFCURVE",
"308 10 CURVE SMOOTH",
"182 10 OFFCURVE",
"103 66 OFFCURVE",
"79 172 CURVE",
"59 167 LINE",
"87 47 OFFCURVE",
"176 -10 OFFCURVE",
"307 -10 CURVE SMOOTH"
);
}
);
width = 622;
},
{
anchors = (
{
name = bottom;
position = "{315, 0}";
},
{
name = top;
position = "{315, 734}";
}
);
hints = (
{
horizontal = 1;
origin = "{0, 37}";
target = "{0, 30}";
type = Stem;
},
{
horizontal = 1;
origin = "{0, 18}";
target = "{0, 11}";
type = Stem;
},
{
place = "{42, 194}";
type = Stem;
},
{
place = "{390, 208}";
type = Stem;
}
);
layerId = "CDA8F3AC-A9A8-4005-B9E6-B6E3BABC1C09";
paths = (
{
closed = 1;
nodes = (
"488 -10 OFFCURVE",
"598 89 OFFCURVE",
"598 221 CURVE SMOOTH",
"598 356 OFFCURVE",
"482 404 OFFCURVE",
"384 443 CURVE SMOOTH",
"303 476 OFFCURVE",
"236 493 OFFCURVE",
"236 535 CURVE SMOOTH",
"236 563 OFFCURVE",
"262 586 OFFCURVE",
"311 586 CURVE SMOOTH",
"367 586 OFFCURVE",
"401 558 OFFCURVE",
"422 502 CURVE",
"581 585 LINE",
"526 689 OFFCURVE",
"439 744 OFFCURVE",
"309 744 CURVE SMOOTH",
"148 744 OFFCURVE",
"42 657 OFFCURVE",
"42 525 CURVE SMOOTH",
"42 400 OFFCURVE",
"133 355 OFFCURVE",
"220 321 CURVE SMOOTH",
"311 286 OFFCURVE",
"390 271 OFFCURVE",
"390 211 CURVE SMOOTH",
"390 176 OFFCURVE",
"367 150 OFFCURVE",
"317 150 CURVE SMOOTH",
"243 150 OFFCURVE",
"210 204 OFFCURVE",
"199 259 CURVE",
"25 208 LINE",
"52 75 OFFCURVE",
"147 -10 OFFCURVE",
"313 -10 CURVE SMOOTH"
);
}
);
width = 629;
}
);
unicode = 0053;
},
{
color = 10;
glyphname = T;
lastChange = "2019-06-11 21:20:52 +0000";
layers = (
{
anchors = (
{
name = bottom;
position = "{281, 0}";
},
{
name = center;
position = "{281, 367}";
},
{
name = top;
position = "{281, 734}";
}
);
hints = (
{
horizontal = 1;
origin = "{0, 3}";
target = up;
type = BottomGhost;
},
{
horizontal = 1;
origin = "{1, 2}";
target = "{1, 3}";
type = Stem;
},
{
place = "{271, 20}";
type = Stem;
}
);
layerId = "444456EC-4579-471A-B2C3-7F5DF9BBCA9A";
paths = (
{
closed = 1;
nodes = (
"291 0 LINE",
"291 728 LINE",
"271 728 LINE",
"271 0 LINE"
);
},
{
closed = 1;
nodes = (
"531 714 LINE",
"531 734 LINE",
"30 734 LINE",
"30 714 LINE"
);
}
);
width = 561;
},
{
anchors = (
{
name = bottom;
position = "{279, 0}";
},
{
name = center;
position = "{279, 367}";
},
{
name = top;
position = "{279, 734}";
}
);
hints = (
{
horizontal = 1;
origin = "{0, 3}";
target = up;
type = BottomGhost;
},
{
horizontal = 1;
origin = "{1, 2}";
target = "{1, 3}";
type = Stem;
},
{
place = "{178, 201}";
type = Stem;
}
);
layerId = "CDA8F3AC-A9A8-4005-B9E6-B6E3BABC1C09";
paths = (
{
closed = 1;
nodes = (
"379 0 LINE",
"379 734 LINE",
"178 734 LINE",
"178 0 LINE"
);
},
{
closed = 1;
nodes = (
"543 561 LINE",
"543 734 LINE",
"14 734 LINE",
"14 561 LINE"
);
}
);
width = 557;
}
);
unicode = 0054;
},
{
color = 10;
glyphname = U;
lastChange = "2019-06-11 21:20:52 +0000";
layers = (
{
anchors = (
{
name = bottom;
position = "{338, 0}";
},
{
name = ogonek;
position = "{432, 6}";
},
{
name = top;
position = "{338, 734}";
},
{
name = topright;
position = "{644, 734}";
}
);
hints = (
{
horizontal = 1;
origin = "{0, 29}";
target = up;
type = BottomGhost;
},
{
horizontal = 1;
origin = "{0, 22}";
target = down;
type = TopGhost;
},
{
horizontal = 1;
origin = "{0, 29}";
target = "{0, 14}";
type = Stem;
},
{
place = "{96, 20}";
type = Stem;
},
{
place = "{561, 20}";
type = Stem;
}
);
layerId = "444456EC-4579-471A-B2C3-7F5DF9BBCA9A";
paths = (
{
closed = 1;
nodes = (
"418 -10 OFFCURVE",
"475 16 OFFCURVE",
"512 61 CURVE SMOOTH",
"564 121 OFFCURVE",
"581 216 OFFCURVE",
"581 324 CURVE SMOOTH",
"581 734 LINE",
"561 734 LINE",
"561 324 LINE SMOOTH",
"561 206 OFFCURVE",
"539 125 OFFCURVE",
"497 75 CURVE SMOOTH",
"461 31 OFFCURVE",
"409 9 OFFCURVE",
"338 9 CURVE SMOOTH",
"269 9 OFFCURVE",
"215 32 OFFCURVE",
"179 75 CURVE SMOOTH",
"137 125 OFFCURVE",
"116 206 OFFCURVE",
"116 324 CURVE SMOOTH",
"116 734 LINE",
"96 734 LINE",
"96 324 LINE SMOOTH",
"96 216 OFFCURVE",
"113 122 OFFCURVE",
"164 61 CURVE SMOOTH",
"202 16 OFFCURVE",
"260 -10 OFFCURVE",
"338 -10 CURVE SMOOTH"
);
}
);
width = 677;
},
{
anchors = (
{
name = bottom;
position = "{341, 0}";
},
{
name = ogonek;
position = "{483, 20}";
},
{
name = top;
position = "{341, 734}";
},
{
name = topright;
position = "{660, 734}";
}
);
hints = (
{
horizontal = 1;
origin = "{0, 29}";
target = up;
type = BottomGhost;
},
{
horizontal = 1;
origin = "{0, 22}";
target = down;
type = TopGhost;
},
{
horizontal = 1;
origin = "{0, 29}";
target = "{0, 14}";
type = Stem;
},
{
place = "{49, 199}";
type = Stem;
},
{
place = "{435, 199}";
type = Stem;
}
);
layerId = "CDA8F3AC-A9A8-4005-B9E6-B6E3BABC1C09";
paths = (
{
closed = 1;
nodes = (
"435 -10 OFFCURVE",
"507 19 OFFCURVE",
"555 71 CURVE SMOOTH",
"609 130 OFFCURVE",
"634 221 OFFCURVE",
"634 326 CURVE SMOOTH",
"634 734 LINE",
"435 734 LINE",
"435 312 LINE SMOOTH",
"435 257 OFFCURVE",
"429 216 OFFCURVE",
"413 190 CURVE SMOOTH",
"399 167 OFFCURVE",
"375 155 OFFCURVE",
"341 155 CURVE SMOOTH",
"307 155 OFFCURVE",
"284 167 OFFCURVE",
"270 190 CURVE SMOOTH",
"254 216 OFFCURVE",
"248 255 OFFCURVE",
"248 312 CURVE SMOOTH",
"248 734 LINE",
"49 734 LINE",
"49 326 LINE SMOOTH",
"49 221 OFFCURVE",
"71 130 OFFCURVE",
"127 71 CURVE SMOOTH",
"176 19 OFFCURVE",
"247 -10 OFFCURVE",
"341 -10 CURVE SMOOTH"
);
}
);
width = 683;
}
);
leftMetricsKey = H;
rightMetricsKey = H;
unicode = 0055;
},
{
color = 10;
glyphname = V;
lastChange = "2019-06-11 21:20:52 +0000";
layers = (
{
hints = (
{
horizontal = 1;
origin = "{0, 9}";
target = up;
type = BottomGhost;
},
{
horizontal = 1;
origin = "{0, 8}";
target = down;
type = TopGhost;
}
);
layerId = "444456EC-4579-471A-B2C3-7F5DF9BBCA9A";
paths = (
{
closed = 1;
nodes = (
"311 0 LINE",
"572 734 LINE",
"549 734 LINE",
"362 203 LINE",
"298 19 LINE",
"303 19 LINE",
"239 203 LINE",
"52 734 LINE",
"29 734 LINE",
"290 0 LINE"
);
}
);
width = 601;
},
{
hints = (
{
horizontal = 1;
origin = "{0, 9}";
target = up;
type = BottomGhost;
},
{
horizontal = 1;
origin = "{0, 8}";
target = down;
type = TopGhost;
}
);
layerId = "CDA8F3AC-A9A8-4005-B9E6-B6E3BABC1C09";
paths = (
{
closed = 1;
nodes = (
"444 0 LINE",
"670 734 LINE",
"457 734 LINE",
"372 352 LINE",
"321 136 LINE",
"362 136 LINE",
"310 352 LINE",
"226 734 LINE",
"12 734 LINE",
"238 0 LINE"
);
}
);
width = 682;
}
);
unicode = 0056;
},
{
color = 10;
glyphname = W;
lastChange = "2019-06-11 21:26:10 +0000";
layers = (
{
anchors = (
{
name = bottom;
position = "{422, 0}";
},
{
name = top;
position = "{422, 734}";
}
);
hints = (
{
horizontal = 1;
origin = "{0, 21}";
target = up;
type = BottomGhost;
},
{
horizontal = 1;
origin = "{0, 20}";
target = down;
type = TopGhost;
}
);
layerId = "444456EC-4579-471A-B2C3-7F5DF9BBCA9A";
paths = (
{
closed = 1;
nodes = (
"241 0 LINE",
"380 532 LINE",
"424 709 LINE",
"420 709 LINE",
"464 532 LINE",
"603 0 LINE",
"624 0 LINE",
"814 734 LINE",
"792 734 LINE",
"655 201 LINE",
"611 28 LINE",
"615 28 LINE",
"571 201 LINE",
"433 734 LINE",
"411 734 LINE",
"273 201 LINE",
"229 28 LINE",
"233 28 LINE",
"189 201 LINE",
"52 734 LINE",
"29 734 LINE",
"220 0 LINE"
);
}
);
width = 843;
},
{
anchors = (
{
name = bottom;
position = "{485, 0}";
},
{
name = top;
position = "{485, 734}";
}
);
hints = (
{
horizontal = 1;
origin = "{0, 21}";
target = up;
type = BottomGhost;
},
{
horizontal = 1;
origin = "{0, 20}";
target = down;
type = TopGhost;
}
);
layerId = "CDA8F3AC-A9A8-4005-B9E6-B6E3BABC1C09";
paths = (
{
closed = 1;
nodes = (
"385 0 LINE",
"465 385 LINE",
"503 612 LINE",
"466 612 LINE",
"505 385 LINE",
"584 0 LINE",
"785 0 LINE",
"958 734 LINE",
"749 734 LINE",
"690 351 LINE",
"654 128 LINE",
"689 129 LINE",
"648 351 LINE",
"577 734 LINE",
"393 734 LINE",
"322 351 LINE",
"281 129 LINE",
"316 128 LINE",
"280 351 LINE",
"220 734 LINE",
"12 734 LINE",
"185 0 LINE"
);
}
);
width = 970;
}
);
leftMetricsKey = V;
rightMetricsKey = V;
unicode = 0057;
},
{
color = 10;
glyphname = X;
lastChange = "2019-06-11 21:20:52 +0000";
layers = (
{
hints = (
{
horizontal = 1;
origin = "{1, 7}";
target = up;
type = BottomGhost;
},
{
horizontal = 1;
origin = "{0, 4}";
target = down;
type = TopGhost;
},
{
place = "{0, 4}";
type = Stem;
}
);
layerId = "444456EC-4579-471A-B2C3-7F5DF9BBCA9A";
paths = (
{
closed = 1;
nodes = (
"530 0 LINE",
"285 383 LINE",
"280 391 LINE",
"63 734 LINE",
"40 734 LINE",
"272 371 LINE",
"276 364 LINE",
"506 0 LINE"
);
},
{
closed = 1;
nodes = (
"50 0 LINE",
"280 364 LINE",
"284 371 LINE",
"516 734 LINE",
"492 734 LINE",
"276 391 LINE",
"271 383 LINE",
"26 0 LINE"
);
}
);
width = 556;
},
{
hints = (
{
horizontal = 1;
origin = "{1, 7}";
target = up;
type = BottomGhost;
},
{
horizontal = 1;
origin = "{0, 4}";
target = down;
type = TopGhost;
},
{
place = "{1, 101}";
type = Stem;
}
);
layerId = "CDA8F3AC-A9A8-4005-B9E6-B6E3BABC1C09";
paths = (
{
closed = 1;
nodes = (
"670 0 LINE",
"427 391 LINE",
"365 450 LINE",
"257 734 LINE",
"20 734 LINE",
"256 355 LINE",
"317 294 LINE",
"433 0 LINE"
);
},
{
closed = 1;
nodes = (
"248 0 LINE",
"364 294 LINE",
"425 355 LINE",
"661 734 LINE",
"423 734 LINE",
"317 450 LINE",
"255 392 LINE",
"10 0 LINE"
);
}
);
width = 681;
}
);
unicode = 0058;
},
{
color = 10;
glyphname = Y;
lastChange = "2019-06-11 21:20:52 +0000";
layers = (
{
anchors = (
{
name = bottom;
position = "{306, 0}";
},
{
name = top;
position = "{306, 734}";
},
{
name = topleft;
position = "{32, 734}";
}
);
hints = (
{
horizontal = 1;
origin = "{0, 11}";
target = up;
type = BottomGhost;
},
{
horizontal = 1;
origin = "{0, 9}";
target = down;
type = TopGhost;
},
{
place = "{296, 20}";
type = Stem;
}
);
layerId = "444456EC-4579-471A-B2C3-7F5DF9BBCA9A";
paths = (
{
closed = 1;
nodes = (
"316 0 LINE",
"316 233 LINE",
"582 734 LINE",
"559 734 LINE",
"384 405 LINE",
"301 242 LINE",
"311 242 LINE",
"227 405 LINE",
"53 734 LINE",
"29 734 LINE",
"296 233 LINE",
"296 0 LINE"
);
}
);
width = 612;
},
{
anchors = (
{
name = bottom;
position = "{331, 0}";
},
{
name = top;
position = "{331, 734}";
},
{
name = topleft;
position = "{23, 734}";
}
);
hints = (
{
horizontal = 1;
origin = "{0, 11}";
target = up;
type = BottomGhost;
},
{
horizontal = 1;
origin = "{0, 9}";
target = down;
type = TopGhost;
},
{
place = "{231, 201}";
type = Stem;
}
);
layerId = "CDA8F3AC-A9A8-4005-B9E6-B6E3BABC1C09";
paths = (
{
closed = 1;
nodes = (
"432 0 LINE",
"432 217 LINE",
"651 734 LINE",
"437 734 LINE",
"366 503 LINE",
"305 263 LINE",
"358 263 LINE",
"296 503 LINE",
"225 734 LINE",
"12 734 LINE",
"231 219 LINE",
"231 0 LINE"
);
}
);
width = 663;
}
);
unicode = 0059;
},
{
color = 10;
glyphname = Z;
lastChange = "2019-06-11 21:20:52 +0000";
layers = (
{
anchors = (
{
name = bottom;
position = "{277, 0}";
},
{
name = top;
position = "{277, 734}";
}
);
hints = (
{
horizontal = 1;
origin = "{0, 11}";
target = "{0, 2}";
type = Stem;
},
{
horizontal = 1;
origin = "{0, 7}";
target = "{0, 6}";
type = Stem;
},
{
place = "{468, 17}";
type = Stem;
}
);
layerId = "444456EC-4579-471A-B2C3-7F5DF9BBCA9A";
paths = (
{
closed = 1;
nodes = (
"508 0 LINE",
"508 20 LINE",
"60 20 LINE",
"61 13 LINE",
"511 715 LINE",
"511 734 LINE",
"78 734 LINE",
"78 714 LINE",
"494 714 LINE",
"491 721 LINE",
"42 19 LINE",
"42 0 LINE"
);
}
);
width = 554;
},
{
anchors = (
{
name = bottom;
position = "{291, 0}";
},
{
name = top;
position = "{291, 734}";
}
);
hints = (
{
horizontal = 1;
origin = "{0, 11}";
target = "{0, 2}";
type = Stem;
},
{
horizontal = 1;
origin = "{0, 7}";
target = "{0, 6}";
type = Stem;
},
{
place = "{46, 482}";
type = Stem;
}
);
layerId = "CDA8F3AC-A9A8-4005-B9E6-B6E3BABC1C09";
paths = (
{
closed = 1;
nodes = (
"553 0 LINE",
"553 173 LINE",
"184 173 LINE",
"204 100 LINE",
"539 573 LINE",
"539 734 LINE",
"39 734 LINE",
"39 561 LINE",
"379 561 LINE",
"359 634 LINE",
"24 161 LINE",
"24 0 LINE"
);
}
);
width = 582;
}
);
unicode = 005A;
},
{
color = 10;
glyphname = a;
lastChange = "2019-06-11 21:28:24 +0000";
layers = (
{
anchors = (
{
name = bottom;
position = "{263, 0}";
},
{
name = ogonek;
position = "{442, 0}";
},
{
name = top;
position = "{263, 530}";
}
);
hints = (
{
horizontal = 1;
origin = "{0, 23}";
target = "{1, 6}";
type = Stem;
},
{
horizontal = 1;
origin = "{0, 5}";
target = "{0, 18}";
type = Stem;
},
{
horizontal = 1;
origin = "{1, 19}";
target = up;
type = BottomGhost;
},
{
place = "{54, 20}";
type = Stem;
},
{
place = "{408, 20}";
type = Stem;
}
);
layerId = "444456EC-4579-471A-B2C3-7F5DF9BBCA9A";
paths = (
{
closed = 1;
nodes = (
"442 0 LINE",
"428 118 LINE",
"428 399 LINE SMOOTH",
"428 496 OFFCURVE",
"349 540 OFFCURVE",
"259 540 CURVE SMOOTH",
"192 540 OFFCURVE",
"143 521 OFFCURVE",
"111 487 CURVE SMOOTH",
"86 461 OFFCURVE",
"71 427 OFFCURVE",
"62 387 CURVE",
"80 381 LINE",
"89 420 OFFCURVE",
"103 452 OFFCURVE",
"125 474 CURVE SMOOTH",
"155 506 OFFCURVE",
"200 522 OFFCURVE",
"258 522 CURVE SMOOTH",
"350 522 OFFCURVE",
"408 475 OFFCURVE",
"408 398 CURVE SMOOTH",
"408 117 LINE",
"423 -1 LINE"
);
},
{
closed = 1;
nodes = (
"292 -10 OFFCURVE",
"373 36 OFFCURVE",
"415 112 CURVE",
"411 132 LINE",
"368 56 OFFCURVE",
"297 8 OFFCURVE",
"206 8 CURVE SMOOTH",
"121 8 OFFCURVE",
"73 51 OFFCURVE",
"73 125 CURVE SMOOTH",
"73 277 OFFCURVE",
"277 274 OFFCURVE",
"415 294 CURVE",
"413 311 LINE",
"274 291 OFFCURVE",
"53 293 OFFCURVE",
"53 124 CURVE SMOOTH",
"53 31 OFFCURVE",
"118 -10 OFFCURVE",
"203 -10 CURVE SMOOTH"
);
}
);
width = 525;
},
{
anchors = (
{
name = bottom;
position = "{280, 0}";
},
{
name = ogonek;
position = "{521, 0}";
},
{
name = top;
position = "{280, 530}";
}
);
hints = (
{
horizontal = 1;
origin = "{0, 23}";
target = "{1, 6}";
type = Stem;
},
{
horizontal = 1;
origin = "{0, 5}";
target = "{0, 18}";
type = Stem;
},
{
horizontal = 1;
origin = "{1, 19}";
target = up;
type = BottomGhost;
},
{
place = "{30, 189}";
type = Stem;
},
{
place = "{320, 188}";
type = Stem;
}
);
layerId = "CDA8F3AC-A9A8-4005-B9E6-B6E3BABC1C09";
paths = (
{
closed = 1;
nodes = (
"521 0 LINE",
"508 127 LINE",
"508 364 LINE SMOOTH",
"508 503 OFFCURVE",
"389 540 OFFCURVE",
"283 540 CURVE SMOOTH",
"223 540 OFFCURVE",
"164 528 OFFCURVE",
"118 492 CURVE SMOOTH",
"84 464 OFFCURVE",
"57 425 OFFCURVE",
"48 365 CURVE",
"221 341 LINE",
"221 363 OFFCURVE",
"225 382 OFFCURVE",
"233 395 CURVE SMOOTH",
"241 406 OFFCURVE",
"252 415 OFFCURVE",
"272 415 CURVE SMOOTH",
"300 415 OFFCURVE",
"320 400 OFFCURVE",
"320 351 CURVE SMOOTH",
"320 126 LINE",
"344 -3 LINE"
);
},
{
closed = 1;
nodes = (
"257 -10 OFFCURVE",
"314 14 OFFCURVE",
"355 60 CURVE",
"330 153 LINE",
"315 126 OFFCURVE",
"288 110 OFFCURVE",
"264 110 CURVE SMOOTH",
"231 110 OFFCURVE",
"218 131 OFFCURVE",
"218 158 CURVE SMOOTH",
"218 221 OFFCURVE",
"282 228 OFFCURVE",
"323 236 CURVE",
"323 327 LINE",
"243 313 OFFCURVE",
"29 292 OFFCURVE",
"29 137 CURVE SMOOTH",
"29 44 OFFCURVE",
"96 -10 OFFCURVE",
"196 -10 CURVE SMOOTH"
);
}
);
width = 558;
}
);
unicode = 0061;
},
{
color = 10;
glyphname = ae;
lastChange = "2019-06-11 21:28:24 +0000";
layers = (
{
hints = (
{
horizontal = 1;
origin = "{1, 19}";
target = "{0, 15}";
type = Stem;
},
{
horizontal = 1;
origin = "{0, 35}";
target = "{0, 34}";
type = Stem;
},
{
horizontal = 1;
origin = "{2, 4}";
target = "{2, 14}";
type = Stem;
},
{
horizontal = 1;
origin = "{2, 4}";
target = "{2, 17}";
type = Stem;
},
{
horizontal = 1;
origin = "{1, 19}";
target = "{1, 6}";
type = Stem;
},
{
place = "{26, 10}";
type = Stem;
},
{
place = "{121, 20}";
type = Stem;
},
{
place = "{458, 2000}";
type = Stem;
}
);
layerId = "444456EC-4579-471A-B2C3-7F5DF9BBCA9A";
paths = (
{
closed = 1;
nodes = (
"682 -10 OFFCURVE",
"729 9 OFFCURVE",
"762 43 CURVE SMOOTH",
"778 59 OFFCURVE",
"790 79 OFFCURVE",
"799 102 CURVE",
"781 112 LINE",
"773 89 OFFCURVE",
"762 71 OFFCURVE",
"748 57 CURVE SMOOTH",
"716 25 OFFCURVE",
"673 9 OFFCURVE",
"614 9 CURVE SMOOTH",
"555 9 OFFCURVE",
"511 25 OFFCURVE",
"480 57 CURVE SMOOTH",
"445 94 OFFCURVE",
"428 155 OFFCURVE",
"428 238 CURVE SMOOTH",
"428 292 LINE",
"428 375 OFFCURVE",
"445 436 OFFCURVE",
"480 473 CURVE SMOOTH",
"511 505 OFFCURVE",
"555 521 OFFCURVE",
"614 521 CURVE SMOOTH",
"673 521 OFFCURVE",
"717 505 OFFCURVE",
"748 473 CURVE SMOOTH",
"783 436 OFFCURVE",
"800 375 OFFCURVE",
"800 292 CURVE",
"800 262 LINE",
"807 274 LINE",
"421 274 LINE",
"419 256 LINE",
"820 256 LINE",
"820 292 LINE SMOOTH",
"820 372 OFFCURVE",
"805 442 OFFCURVE",
"762 487 CURVE SMOOTH",
"729 521 OFFCURVE",
"681 540 OFFCURVE",
"614 540 CURVE SMOOTH",
"547 540 OFFCURVE",
"498 520 OFFCURVE",
"466 486 CURVE SMOOTH",
"423 440 OFFCURVE",
"408 372 OFFCURVE",
"408 292 CURVE SMOOTH",
"408 238 LINE SMOOTH",
"408 158 OFFCURVE",
"423 88 OFFCURVE",
"466 43 CURVE SMOOTH",
"499 9 OFFCURVE",
"547 -10 OFFCURVE",
"614 -10 CURVE SMOOTH"
);
},
{
closed = 1;
nodes = (
"292 -10 OFFCURVE",
"373 36 OFFCURVE",
"424 126 CURVE",
"420 147 LINE",
"368 56 OFFCURVE",
"297 8 OFFCURVE",
"206 8 CURVE SMOOTH",
"121 8 OFFCURVE",
"73 51 OFFCURVE",
"73 125 CURVE SMOOTH",
"73 277 OFFCURVE",
"277 274 OFFCURVE",
"415 256 CURVE",
"413 273 LINE",
"274 290 OFFCURVE",
"53 293 OFFCURVE",
"53 124 CURVE SMOOTH",
"53 31 OFFCURVE",
"118 -10 OFFCURVE",
"203 -10 CURVE SMOOTH"
);
},
{
closed = 1;
nodes = (
"428 291 LINE",
"428 399 LINE SMOOTH",
"428 495 OFFCURVE",
"349 540 OFFCURVE",
"259 540 CURVE SMOOTH",
"192 540 OFFCURVE",
"143 521 OFFCURVE",
"111 487 CURVE SMOOTH",
"86 461 OFFCURVE",
"71 427 OFFCURVE",
"62 387 CURVE",
"80 381 LINE",
"89 421 OFFCURVE",
"103 452 OFFCURVE",
"125 474 CURVE SMOOTH",
"155 506 OFFCURVE",
"200 522 OFFCURVE",
"258 522 CURVE SMOOTH",
"350 522 OFFCURVE",
"408 475 OFFCURVE",
"408 399 CURVE SMOOTH",
"408 291 LINE"
);
}
);
width = 869;
},
{
hints = (
{
horizontal = 1;
origin = "{1, 19}";
target = "{0, 15}";
type = Stem;
},
{
horizontal = 1;
origin = "{0, 35}";
target = "{0, 34}";
type = Stem;
},
{
horizontal = 1;
origin = "{2, 4}";
target = "{2, 14}";
type = Stem;
},
{
horizontal = 1;
origin = "{2, 4}";
target = "{2, 17}";
type = Stem;
},
{
horizontal = 1;
origin = "{1, 19}";
target = "{1, 6}";
type = Stem;
},
{
place = "{23, 42}";
type = Stem;
},
{
place = "{114, 188}";
type = Stem;
},
{
place = "{529, 2000}";
type = Stem;
}
);
layerId = "CDA8F3AC-A9A8-4005-B9E6-B6E3BABC1C09";
paths = (
{
closed = 1;
nodes = (
"660 -10 OFFCURVE",
"719 12 OFFCURVE",
"759 51 CURVE SMOOTH",
"778 69 OFFCURVE",
"793 91 OFFCURVE",
"804 119 CURVE",
"632 193 LINE",
"629 181 OFFCURVE",
"626 170 OFFCURVE",
"619 160 CURVE SMOOTH",
"608 145 OFFCURVE",
"590 141 OFFCURVE",
"573 141 CURVE SMOOTH",
"554 141 OFFCURVE",
"536 148 OFFCURVE",
"527 161 CURVE SMOOTH",
"514 179 OFFCURVE",
"512 215 OFFCURVE",
"512 245 CURVE SMOOTH",
"512 291 LINE",
"508 327 OFFCURVE",
"514 363 OFFCURVE",
"527 381 CURVE SMOOTH",
"536 394 OFFCURVE",
"549 402 OFFCURVE",
"568 402 CURVE SMOOTH",
"587 402 OFFCURVE",
"600 394 OFFCURVE",
"609 381 CURVE SMOOTH",
"622 363 OFFCURVE",
"629 327 OFFCURVE",
"625 285 CURVE",
"625 251 LINE",
"665 314 LINE",
"421 314 LINE",
"421 230 LINE",
"816 230 LINE",
"816 285 LINE SMOOTH",
"816 368 OFFCURVE",
"794 435 OFFCURVE",
"749 479 CURVE SMOOTH",
"709 519 OFFCURVE",
"648 540 OFFCURVE",
"568 540 CURVE SMOOTH",
"488 540 OFFCURVE",
"428 509 OFFCURVE",
"387 470 CURVE SMOOTH",
"342 426 OFFCURVE",
"320 368 OFFCURVE",
"320 285 CURVE SMOOTH",
"320 245 LINE SMOOTH",
"320 162 OFFCURVE",
"341 95 OFFCURVE",
"387 51 CURVE SMOOTH",
"425 13 OFFCURVE",
"484 -10 OFFCURVE",
"574 -10 CURVE SMOOTH"
);
},
{
closed = 1;
nodes = (
"257 -10 OFFCURVE",
"329 9 OFFCURVE",
"377 83 CURVE",
"352 177 LINE",
"317 122 OFFCURVE",
"288 110 OFFCURVE",
"264 110 CURVE SMOOTH",
"231 110 OFFCURVE",
"218 131 OFFCURVE",
"218 158 CURVE SMOOTH",
"218 221 OFFCURVE",
"282 226 OFFCURVE",
"323 222 CURVE",
"323 312 LINE",
"237 314 OFFCURVE",
"29 296 OFFCURVE",
"29 137 CURVE SMOOTH",
"29 44 OFFCURVE",
"96 -10 OFFCURVE",
"196 -10 CURVE SMOOTH"
);
},
{
closed = 1;
nodes = (
"508 265 LINE",
"508 364 LINE SMOOTH",
"508 489 OFFCURVE",
"398 540 OFFCURVE",
"283 540 CURVE SMOOTH",
"223 540 OFFCURVE",
"164 528 OFFCURVE",
"118 492 CURVE SMOOTH",
"84 464 OFFCURVE",
"57 425 OFFCURVE",
"48 365 CURVE",
"221 341 LINE",
"221 364 OFFCURVE",
"225 382 OFFCURVE",
"233 395 CURVE SMOOTH",
"241 407 OFFCURVE",
"252 415 OFFCURVE",
"272 415 CURVE SMOOTH",
"300 415 OFFCURVE",
"320 400 OFFCURVE",
"320 351 CURVE SMOOTH",
"320 264 LINE"
);
}
);
width = 850;
}
);
leftMetricsKey = a;
rightMetricsKey = e;
unicode = 00E6;
},
{
color = 10;
glyphname = b;
lastChange = "2019-06-11 21:28:24 +0000";
layers = (
{
hints = (
{
horizontal = 1;
origin = "{1, 8}";
target = up;
type = BottomGhost;
},
{
horizontal = 1;
origin = "{0, 12}";
target = down;
type = TopGhost;
},
{
horizontal = 1;
origin = "{1, 7}";
target = down;
type = TopGhost;
},
{
horizontal = 1;
origin = "{0, 39}";
target = up;
type = BottomGhost;
},
{
horizontal = 1;
origin = "{1, 8}";
target = "{0, 32}";
type = Stem;
},
{
place = "{462, 20}";
type = Stem;
},
{
place = "{-7, 2000}";
type = Stem;
}
);
layerId = "444456EC-4579-471A-B2C3-7F5DF9BBCA9A";
paths = (
{
closed = 1;
nodes = (
"363 -10 OFFCURVE",
"404 8 OFFCURVE",
"431 40 CURVE SMOOTH",
"468 81 OFFCURVE",
"484 145 OFFCURVE",
"484 229 CURVE SMOOTH",
"484 301 LINE SMOOTH",
"484 385 OFFCURVE",
"468 449 OFFCURVE",
"431 490 CURVE SMOOTH",
"404 522 OFFCURVE",
"363 540 OFFCURVE",
"310 540 CURVE SMOOTH",
"241 540 OFFCURVE",
"165 507 OFFCURVE",
"108 414 CURVE",
"114 398 LINE",
"163 478 OFFCURVE",
"230 520 OFFCURVE",
"306 520 CURVE SMOOTH",
"355 520 OFFCURVE",
"391 504 OFFCURVE",
"417 475 CURVE SMOOTH",
"450 437 OFFCURVE",
"464 377 OFFCURVE",
"464 300 CURVE SMOOTH",
"464 230 LINE SMOOTH",
"464 153 OFFCURVE",
"450 93 OFFCURVE",
"417 55 CURVE SMOOTH",
"391 26 OFFCURVE",
"355 10 OFFCURVE",
"306 10 CURVE SMOOTH",
"230 10 OFFCURVE",
"163 52 OFFCURVE",
"114 132 CURVE",
"108 116 LINE",
"165 23 OFFCURVE",
"241 -10 OFFCURVE",
"310 -10 CURVE SMOOTH"
);
},
{
closed = 1;
nodes = (
"116 0 LINE",
"116 110 LINE",
"117 115 LINE",
"117 411 LINE",
"116 421 LINE",
"117 530 LINE",
"117 734 LINE",
"97 734 LINE",
"97 0 LINE"
);
}
);
width = 533;
},
{
hints = (
{
horizontal = 1;
origin = "{1, 8}";
target = up;
type = BottomGhost;
},
{
horizontal = 1;
origin = "{0, 12}";
target = down;
type = TopGhost;
},
{
horizontal = 1;
origin = "{1, 7}";
target = down;
type = TopGhost;
},
{
horizontal = 1;
origin = "{0, 39}";
target = up;
type = BottomGhost;
},
{
horizontal = 1;
origin = "{1, 8}";
target = "{0, 32}";
type = Stem;
},
{
place = "{61, 294}";
type = Stem;
},
{
place = "{330, 2000}";
type = Stem;
}
);
layerId = "CDA8F3AC-A9A8-4005-B9E6-B6E3BABC1C09";
paths = (
{
closed = 1;
nodes = (
"416 -10 OFFCURVE",
"459 7 OFFCURVE",
"491 46 CURVE SMOOTH",
"525 87 OFFCURVE",
"541 149 OFFCURVE",
"541 228 CURVE SMOOTH",
"541 302 LINE SMOOTH",
"541 381 OFFCURVE",
"525 443 OFFCURVE",
"491 484 CURVE SMOOTH",
"459 523 OFFCURVE",
"416 540 OFFCURVE",
"365 540 CURVE SMOOTH",
"311 540 OFFCURVE",
"257 519 OFFCURVE",
"215 450 CURVE",
"217 299 LINE",
"238 343 OFFCURVE",
"268 375 OFFCURVE",
"302 375 CURVE SMOOTH",
"316 375 OFFCURVE",
"328 368 OFFCURVE",
"336 356 CURVE SMOOTH",
"347 338 OFFCURVE",
"350 313 OFFCURVE",
"350 286 CURVE SMOOTH",
"350 244 LINE SMOOTH",
"350 217 OFFCURVE",
"347 192 OFFCURVE",
"336 174 CURVE SMOOTH",
"328 162 OFFCURVE",
"316 155 OFFCURVE",
"302 155 CURVE SMOOTH",
"268 155 OFFCURVE",
"238 187 OFFCURVE",
"217 231 CURVE",
"215 80 LINE",
"257 11 OFFCURVE",
"311 -10 OFFCURVE",
"365 -10 CURVE SMOOTH"
);
},
{
closed = 1;
nodes = (
"221 0 LINE",
"230 98 LINE",
"239 103 LINE",
"239 418 LINE",
"230 434 LINE",
"239 530 LINE",
"239 734 LINE",
"51 734 LINE",
"51 0 LINE"
);
}
);
width = 575;
}
);
leftMetricsKey = h;
rightMetricsKey = o;
unicode = 0062;
},
{
color = 10;
glyphname = c;
lastChange = "2019-06-11 21:28:24 +0000";
layers = (
{
anchors = (
{
name = bottom;
position = "{247, 0}";
},
{
name = top;
position = "{253, 530}";
}
);
hints = (
{
horizontal = 1;
origin = "{0, 51}";
target = "{0, 15}";
type = Stem;
},
{
horizontal = 1;
origin = "{0, 38}";
target = "{0, 22}";
type = Stem;
},
{
place = "{83, 20}";
type = Stem;
}
);
layerId = "444456EC-4579-471A-B2C3-7F5DF9BBCA9A";
paths = (
{
closed = 1;
nodes = (
"322 -10 OFFCURVE",
"369 9 OFFCURVE",
"401 43 CURVE SMOOTH",
"417 59 OFFCURVE",
"431 82 OFFCURVE",
"440 111 CURVE",
"422 121 LINE",
"413 92 OFFCURVE",
"401 71 OFFCURVE",
"387 56 CURVE SMOOTH",
"356 25 OFFCURVE",
"314 9 OFFCURVE",
"255 9 CURVE SMOOTH",
"197 9 OFFCURVE",
"152 25 OFFCURVE",
"121 57 CURVE SMOOTH",
"86 94 OFFCURVE",
"69 155 OFFCURVE",
"69 238 CURVE SMOOTH",
"69 292 LINE SMOOTH",
"69 375 OFFCURVE",
"86 436 OFFCURVE",
"121 473 CURVE SMOOTH",
"152 505 OFFCURVE",
"197 521 OFFCURVE",
"255 521 CURVE SMOOTH",
"314 521 OFFCURVE",
"356 505 OFFCURVE",
"387 474 CURVE SMOOTH",
"401 459 OFFCURVE",
"413 438 OFFCURVE",
"422 409 CURVE",
"440 419 LINE",
"431 448 OFFCURVE",
"417 471 OFFCURVE",
"401 487 CURVE SMOOTH",
"369 521 OFFCURVE",
"322 540 OFFCURVE",
"255 540 CURVE SMOOTH",
"188 540 OFFCURVE",
"139 521 OFFCURVE",
"107 487 CURVE SMOOTH",
"64 442 OFFCURVE",
"49 372 OFFCURVE",
"49 292 CURVE SMOOTH",
"49 238 LINE SMOOTH",
"49 158 OFFCURVE",
"64 88 OFFCURVE",
"107 43 CURVE SMOOTH",
"139 9 OFFCURVE",
"188 -10 OFFCURVE",
"255 -10 CURVE SMOOTH"
);
}
);
width = 495;
},
{
anchors = (
{
name = bottom;
position = "{265, 0}";
},
{
name = top;
position = "{278, 530}";
}
);
hints = (
{
horizontal = 1;
origin = "{0, 51}";
target = "{0, 15}";
type = Stem;
},
{
horizontal = 1;
origin = "{0, 38}";
target = "{0, 22}";
type = Stem;
},
{
place = "{36, 192}";
type = Stem;
}
);
layerId = "CDA8F3AC-A9A8-4005-B9E6-B6E3BABC1C09";
paths = (
{
closed = 1;
nodes = (
"362 -10 OFFCURVE",
"422 11 OFFCURVE",
"462 51 CURVE SMOOTH",
"481 69 OFFCURVE",
"496 93 OFFCURVE",
"507 127 CURVE",
"334 200 LINE",
"331 181 OFFCURVE",
"328 169 OFFCURVE",
"321 160 CURVE SMOOTH",
"312 148 OFFCURVE",
"300 141 OFFCURVE",
"281 141 CURVE SMOOTH",
"262 141 OFFCURVE",
"250 148 OFFCURVE",
"241 161 CURVE SMOOTH",
"228 179 OFFCURVE",
"226 208 OFFCURVE",
"226 245 CURVE SMOOTH",
"226 285 LINE SMOOTH",
"226 322 OFFCURVE",
"228 351 OFFCURVE",
"241 369 CURVE SMOOTH",
"250 382 OFFCURVE",
"262 389 OFFCURVE",
"281 389 CURVE SMOOTH",
"300 389 OFFCURVE",
"312 382 OFFCURVE",
"321 370 CURVE SMOOTH",
"328 361 OFFCURVE",
"331 349 OFFCURVE",
"334 330 CURVE",
"507 403 LINE",
"496 437 OFFCURVE",
"481 461 OFFCURVE",
"462 479 CURVE SMOOTH",
"422 519 OFFCURVE",
"362 540 OFFCURVE",
"281 540 CURVE SMOOTH",
"201 540 OFFCURVE",
"141 519 OFFCURVE",
"101 479 CURVE SMOOTH",
"55 435 OFFCURVE",
"34 368 OFFCURVE",
"34 285 CURVE SMOOTH",
"34 245 LINE SMOOTH",
"34 162 OFFCURVE",
"55 95 OFFCURVE",
"101 51 CURVE SMOOTH",
"142 11 OFFCURVE",
"201 -10 OFFCURVE",
"281 -10 CURVE SMOOTH"
);
}
);
width = 530;
}
);
leftMetricsKey = o;
unicode = 0063;
},
{
color = 10;
glyphname = d;
lastChange = "2019-06-11 21:30:44 +0000";
layers = (
{
hints = (
{
horizontal = 1;
origin = "{1, 8}";
target = up;
type = BottomGhost;
},
{
horizontal = 1;
origin = "{0, 26}";
target = down;
type = TopGhost;
},
{
horizontal = 1;
origin = "{1, 2}";
target = down;
type = TopGhost;
},
{
horizontal = 1;
origin = "{0, 39}";
target = up;
type = BottomGhost;
},
{
horizontal = 1;
origin = "{1, 8}";
target = "{0, 6}";
type = Stem;
},
{
place = "{415, 20}";
type = Stem;
},
{
place = "{-7, 2000}";
type = Stem;
}
);
layerId = "444456EC-4579-471A-B2C3-7F5DF9BBCA9A";
paths = (
{
closed = 1;
nodes = (
"293 -10 OFFCURVE",
"369 23 OFFCURVE",
"426 116 CURVE",
"420 132 LINE",
"370 52 OFFCURVE",
"303 10 OFFCURVE",
"227 10 CURVE SMOOTH",
"179 10 OFFCURVE",
"142 26 OFFCURVE",
"117 55 CURVE SMOOTH",
"83 93 OFFCURVE",
"69 153 OFFCURVE",
"69 230 CURVE SMOOTH",
"69 300 LINE SMOOTH",
"69 377 OFFCURVE",
"83 437 OFFCURVE",
"117 475 CURVE SMOOTH",
"142 504 OFFCURVE",
"179 520 OFFCURVE",
"227 520 CURVE SMOOTH",
"303 520 OFFCURVE",
"370 478 OFFCURVE",
"420 398 CURVE",
"426 414 LINE",
"369 507 OFFCURVE",
"293 540 OFFCURVE",
"224 540 CURVE SMOOTH",
"171 540 OFFCURVE",
"130 522 OFFCURVE",
"102 490 CURVE SMOOTH",
"65 449 OFFCURVE",
"49 385 OFFCURVE",
"49 301 CURVE SMOOTH",
"49 229 LINE SMOOTH",
"49 145 OFFCURVE",
"65 81 OFFCURVE",
"102 40 CURVE SMOOTH",
"130 8 OFFCURVE",
"171 -10 OFFCURVE",
"224 -10 CURVE SMOOTH"
);
},
{
closed = 1;
nodes = (
"437 0 LINE",
"437 734 LINE",
"417 734 LINE",
"417 530 LINE",
"417 421 LINE",
"417 411 LINE",
"417 115 LINE",
"417 110 LINE",
"417 0 LINE"
);
}
);
width = 534;
},
{
hints = (
{
horizontal = 1;
origin = "{1, 8}";
target = up;
type = BottomGhost;
},
{
horizontal = 1;
origin = "{0, 26}";
target = down;
type = TopGhost;
},
{
horizontal = 1;
origin = "{1, 2}";
target = down;
type = TopGhost;
},
{
horizontal = 1;
origin = "{0, 39}";
target = up;
type = BottomGhost;
},
{
horizontal = 1;
origin = "{1, 8}";
target = "{0, 6}";
type = Stem;
},
{
place = "{47, 297}";
type = Stem;
},
{
place = "{319, 2000}";
type = Stem;
}
);
layerId = "CDA8F3AC-A9A8-4005-B9E6-B6E3BABC1C09";
paths = (
{
closed = 1;
nodes = (
"265 -10 OFFCURVE",
"318 11 OFFCURVE",
"361 80 CURVE",
"358 231 LINE",
"337 187 OFFCURVE",
"307 155 OFFCURVE",
"273 155 CURVE SMOOTH",
"259 155 OFFCURVE",
"248 162 OFFCURVE",
"240 174 CURVE SMOOTH",
"229 192 OFFCURVE",
"226 217 OFFCURVE",
"226 244 CURVE SMOOTH",
"226 286 LINE SMOOTH",
"226 313 OFFCURVE",
"229 338 OFFCURVE",
"240 356 CURVE SMOOTH",
"248 368 OFFCURVE",
"259 375 OFFCURVE",
"273 375 CURVE SMOOTH",
"307 375 OFFCURVE",
"337 343 OFFCURVE",
"358 299 CURVE",
"361 450 LINE",
"318 519 OFFCURVE",
"265 540 OFFCURVE",
"210 540 CURVE SMOOTH",
"160 540 OFFCURVE",
"116 523 OFFCURVE",
"84 484 CURVE SMOOTH",
"50 443 OFFCURVE",
"34 381 OFFCURVE",
"34 302 CURVE SMOOTH",
"34 228 LINE SMOOTH",
"34 149 OFFCURVE",
"50 87 OFFCURVE",
"84 46 CURVE SMOOTH",
"116 7 OFFCURVE",
"160 -10 OFFCURVE",
"210 -10 CURVE SMOOTH"
);
},
{
closed = 1;
nodes = (
"525 0 LINE",
"525 734 LINE",
"337 734 LINE",
"337 530 LINE",
"346 434 LINE",
"337 418 LINE",
"337 103 LINE",
"346 98 LINE",
"355 0 LINE"
);
}
);
width = 575;
}
);
leftMetricsKey = o;
rightMetricsKey = n;
unicode = 0064;
},
{
color = 10;
glyphname = eth;
lastChange = "2019-06-11 21:30:46 +0000";
layers = (
{
hints = (
{
horizontal = 1;
origin = "{0, 25}";
target = "{1, 2}";
type = Stem;
},
{
horizontal = 1;
origin = "{0, 12}";
target = "{1, 9}";
type = Stem;
},
{
horizontal = 1;
place = "{549, 2000}";
type = Stem;
},
{
place = "{3, 9}";
type = Stem;
},
{
place = "{68, 20}";
type = Stem;
}
);
layerId = "444456EC-4579-471A-B2C3-7F5DF9BBCA9A";
paths = (
{
closed = 1;
nodes = (
"322 -10 OFFCURVE",
"371 9 OFFCURVE",
"403 43 CURVE SMOOTH",
"447 88 OFFCURVE",
"461 158 OFFCURVE",
"461 238 CURVE SMOOTH",
"461 292 LINE SMOOTH",
"461 372 OFFCURVE",
"447 442 OFFCURVE",
"403 487 CURVE SMOOTH",
"371 521 OFFCURVE",
"322 540 OFFCURVE",
"255 540 CURVE SMOOTH",
"188 540 OFFCURVE",
"139 521 OFFCURVE",
"107 487 CURVE SMOOTH",
"64 442 OFFCURVE",
"49 372 OFFCURVE",
"49 292 CURVE SMOOTH",
"49 238 LINE SMOOTH",
"49 158 OFFCURVE",
"64 88 OFFCURVE",
"107 43 CURVE SMOOTH",
"139 9 OFFCURVE",
"188 -10 OFFCURVE",
"255 -10 CURVE SMOOTH"
);
},
{
closed = 1;
nodes = (
"196 9 OFFCURVE",
"152 25 OFFCURVE",
"121 57 CURVE SMOOTH",
"86 94 OFFCURVE",
"69 155 OFFCURVE",
"69 238 CURVE SMOOTH",
"69 292 LINE SMOOTH",
"69 375 OFFCURVE",
"86 436 OFFCURVE",
"121 473 CURVE SMOOTH",
"152 505 OFFCURVE",
"196 521 OFFCURVE",
"255 521 CURVE SMOOTH",
"314 521 OFFCURVE",
"358 505 OFFCURVE",
"389 473 CURVE SMOOTH",
"424 436 OFFCURVE",
"441 375 OFFCURVE",
"441 292 CURVE SMOOTH",
"441 238 LINE SMOOTH",
"441 155 OFFCURVE",
"424 94 OFFCURVE",
"389 57 CURVE SMOOTH",
"358 25 OFFCURVE",
"314 9 OFFCURVE",
"255 9 CURVE SMOOTH"
);
},
{
closed = 1;
nodes = (
"461 284 LINE",
"461 479 OFFCURVE",
"408 641 OFFCURVE",
"319 734 CURVE",
"297 734 LINE",
"385 646 OFFCURVE",
"442 484 OFFCURVE",
"442 284 CURVE"
);
},
{
closed = 1;
nodes = (
"461 686 LINE",
"456 701 LINE",
"263 631 LINE",
"269 616 LINE"
);
}
);
width = 510;
},
{
hints = (
{
horizontal = 1;
origin = "{0, 25}";
target = "{1, 2}";
type = Stem;
},
{
horizontal = 1;
origin = "{0, 12}";
target = "{1, 9}";
type = Stem;
},
{
horizontal = 1;
place = "{664, 167}";
type = Stem;
},
{
place = "{122, 1221}";
type = Stem;
},
{
place = "{199, 2000}";
type = Stem;
}
);
layerId = "CDA8F3AC-A9A8-4005-B9E6-B6E3BABC1C09";
paths = (
{
closed = 1;
nodes = (
"362 -10 OFFCURVE",
"422 11 OFFCURVE",
"463 51 CURVE SMOOTH",
"509 95 OFFCURVE",
"530 162 OFFCURVE",
"530 245 CURVE SMOOTH",
"530 285 LINE SMOOTH",
"530 368 OFFCURVE",
"508 435 OFFCURVE",
"463 479 CURVE SMOOTH",
"422 519 OFFCURVE",
"362 540 OFFCURVE",
"282 540 CURVE SMOOTH",
"202 540 OFFCURVE",
"140 519 OFFCURVE",
"101 479 CURVE SMOOTH",
"56 435 OFFCURVE",
"34 368 OFFCURVE",
"34 285 CURVE SMOOTH",
"34 245 LINE SMOOTH",
"34 162 OFFCURVE",
"54 95 OFFCURVE",
"101 51 CURVE SMOOTH",
"142 11 OFFCURVE",
"202 -10 OFFCURVE",
"282 -10 CURVE SMOOTH"
);
},
{
closed = 1;
nodes = (
"263 141 OFFCURVE",
"250 148 OFFCURVE",
"241 161 CURVE SMOOTH",
"228 179 OFFCURVE",
"226 208 OFFCURVE",
"226 245 CURVE SMOOTH",
"226 285 LINE SMOOTH",
"226 322 OFFCURVE",
"228 351 OFFCURVE",
"241 369 CURVE SMOOTH",
"250 382 OFFCURVE",
"263 389 OFFCURVE",
"282 389 CURVE SMOOTH",
"301 389 OFFCURVE",
"314 382 OFFCURVE",
"323 369 CURVE SMOOTH",
"336 351 OFFCURVE",
"339 322 OFFCURVE",
"339 285 CURVE SMOOTH",
"339 245 LINE SMOOTH",
"339 208 OFFCURVE",
"335 179 OFFCURVE",
"323 161 CURVE SMOOTH",
"314 148 OFFCURVE",
"301 141 OFFCURVE",
"282 141 CURVE SMOOTH"
);
},
{
closed = 1;
nodes = (
"530 278 LINE",
"530 455 OFFCURVE",
"476 620 OFFCURVE",
"364 734 CURVE",
"209 734 LINE",
"298 625 OFFCURVE",
"356 460 OFFCURVE",
"356 278 CURVE"
);
},
{
closed = 1;
nodes = (
"505 652 LINE",
"483 732 LINE",
"183 650 LINE",
"204 569 LINE"
);
}
);
width = 564;
}
);
leftMetricsKey = o;
rightMetricsKey = o;
unicode = 00F0;
},
{
color = 10;
glyphname = e;
lastChange = "2019-06-11 21:28:24 +0000";
layers = (
{
anchors = (
{
name = bottom;
position = "{255, 0}";
},
{
name = ogonek;
position = "{308, -4}";
},
{
name = top;
position = "{255, 530}";
}
);
hints = (
{
horizontal = 1;
origin = "{0, 56}";
target = "{0, 15}";
type = Stem;
},
{
horizontal = 1;
origin = "{0, 35}";
target = "{0, 34}";
type = Stem;
},
{
horizontal = 1;
origin = "{0, 43}";
target = "{0, 22}";
type = Stem;
},
{
place = "{83, 20}";
type = Stem;
},
{
place = "{441, 20}";
type = Stem;
}
);
layerId = "444456EC-4579-471A-B2C3-7F5DF9BBCA9A";
paths = (
{
closed = 1;
nodes = (
"323 -10 OFFCURVE",
"371 10 OFFCURVE",
"403 43 CURVE SMOOTH",
"419 59 OFFCURVE",
"432 79 OFFCURVE",
"440 102 CURVE",
"422 112 LINE",
"414 89 OFFCURVE",
"403 71 OFFCURVE",
"389 57 CURVE SMOOTH",
"358 25 OFFCURVE",
"314 9 OFFCURVE",
"255 9 CURVE SMOOTH",
"197 9 OFFCURVE",
"152 25 OFFCURVE",
"121 57 CURVE SMOOTH",
"86 94 OFFCURVE",
"69 155 OFFCURVE",
"69 238 CURVE SMOOTH",
"69 292 LINE",
"69 375 OFFCURVE",
"86 436 OFFCURVE",
"121 473 CURVE SMOOTH",
"152 505 OFFCURVE",
"196 521 OFFCURVE",
"255 521 CURVE SMOOTH",
"314 521 OFFCURVE",
"358 505 OFFCURVE",
"389 473 CURVE SMOOTH",
"424 436 OFFCURVE",
"441 375 OFFCURVE",
"441 292 CURVE",
"441 262 LINE",
"448 274 LINE",
"62 274 LINE",
"60 255 LINE",
"461 255 LINE",
"461 292 LINE SMOOTH",
"461 372 OFFCURVE",
"447 442 OFFCURVE",
"403 487 CURVE SMOOTH",
"371 521 OFFCURVE",
"322 540 OFFCURVE",
"255 540 CURVE SMOOTH",
"188 540 OFFCURVE",
"139 521 OFFCURVE",
"107 487 CURVE SMOOTH",
"64 442 OFFCURVE",
"49 372 OFFCURVE",
"49 292 CURVE SMOOTH",
"49 238 LINE SMOOTH",
"49 158 OFFCURVE",
"64 88 OFFCURVE",
"107 43 CURVE SMOOTH",
"139 9 OFFCURVE",
"188 -10 OFFCURVE",
"255 -10 CURVE SMOOTH"
);
}
);
width = 510;
},
{
anchors = (
{
name = bottom;
position = "{282, 0}";
},
{
name = ogonek;
position = "{393, 7}";
},
{
name = top;
position = "{282, 530}";
}
);
hints = (
{
horizontal = 1;
origin = "{0, 56}";
target = "{0, 15}";
type = Stem;
},
{
horizontal = 1;
origin = "{0, 35}";
target = "{0, 34}";
type = Stem;
},
{
horizontal = 1;
origin = "{0, 43}";
target = "{0, 22}";
type = Stem;
},
{
place = "{36, 192}";
type = Stem;
},
{
place = "{120, 410}";
type = Stem;
}
);
layerId = "CDA8F3AC-A9A8-4005-B9E6-B6E3BABC1C09";
paths = (
{
closed = 1;
nodes = (
"374 -10 OFFCURVE",
"433 12 OFFCURVE",
"473 51 CURVE SMOOTH",
"492 69 OFFCURVE",
"507 91 OFFCURVE",
"518 119 CURVE",
"346 193 LINE",
"343 181 OFFCURVE",
"340 170 OFFCURVE",
"333 160 CURVE SMOOTH",
"322 145 OFFCURVE",
"303 141 OFFCURVE",
"287 141 CURVE SMOOTH",
"268 141 OFFCURVE",
"250 148 OFFCURVE",
"241 161 CURVE SMOOTH",
"228 179 OFFCURVE",
"226 215 OFFCURVE",
"226 245 CURVE SMOOTH",
"226 291 LINE",
"221 327 OFFCURVE",
"228 363 OFFCURVE",
"241 381 CURVE SMOOTH",
"250 394 OFFCURVE",
"263 402 OFFCURVE",
"282 402 CURVE SMOOTH",
"301 402 OFFCURVE",
"314 394 OFFCURVE",
"323 381 CURVE SMOOTH",
"336 363 OFFCURVE",
"343 327 OFFCURVE",
"339 285 CURVE",
"339 251 LINE",
"379 314 LINE",
"135 314 LINE",
"134 229 LINE",
"530 229 LINE",
"530 285 LINE SMOOTH",
"530 368 OFFCURVE",
"506 435 OFFCURVE",
"461 479 CURVE SMOOTH",
"420 518 OFFCURVE",
"362 540 OFFCURVE",
"282 540 CURVE SMOOTH",
"202 540 OFFCURVE",
"143 519 OFFCURVE",
"103 479 CURVE SMOOTH",
"58 435 OFFCURVE",
"34 368 OFFCURVE",
"34 285 CURVE SMOOTH",
"34 245 LINE SMOOTH",
"34 162 OFFCURVE",
"57 95 OFFCURVE",
"103 51 CURVE SMOOTH",
"141 13 OFFCURVE",
"198 -10 OFFCURVE",
"288 -10 CURVE SMOOTH"
);
}
);
width = 564;
}
);
leftMetricsKey = o;
rightMetricsKey = o;
unicode = 0065;
},
{
color = 10;
glyphname = f;
lastChange = "2019-06-11 21:28:24 +0000";
layers = (
{
hints = (
{
horizontal = 1;
origin = "{0, 18}";
target = up;
type = BottomGhost;
},
{
horizontal = 1;
origin = "{1, 2}";
target = "{1, 3}";
type = Stem;
},
{
horizontal = 1;
origin = "{0, 11}";
target = "{0, 7}";
type = Stem;
},
{
horizontal = 1;
origin = "{0, 8}";
target = up;
type = BottomGhost;
},
{
place = "{113, 20}";
type = Stem;
}
);
layerId = "444456EC-4579-471A-B2C3-7F5DF9BBCA9A";
paths = (
{
closed = 1;
nodes = (
"133 0 LINE",
"133 602 LINE SMOOTH",
"133 643 OFFCURVE",
"133 676 OFFCURVE",
"151 696 CURVE SMOOTH",
"170 716 OFFCURVE",
"196 717 OFFCURVE",
"228 716 CURVE",
"229 734 LINE",
"220 734 OFFCURVE",
"215 734 OFFCURVE",
"209 734 CURVE SMOOTH",
"172 734 OFFCURVE",
"150 725 OFFCURVE",
"135 709 CURVE SMOOTH",
"114 685 OFFCURVE",
"113 647 OFFCURVE",
"113 605 CURVE SMOOTH",
"113 0 LINE"
);
},
{
closed = 1;
nodes = (
"219 512 LINE",
"219 530 LINE",
"37 530 LINE",
"37 512 LINE"
);
}
);
width = 267;
},
{
hints = (
{
horizontal = 1;
origin = "{0, 18}";
target = up;
type = BottomGhost;
},
{
horizontal = 1;
origin = "{1, 2}";
target = "{1, 3}";
type = Stem;
},
{
horizontal = 1;
origin = "{0, 11}";
target = "{0, 7}";
type = Stem;
},
{
horizontal = 1;
origin = "{0, 8}";
target = up;
type = BottomGhost;
},
{
place = "{75, 188}";
type = Stem;
}
);
layerId = "CDA8F3AC-A9A8-4005-B9E6-B6E3BABC1C09";
paths = (
{
closed = 1;
nodes = (
"263 0 LINE",
"263 549 LINE SMOOTH",
"263 571 OFFCURVE",
"266 585 OFFCURVE",
"274 594 CURVE SMOOTH",
"286 606 OFFCURVE",
"305 606 OFFCURVE",
"336 604 CURVE",
"341 732 LINE",
"308 734 OFFCURVE",
"265 736 OFFCURVE",
"240 736 CURVE SMOOTH",
"167 736 OFFCURVE",
"126 727 OFFCURVE",
"101 695 CURVE SMOOTH",
"84 674 OFFCURVE",
"75 642 OFFCURVE",
"75 595 CURVE SMOOTH",
"75 0 LINE"
);
},
{
closed = 1;
nodes = (
"335 405 LINE",
"335 530 LINE",
"14 530 LINE",
"14 405 LINE"
);
}
);
width = 361;
}
);
unicode = 0066;
},
{
color = 10;
glyphname = g;
lastChange = "2019-06-11 21:28:24 +0000";
layers = (
{
anchors = (
{
name = bottom;
position = "{249, 0}";
},
{
name = top;
position = "{249, 530}";
}
);
hints = (
{
horizontal = 1;
origin = "{0, 43}";
target = "{0, 30}";
type = Stem;
},
{
horizontal = 1;
place = "{36, 2000}";
type = Stem;
},
{
horizontal = 1;
origin = "{1, 25}";
target = "{2, 2}";
type = Stem;
},
{
horizontal = 1;
origin = "{1, 12}";
target = "{2, 9}";
type = Stem;
},
{
place = "{365, 19}";
type = Stem;
},
{
place = "{442, 20}";
type = Stem;
},
{
place = "{81, 19}";
type = Stem;
},
{
place = "{226, 2000}";
type = Stem;
},
{
place = "{477, 2000}";
type = Stem;
},
{
place = "{68, 20}";
type = Stem;
}
);
layerId = "444456EC-4579-471A-B2C3-7F5DF9BBCA9A";
paths = (
{
closed = 1;
nodes = (
"361 -212 OFFCURVE",
"467 -154 OFFCURVE",
"467 -42 CURVE SMOOTH",
"467 33 OFFCURVE",
"425 72 OFFCURVE",
"358 72 CURVE SMOOTH",
"296 72 OFFCURVE",
"220 57 OFFCURVE",
"160 57 CURVE SMOOTH",
"126 57 OFFCURVE",
"101 72 OFFCURVE",
"101 111 CURVE SMOOTH",
"101 157 OFFCURVE",
"143 188 OFFCURVE",
"189 211 CURVE",
"172 216 LINE",
"116 189 OFFCURVE",
"82 153 OFFCURVE",
"82 109 CURVE SMOOTH",
"82 65 OFFCURVE",
"109 39 OFFCURVE",
"156 39 CURVE SMOOTH",
"220 39 OFFCURVE",
"295 53 OFFCURVE",
"354 53 CURVE SMOOTH",
"416 53 OFFCURVE",
"446 18 OFFCURVE",
"446 -43 CURVE SMOOTH",
"446 -136 OFFCURVE",
"358 -194 OFFCURVE",
"232 -194 CURVE SMOOTH",
"122 -194 OFFCURVE",
"52 -148 OFFCURVE",
"52 -75 CURVE SMOOTH",
"52 -23 OFFCURVE",
"89 15 OFFCURVE",
"162 43 CURVE",
"147 49 LINE",
"66 20 OFFCURVE",
"32 -25 OFFCURVE",
"32 -78 CURVE SMOOTH",
"32 -171 OFFCURVE",
"127 -212 OFFCURVE",
"231 -212 CURVE SMOOTH"
);
},
{
closed = 1;
nodes = (
"315 199 OFFCURVE",
"363 215 OFFCURVE",
"393 248 CURVE SMOOTH",
"414 272 OFFCURVE",
"426 306 OFFCURVE",
"426 351 CURVE SMOOTH",
"426 389 LINE SMOOTH",
"426 433 OFFCURVE",
"414 467 OFFCURVE",
"393 491 CURVE SMOOTH",
"363 525 OFFCURVE",
"315 540 OFFCURVE",
"249 540 CURVE SMOOTH",
"184 540 OFFCURVE",
"136 525 OFFCURVE",
"106 491 CURVE SMOOTH",
"84 467 OFFCURVE",
"72 433 OFFCURVE",
"72 389 CURVE SMOOTH",
"72 351 LINE SMOOTH",
"72 306 OFFCURVE",
"84 272 OFFCURVE",
"106 248 CURVE SMOOTH",
"136 215 OFFCURVE",
"184 199 OFFCURVE",
"249 199 CURVE SMOOTH"
);
},
{
closed = 1;
nodes = (
"188 218 OFFCURVE",
"147 232 OFFCURVE",
"121 260 CURVE SMOOTH",
"102 282 OFFCURVE",
"92 312 OFFCURVE",
"92 351 CURVE SMOOTH",
"92 388 LINE SMOOTH",
"92 428 OFFCURVE",
"102 458 OFFCURVE",
"121 479 CURVE SMOOTH",
"147 507 OFFCURVE",
"188 522 OFFCURVE",
"249 522 CURVE SMOOTH",
"310 522 OFFCURVE",
"351 507 OFFCURVE",
"377 479 CURVE SMOOTH",
"396 458 OFFCURVE",
"406 428 OFFCURVE",
"406 388 CURVE SMOOTH",
"406 351 LINE SMOOTH",
"406 312 OFFCURVE",
"396 282 OFFCURVE",
"377 260 CURVE SMOOTH",
"352 232 OFFCURVE",
"310 218 OFFCURVE",
"249 218 CURVE SMOOTH"
);
},
{
closed = 1;
nodes = (
"433 489 OFFCURVE",
"464 517 OFFCURVE",
"467 561 CURVE",
"448 561 LINE",
"447 529 OFFCURVE",
"423 503 OFFCURVE",
"379 498 CURVE",
"383 486 LINE"
);
}
);
width = 498;
},
{
anchors = (
{
name = bottom;
position = "{272, 0}";
},
{
name = top;
position = "{272, 530}";
}
);
hints = (
{
horizontal = 1;
origin = "{0, 43}";
target = "{0, 30}";
type = Stem;
},
{
horizontal = 1;
place = "{-155, 2000}";
type = Stem;
},
{
horizontal = 1;
origin = "{1, 25}";
target = "{2, 2}";
type = Stem;
},
{
horizontal = 1;
origin = "{1, 12}";
target = "{2, 9}";
type = Stem;
},
{
place = "{218, 1312}";
type = Stem;
},
{
place = "{299, 186}";
type = Stem;
},
{
place = "{42, 179}";
type = Stem;
},
{
place = "{352, 171}";
type = Stem;
},
{
place = "{308, 2000}";
type = Stem;
},
{
place = "{8, 42}";
type = Stem;
}
);
layerId = "CDA8F3AC-A9A8-4005-B9E6-B6E3BABC1C09";
paths = (
{
closed = 1;
nodes = (
"385 -210 OFFCURVE",
"525 -161 OFFCURVE",
"525 -21 CURVE SMOOTH",
"525 72 OFFCURVE",
"472 112 OFFCURVE",
"393 112 CURVE SMOOTH",
"346 112 OFFCURVE",
"278 100 OFFCURVE",
"237 100 CURVE SMOOTH",
"205 100 OFFCURVE",
"189 109 OFFCURVE",
"189 128 CURVE SMOOTH",
"189 144 OFFCURVE",
"198 157 OFFCURVE",
"220 167 CURVE",
"154 195 LINE",
"95 179 OFFCURVE",
"56 144 OFFCURVE",
"56 90 CURVE SMOOTH",
"56 25 OFFCURVE",
"114 -4 OFFCURVE",
"199 -4 CURVE SMOOTH",
"243 -4 OFFCURVE",
"280 3 OFFCURVE",
"300 3 CURVE SMOOTH",
"323 3 OFFCURVE",
"335 -10 OFFCURVE",
"335 -34 CURVE SMOOTH",
"335 -72 OFFCURVE",
"297 -89 OFFCURVE",
"263 -89 CURVE SMOOTH",
"235 -89 OFFCURVE",
"207 -79 OFFCURVE",
"207 -45 CURVE SMOOTH",
"207 -32 OFFCURVE",
"212 -14 OFFCURVE",
"231 4 CURVE",
"159 18 LINE",
"39 10 OFFCURVE",
"20 -45 OFFCURVE",
"20 -78 CURVE SMOOTH",
"20 -170 OFFCURVE",
"107 -210 OFFCURVE",
"240 -210 CURVE SMOOTH"
);
},
{
closed = 1;
nodes = (
"364 146 OFFCURVE",
"427 167 OFFCURVE",
"464 208 CURVE SMOOTH",
"490 237 OFFCURVE",
"504 275 OFFCURVE",
"504 323 CURVE SMOOTH",
"504 363 LINE SMOOTH",
"504 410 OFFCURVE",
"490 449 OFFCURVE",
"464 478 CURVE SMOOTH",
"427 518 OFFCURVE",
"364 540 OFFCURVE",
"272 540 CURVE SMOOTH",
"180 540 OFFCURVE",
"118 518 OFFCURVE",
"81 478 CURVE SMOOTH",
"55 449 OFFCURVE",
"41 410 OFFCURVE",
"41 363 CURVE SMOOTH",
"41 323 LINE SMOOTH",
"41 275 OFFCURVE",
"55 237 OFFCURVE",
"81 208 CURVE SMOOTH",
"117 167 OFFCURVE",
"180 146 OFFCURVE",
"272 146 CURVE SMOOTH"
);
},
{
closed = 1;
nodes = (
"254 278 OFFCURVE",
"240 285 OFFCURVE",
"231 296 CURVE SMOOTH",
"224 304 OFFCURVE",
"220 315 OFFCURVE",
"220 328 CURVE SMOOTH",
"220 358 LINE SMOOTH",
"220 371 OFFCURVE",
"225 382 OFFCURVE",
"231 390 CURVE SMOOTH",
"239 402 OFFCURVE",
"254 408 OFFCURVE",
"272 408 CURVE SMOOTH",
"291 408 OFFCURVE",
"305 401 OFFCURVE",
"314 390 CURVE SMOOTH",
"321 382 OFFCURVE",
"324 371 OFFCURVE",
"324 358 CURVE SMOOTH",
"324 328 LINE SMOOTH",
"324 315 OFFCURVE",
"321 304 OFFCURVE",
"314 296 CURVE SMOOTH",
"305 285 OFFCURVE",
"291 278 OFFCURVE",
"272 278 CURVE SMOOTH"
);
},
{
closed = 1;
nodes = (
"498 460 OFFCURVE",
"526 506 OFFCURVE",
"525 569 CURVE",
"389 569 LINE",
"394 546 OFFCURVE",
"392 522 OFFCURVE",
"385 494 CURVE",
"440 443 LINE"
);
}
);
width = 545;
}
);
unicode = 0067;
},
{
color = 10;
glyphname = h;
lastChange = "2019-06-11 21:28:24 +0000";
layers = (
{
anchors = (
{
name = bottom;
position = "{293, 0}";
},
{
name = center;
position = "{293, 265}";
},
{
name = top;
position = "{293, 530}";
}
);
hints = (
{
horizontal = 1;
origin = "{1, 6}";
target = up;
type = BottomGhost;
},
{
horizontal = 1;
origin = "{0, 4}";
target = down;
type = TopGhost;
},
{
horizontal = 1;
origin = "{1, 5}";
target = down;
type = TopGhost;
},
{
place = "{466, 20}";
type = Stem;
},
{
place = "{538, 2000}";
type = Stem;
}
);
layerId = "444456EC-4579-471A-B2C3-7F5DF9BBCA9A";
paths = (
{
closed = 1;
nodes = (
"488 0 LINE",
"488 346 LINE SMOOTH",
"488 454 OFFCURVE",
"435 540 OFFCURVE",
"310 540 CURVE SMOOTH",
"241 540 OFFCURVE",
"167 511 OFFCURVE",
"108 415 CURVE",
"113 399 LINE",
"164 482 OFFCURVE",
"228 520 OFFCURVE",
"307 520 CURVE SMOOTH",
"410 520 OFFCURVE",
"468 455 OFFCURVE",
"468 343 CURVE SMOOTH",
"468 0 LINE"
);
},
{
closed = 1;
nodes = (
"117 0 LINE",
"117 415 LINE",
"116 420 LINE",
"117 530 LINE",
"117 734 LINE",
"97 734 LINE",
"97 0 LINE"
);
}
);
width = 585;
},
{
anchors = (
{
name = bottom;
position = "{296, 0}";
},
{
name = center;
position = "{296, 265}";
},
{
name = top;
position = "{296, 530}";
}
);
hints = (
{
horizontal = 1;
origin = "{1, 6}";
target = up;
type = BottomGhost;
},
{
horizontal = 1;
origin = "{0, 4}";
target = down;
type = TopGhost;
},
{
horizontal = 1;
origin = "{1, 5}";
target = down;
type = TopGhost;
},
{
place = "{304, 188}";
type = Stem;
},
{
place = "{488, 2000}";
type = Stem;
}
);
layerId = "CDA8F3AC-A9A8-4005-B9E6-B6E3BABC1C09";
paths = (
{
closed = 1;
nodes = (
"541 0 LINE",
"541 343 LINE SMOOTH",
"541 474 OFFCURVE",
"467 540 OFFCURVE",
"370 540 CURVE SMOOTH",
"317 540 OFFCURVE",
"261 521 OFFCURVE",
"216 454 CURVE",
"215 301 LINE",
"238 349 OFFCURVE",
"267 381 OFFCURVE",
"305 381 CURVE SMOOTH",
"343 381 OFFCURVE",
"353 345 OFFCURVE",
"353 295 CURVE SMOOTH",
"353 0 LINE"
);
},
{
closed = 1;
nodes = (
"239 0 LINE",
"239 427 LINE",
"229 441 LINE",
"239 530 LINE",
"239 734 LINE",
"51 734 LINE",
"51 0 LINE"
);
}
);
width = 591;
}
);
rightMetricsKey = n;
unicode = 0068;
},
{
color = 10;
glyphname = i;
lastChange = "2019-06-12 03:00:52 +0000";
layers = (
{
anchors = (
{
name = ogonek;
position = "{117, 0}";
}
);
hints = (
{
horizontal = 1;
origin = "{0, 3}";
target = up;
type = BottomGhost;
},
{
horizontal = 1;
origin = "{0, 2}";
target = down;
type = TopGhost;
},
{
horizontal = 1;
origin = "{1, 2}";
target = "{1, 3}";
type = Stem;
},
{
place = "{97, 20}";
type = Stem;
}
);
layerId = "444456EC-4579-471A-B2C3-7F5DF9BBCA9A";
paths = (
{
closed = 1;
nodes = (
"117 0 LINE",
"117 530 LINE",
"97 530 LINE",
"97 0 LINE"
);
},
{
closed = 1;
nodes = (
"117 610 LINE",
"117 674 LINE",
"97 674 LINE",
"97 610 LINE"
);
}
);
width = 214;
},
{
anchors = (
{
name = ogonek;
position = "{239, 0}";
}
);
hints = (
{
horizontal = 1;
origin = "{0, 3}";
target = up;
type = BottomGhost;
},
{
horizontal = 1;
origin = "{0, 2}";
target = down;
type = TopGhost;
},
{
horizontal = 1;
origin = "{1, 2}";
target = "{1, 3}";
type = Stem;
},
{
place = "{51, 188}";
type = Stem;
}
);
layerId = "CDA8F3AC-A9A8-4005-B9E6-B6E3BABC1C09";
paths = (
{
closed = 1;
nodes = (
"239 0 LINE",
"239 530 LINE",
"51 530 LINE",
"51 0 LINE"
);
},
{
closed = 1;
nodes = (
"239 592 LINE",
"239 731 LINE",
"51 731 LINE",
"51 592 LINE"
);
}
);
width = 289;
}
);
leftMetricsKey = h;
rightMetricsKey = h;
unicode = 0069;
},
{
color = 10;
glyphname = idotless;
lastChange = "2019-06-12 03:00:59 +0000";
layers = (
{
anchors = (
{
name = bottom;
position = "{107, 0}";
},
{
name = ogonek;
position = "{182, 10}";
},
{
name = top;
position = "{107, 530}";
}
);
hints = (
{
horizontal = 1;
origin = "{0, 3}";
target = up;
type = BottomGhost;
},
{
horizontal = 1;
origin = "{0, 2}";
target = down;
type = TopGhost;
},
{
place = "{97, 20}";
type = Stem;
}
);
layerId = "444456EC-4579-471A-B2C3-7F5DF9BBCA9A";
paths = (
{
closed = 1;
nodes = (
"117 0 LINE",
"117 530 LINE",
"97 530 LINE",
"97 0 LINE"
);
}
);
width = 214;
},
{
anchors = (
{
name = bottom;
position = "{145, 0}";
},
{
name = ogonek;
position = "{258, 10}";
},
{
name = top;
position = "{145, 530}";
}
);
hints = (
{
horizontal = 1;
origin = "{0, 3}";
target = up;
type = BottomGhost;
},
{
horizontal = 1;
origin = "{0, 2}";
target = down;
type = TopGhost;
},
{
place = "{51, 188}";
type = Stem;
}
);
layerId = "CDA8F3AC-A9A8-4005-B9E6-B6E3BABC1C09";
paths = (
{
closed = 1;
nodes = (
"239 0 LINE",
"239 530 LINE",
"51 530 LINE",
"51 0 LINE"
);
}
);
width = 289;
}
);
leftMetricsKey = h;
rightMetricsKey = h;
unicode = 0131;
},
{
color = 10;
glyphname = j;
lastChange = "2019-06-12 13:08:22 +0000";
layers = (
{
hints = (
{
horizontal = 1;
origin = "{0, 2}";
target = "{0, 17}";
type = Stem;
},
{
horizontal = 1;
origin = "{0, 10}";
target = down;
type = TopGhost;
},
{
horizontal = 1;
origin = "{1, 2}";
target = "{1, 3}";
type = Stem;
},
{
place = "{97, 20}";
type = Stem;
}
);
layerId = "444456EC-4579-471A-B2C3-7F5DF9BBCA9A";
paths = (
{
closed = 1;
nodes = (
"10 -190 OFFCURVE",
"16 -190 OFFCURVE",
"21 -190 CURVE SMOOTH",
"58 -190 OFFCURVE",
"80 -181 OFFCURVE",
"95 -165 CURVE SMOOTH",
"117 -141 OFFCURVE",
"117 -102 OFFCURVE",
"117 -59 CURVE SMOOTH",
"117 530 LINE",
"97 530 LINE",
"97 -58 LINE SMOOTH",
"97 -99 OFFCURVE",
"97 -132 OFFCURVE",
"79 -152 CURVE SMOOTH",
"60 -172 OFFCURVE",
"34 -173 OFFCURVE",
"8 -172 CURVE",
"8 -190 LINE"
);
},
{
closed = 1;
nodes = (
"117 610 LINE",
"117 674 LINE",
"97 674 LINE",
"97 610 LINE"
);
}
);
width = 214;
},
{
hints = (
{
horizontal = 1;
origin = "{0, 2}";
target = "{0, 17}";
type = Stem;
},
{
horizontal = 1;
origin = "{0, 10}";
target = down;
type = TopGhost;
},
{
horizontal = 1;
origin = "{1, 2}";
target = "{1, 3}";
type = Stem;
},
{
place = "{51, 188}";
type = Stem;
}
);
layerId = "CDA8F3AC-A9A8-4005-B9E6-B6E3BABC1C09";
paths = (
{
closed = 1;
nodes = (
"6 -190 OFFCURVE",
"49 -191 OFFCURVE",
"74 -191 CURVE SMOOTH",
"144 -191 OFFCURVE",
"187 -177 OFFCURVE",
"210 -144 CURVE SMOOTH",
"232 -116 OFFCURVE",
"239 -75 OFFCURVE",
"239 -19 CURVE SMOOTH",
"239 530 LINE",
"51 530 LINE",
"51 -6 LINE SMOOTH",
"51 -28 OFFCURVE",
"48 -42 OFFCURVE",
"40 -51 CURVE SMOOTH",
"28 -64 OFFCURVE",
"9 -63 OFFCURVE",
"-9 -61 CURVE",
"-9 -189 LINE"
);
},
{
closed = 1;
nodes = (
"239 592 LINE",
"239 731 LINE",
"51 731 LINE",
"51 592 LINE"
);
}
);
width = 289;
}
);
rightMetricsKey = i;
unicode = 006A;
},
{
color = 10;
glyphname = k;
lastChange = "2019-06-12 11:48:50 +0000";
layers = (
{
hints = (
{
horizontal = 1;
origin = "{0, 3}";
target = up;
type = BottomGhost;
},
{
horizontal = 1;
place = "{266, 2000}";
type = Stem;
},
{
horizontal = 1;
origin = "{2, 2}";
target = down;
type = TopGhost;
},
{
horizontal = 1;
origin = "{0, 2}";
target = down;
type = TopGhost;
},
{
place = "{97, 20}";
type = Stem;
}
);
layerId = "444456EC-4579-471A-B2C3-7F5DF9BBCA9A";
paths = (
{
closed = 1;
nodes = (
"117 0 LINE",
"117 734 LINE",
"97 734 LINE",
"97 0 LINE"
);
},
{
closed = 1;
nodes = (
"445 0 LINE",
"209 281 LINE",
"107 281 LINE",
"107 267 LINE",
"198 266 LINE",
"421 0 LINE"
);
},
{
closed = 1;
nodes = (
"210 269 LINE",
"431 530 LINE",
"407 530 LINE",
"198 283 LINE",
"110 283 LINE",
"110 269 LINE"
);
}
);
width = 479;
},
{
hints = (
{
horizontal = 1;
origin = "{0, 3}";
target = up;
type = BottomGhost;
},
{
horizontal = 1;
place = "{101, 278}";
type = Stem;
},
{
horizontal = 1;
origin = "{2, 2}";
target = down;
type = TopGhost;
},
{
horizontal = 1;
origin = "{0, 2}";
target = down;
type = TopGhost;
},
{
place = "{18, 41}";
type = Stem;
}
);
layerId = "CDA8F3AC-A9A8-4005-B9E6-B6E3BABC1C09";
paths = (
{
closed = 1;
nodes = (
"239 0 LINE",
"239 734 LINE",
"51 734 LINE",
"51 0 LINE"
);
},
{
closed = 1;
nodes = (
"554 0 LINE",
"376 308 LINE",
"216 308 LINE",
"216 228 LINE",
"262 220 LINE",
"332 0 LINE"
);
},
{
closed = 1;
nodes = (
"378 248 LINE",
"545 530 LINE",
"323 530 LINE",
"269 337 LINE",
"216 326 LINE",
"216 248 LINE"
);
}
);
width = 559;
}
);
leftMetricsKey = h;
unicode = 006B;
},
{
color = 10;
glyphname = l;
lastChange = "2019-06-11 21:29:46 +0000";
layers = (
{
anchors = (
{
name = bottom;
position = "{107, 0}";
},
{
name = center;
position = "{107, 265}";
},
{
name = top;
position = "{112, 734}";
},
{
name = topright;
position = "{194, 530}";
}
);
hints = (
{
horizontal = 1;
origin = "{0, 2}";
target = up;
type = BottomGhost;
},
{
horizontal = 1;
origin = "{0, 11}";
target = down;
type = TopGhost;
},
{
horizontal = 1;
origin = "{0, 18}";
target = "{0, 3}";
type = Stem;
},
{
place = "{97, 20}";
type = Stem;
}
);
layerId = "444456EC-4579-471A-B2C3-7F5DF9BBCA9A";
paths = (
{
closed = 1;
nodes = (
"161 0 OFFCURVE",
"165 0 OFFCURVE",
"169 0 CURVE",
"169 18 LINE",
"148 18 OFFCURVE",
"135 22 OFFCURVE",
"128 34 CURVE SMOOTH",
"120 47 OFFCURVE",
"117 69 OFFCURVE",
"117 105 CURVE SMOOTH",
"117 734 LINE",
"97 734 LINE",
"97 103 LINE SMOOTH",
"97 66 OFFCURVE",
"99 38 OFFCURVE",
"111 21 CURVE SMOOTH",
"118 10 OFFCURVE",
"133 1 OFFCURVE",
"158 0 CURVE SMOOTH"
);
}
);
width = 214;
},
{
anchors = (
{
name = bottom;
position = "{145, 0}";
},
{
name = center;
position = "{145, 265}";
},
{
name = top;
position = "{158, 734}";
},
{
name = topright;
position = "{270, 530}";
}
);
hints = (
{
horizontal = 1;
origin = "{0, 2}";
target = up;
type = BottomGhost;
},
{
horizontal = 1;
origin = "{0, 11}";
target = down;
type = TopGhost;
},
{
horizontal = 1;
origin = "{0, 18}";
target = "{0, 3}";
type = Stem;
},
{
place = "{51, 188}";
type = Stem;
}
);
layerId = "CDA8F3AC-A9A8-4005-B9E6-B6E3BABC1C09";
paths = (
{
closed = 1;
nodes = (
"238 -2 OFFCURVE",
"266 -1 OFFCURVE",
"281 0 CURVE",
"281 128 LINE",
"270 127 OFFCURVE",
"256 129 OFFCURVE",
"249 137 CURVE SMOOTH",
"241 146 OFFCURVE",
"239 158 OFFCURVE",
"239 177 CURVE SMOOTH",
"239 734 LINE",
"51 734 LINE",
"51 154 LINE SMOOTH",
"51 100 OFFCURVE",
"60 61 OFFCURVE",
"84 36 CURVE SMOOTH",
"109 10 OFFCURVE",
"149 -2 OFFCURVE",
"213 -2 CURVE SMOOTH"
);
}
);
width = 290;
}
);
leftMetricsKey = h;
unicode = 006C;
},
{
color = 10;
glyphname = lslash;
lastChange = "2019-06-11 21:29:46 +0000";
layers = (
{
hints = (
{
horizontal = 1;
origin = "{0, 18}";
target = "{0, 3}";
type = Stem;
},
{
horizontal = 1;
origin = "{0, 11}";
target = down;
type = TopGhost;
},
{
horizontal = 1;
origin = "{0, 2}";
target = up;
type = BottomGhost;
},
{
place = "{97, 20}";
type = Stem;
}
);
layerId = "444456EC-4579-471A-B2C3-7F5DF9BBCA9A";
paths = (
{
closed = 1;
nodes = (
"161 0 OFFCURVE",
"165 0 OFFCURVE",
"169 0 CURVE",
"169 18 LINE",
"148 18 OFFCURVE",
"135 22 OFFCURVE",
"128 34 CURVE SMOOTH",
"120 47 OFFCURVE",
"117 69 OFFCURVE",
"117 105 CURVE SMOOTH",
"117 734 LINE",
"97 734 LINE",
"97 103 LINE SMOOTH",
"97 66 OFFCURVE",
"99 38 OFFCURVE",
"111 21 CURVE SMOOTH",
"118 10 OFFCURVE",
"133 0 OFFCURVE",
"158 0 CURVE SMOOTH"
);
},
{
closed = 1;
nodes = (
"174 393 LINE",
"169 410 LINE",
"40 376 LINE",
"45 358 LINE"
);
}
);
width = 214;
},
{
hints = (
{
horizontal = 1;
origin = "{0, 18}";
target = "{0, 3}";
type = Stem;
},
{
horizontal = 1;
origin = "{0, 11}";
target = down;
type = TopGhost;
},
{
horizontal = 1;
origin = "{0, 2}";
target = up;
type = BottomGhost;
},
{
place = "{51, 188}";
type = Stem;
}
);
layerId = "CDA8F3AC-A9A8-4005-B9E6-B6E3BABC1C09";
paths = (
{
closed = 1;
nodes = (
"238 -2 OFFCURVE",
"266 -1 OFFCURVE",
"281 0 CURVE",
"281 128 LINE",
"270 127 OFFCURVE",
"256 129 OFFCURVE",
"249 137 CURVE SMOOTH",
"241 146 OFFCURVE",
"239 158 OFFCURVE",
"239 177 CURVE SMOOTH",
"239 734 LINE",
"51 734 LINE",
"51 154 LINE SMOOTH",
"51 100 OFFCURVE",
"60 61 OFFCURVE",
"84 36 CURVE SMOOTH",
"109 10 OFFCURVE",
"149 -2 OFFCURVE",
"213 -2 CURVE SMOOTH"
);
},
{
closed = 1;
nodes = (
"313 381 LINE",
"279 506 LINE",
"-20 425 LINE",
"14 301 LINE"
);
}
);
width = 290;
}
);
unicode = 0142;
},
{
color = 10;
glyphname = m;
lastChange = "2019-06-11 21:32:14 +0000";
layers = (
{
hints = (
{
horizontal = 1;
origin = "{0, 5}";
target = up;
type = BottomGhost;
},
{
horizontal = 1;
origin = "{1, 4}";
target = down;
type = TopGhost;
},
{
horizontal = 1;
origin = "{0, 4}";
target = down;
type = TopGhost;
},
{
horizontal = 1;
origin = "{0, 4}";
target = "{1, 11}";
type = Stem;
},
{
place = "{97, 20}";
type = Stem;
},
{
place = "{452, 20}";
type = Stem;
},
{
place = "{807, 20}";
type = Stem;
}
);
layerId = "444456EC-4579-471A-B2C3-7F5DF9BBCA9A";
paths = (
{
closed = 1;
nodes = (
"117 0 LINE",
"117 418 LINE",
"116 423 LINE",
"116 530 LINE",
"97 530 LINE",
"97 0 LINE"
);
},
{
closed = 1;
nodes = (
"472 0 LINE",
"472 346 LINE SMOOTH",
"472 454 OFFCURVE",
"429 540 OFFCURVE",
"305 540 CURVE SMOOTH",
"237 540 OFFCURVE",
"165 511 OFFCURVE",
"108 415 CURVE",
"113 399 LINE",
"163 482 OFFCURVE",
"225 520 OFFCURVE",
"302 520 CURVE SMOOTH",
"403 520 OFFCURVE",
"452 455 OFFCURVE",
"452 343 CURVE SMOOTH",
"452 0 LINE"
);
},
{
closed = 1;
nodes = (
"827 0 LINE",
"827 346 LINE SMOOTH",
"827 454 OFFCURVE",
"784 540 OFFCURVE",
"661 540 CURVE SMOOTH",
"593 540 OFFCURVE",
"520 511 OFFCURVE",
"458 409 CURVE",
"463 392 LINE",
"518 482 OFFCURVE",
"581 520 OFFCURVE",
"657 520 CURVE SMOOTH",
"759 520 OFFCURVE",
"807 455 OFFCURVE",
"807 343 CURVE SMOOTH",
"807 0 LINE"
);
}
);
width = 924;
},
{
hints = (
{
horizontal = 1;
origin = "{0, 5}";
target = up;
type = BottomGhost;
},
{
horizontal = 1;
origin = "{1, 4}";
target = down;
type = TopGhost;
},
{
horizontal = 1;
origin = "{0, 4}";
target = down;
type = TopGhost;
},
{
horizontal = 1;
origin = "{0, 4}";
target = "{1, 11}";
type = Stem;
},
{
place = "{51, 188}";
type = Stem;
},
{
place = "{350, 188}";
type = Stem;
},
{
place = "{649, 188}";
type = Stem;
}
);
layerId = "CDA8F3AC-A9A8-4005-B9E6-B6E3BABC1C09";
paths = (
{
closed = 1;
nodes = (
"239 0 LINE",
"239 427 LINE",
"230 432 LINE",
"221 530 LINE",
"51 530 LINE",
"51 0 LINE"
);
},
{
closed = 1;
nodes = (
"538 0 LINE",
"538 343 LINE SMOOTH",
"538 474 OFFCURVE",
"463 540 OFFCURVE",
"365 540 CURVE SMOOTH",
"312 540 OFFCURVE",
"254 518 OFFCURVE",
"208 445 CURVE",
"208 292 LINE",
"231 347 OFFCURVE",
"262 381 OFFCURVE",
"299 381 CURVE SMOOTH",
"340 381 OFFCURVE",
"350 345 OFFCURVE",
"350 295 CURVE SMOOTH",
"350 0 LINE"
);
},
{
closed = 1;
nodes = (
"837 0 LINE",
"837 343 LINE SMOOTH",
"837 474 OFFCURVE",
"763 540 OFFCURVE",
"665 540 CURVE SMOOTH",
"611 540 OFFCURVE",
"554 518 OFFCURVE",
"507 445 CURVE",
"508 292 LINE",
"531 347 OFFCURVE",
"561 381 OFFCURVE",
"599 381 CURVE SMOOTH",
"639 381 OFFCURVE",
"649 345 OFFCURVE",
"649 295 CURVE SMOOTH",
"649 0 LINE"
);
}
);
width = 887;
}
);
leftMetricsKey = n;
rightMetricsKey = n;
unicode = 006D;
},
{
color = 10;
glyphname = n;
lastChange = "2019-06-11 21:29:46 +0000";
layers = (
{
anchors = (
{
name = bottom;
position = "{293, 0}";
},
{
name = top;
position = "{293, 530}";
}
);
hints = (
{
horizontal = 1;
origin = "{1, 5}";
target = up;
type = BottomGhost;
},
{
horizontal = 1;
origin = "{0, 4}";
target = down;
type = TopGhost;
},
{
horizontal = 1;
origin = "{1, 4}";
target = down;
type = TopGhost;
},
{
horizontal = 1;
origin = "{1, 4}";
target = "{0, 11}";
type = Stem;
},
{
place = "{97, 20}";
type = Stem;
},
{
place = "{468, 20}";
type = Stem;
}
);
layerId = "444456EC-4579-471A-B2C3-7F5DF9BBCA9A";
paths = (
{
closed = 1;
nodes = (
"488 0 LINE",
"488 346 LINE SMOOTH",
"488 454 OFFCURVE",
"435 540 OFFCURVE",
"310 540 CURVE SMOOTH",
"241 540 OFFCURVE",
"167 511 OFFCURVE",
"108 415 CURVE",
"113 399 LINE",
"164 482 OFFCURVE",
"228 520 OFFCURVE",
"307 520 CURVE SMOOTH",
"410 520 OFFCURVE",
"468 455 OFFCURVE",
"468 343 CURVE SMOOTH",
"468 0 LINE"
);
},
{
closed = 1;
nodes = (
"117 0 LINE",
"117 418 LINE",
"116 423 LINE",
"116 530 LINE",
"97 530 LINE",
"97 0 LINE"
);
}
);
width = 585;
},
{
anchors = (
{
name = bottom;
position = "{296, 0}";
},
{
name = top;
position = "{296, 530}";
}
);
hints = (
{
horizontal = 1;
origin = "{1, 5}";
target = up;
type = BottomGhost;
},
{
horizontal = 1;
origin = "{0, 4}";
target = down;
type = TopGhost;
},
{
horizontal = 1;
origin = "{1, 4}";
target = down;
type = TopGhost;
},
{
horizontal = 1;
origin = "{1, 4}";
target = "{0, 11}";
type = Stem;
},
{
place = "{51, 188}";
type = Stem;
},
{
place = "{353, 188}";
type = Stem;
}
);
layerId = "CDA8F3AC-A9A8-4005-B9E6-B6E3BABC1C09";
paths = (
{
closed = 1;
nodes = (
"541 0 LINE",
"541 343 LINE SMOOTH",
"541 474 OFFCURVE",
"467 540 OFFCURVE",
"370 540 CURVE SMOOTH",
"317 540 OFFCURVE",
"261 521 OFFCURVE",
"216 454 CURVE",
"215 301 LINE",
"238 349 OFFCURVE",
"267 381 OFFCURVE",
"305 381 CURVE SMOOTH",
"343 381 OFFCURVE",
"353 345 OFFCURVE",
"353 295 CURVE SMOOTH",
"353 0 LINE"
);
},
{
closed = 1;
nodes = (
"239 0 LINE",
"239 427 LINE",
"230 432 LINE",
"221 530 LINE",
"51 530 LINE",
"51 0 LINE"
);
}
);
width = 591;
}
);
unicode = 006E;
},
{
color = 10;
glyphname = eng;
lastChange = "2019-06-11 21:29:46 +0000";
layers = (
{
anchors = (
{
name = bottom;
position = "{293, 0}";
},
{
name = top;
position = "{293, 530}";
}
);
hints = (
{
horizontal = 1;
origin = "{0, 5}";
target = up;
type = BottomGhost;
},
{
horizontal = 1;
origin = "{1, 30}";
target = down;
type = TopGhost;
},
{
horizontal = 1;
origin = "{0, 4}";
target = down;
type = TopGhost;
},
{
horizontal = 1;
origin = "{0, 4}";
target = "{1, 6}";
type = Stem;
},
{
place = "{97, 20}";
type = Stem;
},
{
place = "{468, 20}";
type = Stem;
}
);
layerId = "444456EC-4579-471A-B2C3-7F5DF9BBCA9A";
paths = (
{
closed = 1;
nodes = (
"117 0 LINE",
"117 418 LINE",
"116 423 LINE",
"116 530 LINE",
"97 530 LINE",
"97 0 LINE"
);
},
{
closed = 1;
nodes = (
"241 540 OFFCURVE",
"167 511 OFFCURVE",
"108 415 CURVE",
"113 399 LINE",
"164 482 OFFCURVE",
"228 520 OFFCURVE",
"307 520 CURVE SMOOTH",
"410 520 OFFCURVE",
"468 455 OFFCURVE",
"468 343 CURVE SMOOTH",
"468 -58 LINE SMOOTH",
"468 -99 OFFCURVE",
"468 -132 OFFCURVE",
"451 -152 CURVE SMOOTH",
"433 -173 OFFCURVE",
"402 -172 OFFCURVE",
"379 -172 CURVE",
"379 -190 LINE",
"383 -190 OFFCURVE",
"388 -190 OFFCURVE",
"393 -190 CURVE SMOOTH",
"429 -190 OFFCURVE",
"452 -181 OFFCURVE",
"466 -165 CURVE SMOOTH",
"489 -141 OFFCURVE",
"488 -102 OFFCURVE",
"488 -59 CURVE SMOOTH",
"488 346 LINE SMOOTH",
"488 454 OFFCURVE",
"435 540 OFFCURVE",
"310 540 CURVE SMOOTH"
);
}
);
width = 585;
},
{
anchors = (
{
name = bottom;
position = "{296, 0}";
},
{
name = top;
position = "{296, 530}";
}
);
hints = (
{
horizontal = 1;
origin = "{0, 5}";
target = up;
type = BottomGhost;
},
{
horizontal = 1;
origin = "{1, 30}";
target = down;
type = TopGhost;
},
{
horizontal = 1;
origin = "{0, 4}";
target = down;
type = TopGhost;
},
{
horizontal = 1;
origin = "{0, 4}";
target = "{1, 6}";
type = Stem;
},
{
place = "{51, 188}";
type = Stem;
},
{
place = "{353, 188}";
type = Stem;
}
);
layerId = "CDA8F3AC-A9A8-4005-B9E6-B6E3BABC1C09";
paths = (
{
closed = 1;
nodes = (
"239 0 LINE",
"239 427 LINE",
"230 432 LINE",
"221 530 LINE",
"51 530 LINE",
"51 0 LINE"
);
},
{
closed = 1;
nodes = (
"317 540 OFFCURVE",
"261 521 OFFCURVE",
"216 454 CURVE",
"215 301 LINE",
"238 349 OFFCURVE",
"267 381 OFFCURVE",
"305 381 CURVE SMOOTH",
"343 381 OFFCURVE",
"353 345 OFFCURVE",
"353 295 CURVE SMOOTH",
"353 -6 LINE SMOOTH",
"353 -28 OFFCURVE",
"349 -42 OFFCURVE",
"342 -51 CURVE SMOOTH",
"330 -64 OFFCURVE",
"310 -63 OFFCURVE",
"293 -61 CURVE",
"293 -189 LINE",
"308 -190 OFFCURVE",
"351 -191 OFFCURVE",
"376 -191 CURVE SMOOTH",
"446 -191 OFFCURVE",
"489 -177 OFFCURVE",
"512 -144 CURVE SMOOTH",
"533 -115 OFFCURVE",
"541 -75 OFFCURVE",
"541 -19 CURVE SMOOTH",
"541 343 LINE SMOOTH",
"541 474 OFFCURVE",
"467 540 OFFCURVE",
"370 540 CURVE SMOOTH"
);
}
);
width = 591;
}
);
unicode = 014B;
},
{
color = 10;
glyphname = o;
lastChange = "2019-06-11 21:29:46 +0000";
layers = (
{
anchors = (
{
name = bottom;
position = "{255, 0}";
},
{
name = center;
position = "{255, 265}";
},
{
name = ogonek;
position = "{449, 10}";
},
{
name = top;
position = "{255, 530}";
},
{
name = topright;
position = "{478, 530}";
}
);
hints = (
{
horizontal = 1;
origin = "{0, 25}";
target = up;
type = BottomGhost;
},
{
horizontal = 1;
origin = "{0, 12}";
target = "{1, 9}";
type = Stem;
},
{
horizontal = 1;
origin = "{0, 25}";
target = "{1, 25}";
type = Stem;
},
{
place = "{49, 20}";
type = Stem;
},
{
place = "{441, 20}";
type = Stem;
}
);
layerId = "444456EC-4579-471A-B2C3-7F5DF9BBCA9A";
paths = (
{
closed = 1;
nodes = (
"322 -10 OFFCURVE",
"371 9 OFFCURVE",
"403 43 CURVE SMOOTH",
"447 88 OFFCURVE",
"461 158 OFFCURVE",
"461 238 CURVE SMOOTH",
"461 292 LINE SMOOTH",
"461 372 OFFCURVE",
"447 442 OFFCURVE",
"403 487 CURVE SMOOTH",
"371 521 OFFCURVE",
"322 540 OFFCURVE",
"255 540 CURVE SMOOTH",
"188 540 OFFCURVE",
"139 521 OFFCURVE",
"107 487 CURVE SMOOTH",
"64 442 OFFCURVE",
"49 372 OFFCURVE",
"49 292 CURVE SMOOTH",
"49 238 LINE SMOOTH",
"49 158 OFFCURVE",
"64 88 OFFCURVE",
"107 43 CURVE SMOOTH",
"139 9 OFFCURVE",
"188 -10 OFFCURVE",
"255 -10 CURVE SMOOTH"
);
},
{
closed = 1;
nodes = (
"196 9 OFFCURVE",
"152 25 OFFCURVE",
"121 57 CURVE SMOOTH",
"86 94 OFFCURVE",
"69 155 OFFCURVE",
"69 238 CURVE SMOOTH",
"69 292 LINE SMOOTH",
"69 375 OFFCURVE",
"86 436 OFFCURVE",
"121 473 CURVE SMOOTH",
"152 505 OFFCURVE",
"196 521 OFFCURVE",
"255 521 CURVE SMOOTH",
"314 521 OFFCURVE",
"358 505 OFFCURVE",
"389 473 CURVE SMOOTH",
"424 436 OFFCURVE",
"441 375 OFFCURVE",
"441 292 CURVE SMOOTH",
"441 238 LINE SMOOTH",
"441 155 OFFCURVE",
"424 94 OFFCURVE",
"389 57 CURVE SMOOTH",
"358 25 OFFCURVE",
"314 9 OFFCURVE",
"255 9 CURVE SMOOTH"
);
}
);
width = 510;
},
{
anchors = (
{
name = bottom;
position = "{282, 0}";
},
{
name = center;
position = "{282, 265}";
},
{
name = ogonek;
position = "{505, 10}";
},
{
name = top;
position = "{282, 530}";
},
{
name = topright;
position = "{541, 530}";
}
);
hints = (
{
horizontal = 1;
origin = "{0, 25}";
target = up;
type = BottomGhost;
},
{
horizontal = 1;
origin = "{0, 12}";
target = "{1, 9}";
type = Stem;
},
{
horizontal = 1;
origin = "{0, 25}";
target = "{1, 25}";
type = Stem;
},
{
place = "{34, 192}";
type = Stem;
},
{
place = "{339, 192}";
type = Stem;
}
);
layerId = "CDA8F3AC-A9A8-4005-B9E6-B6E3BABC1C09";
paths = (
{
closed = 1;
nodes = (
"362 -10 OFFCURVE",
"422 11 OFFCURVE",
"463 51 CURVE SMOOTH",
"509 95 OFFCURVE",
"530 162 OFFCURVE",
"530 245 CURVE SMOOTH",
"530 285 LINE SMOOTH",
"530 368 OFFCURVE",
"508 435 OFFCURVE",
"463 479 CURVE SMOOTH",
"422 519 OFFCURVE",
"362 540 OFFCURVE",
"282 540 CURVE SMOOTH",
"202 540 OFFCURVE",
"140 519 OFFCURVE",
"101 479 CURVE SMOOTH",
"56 435 OFFCURVE",
"34 368 OFFCURVE",
"34 285 CURVE SMOOTH",
"34 245 LINE SMOOTH",
"34 162 OFFCURVE",
"54 95 OFFCURVE",
"101 51 CURVE SMOOTH",
"142 11 OFFCURVE",
"202 -10 OFFCURVE",
"282 -10 CURVE SMOOTH"
);
},
{
closed = 1;
nodes = (
"263 141 OFFCURVE",
"250 148 OFFCURVE",
"241 161 CURVE SMOOTH",
"228 179 OFFCURVE",
"226 208 OFFCURVE",
"226 245 CURVE SMOOTH",
"226 285 LINE SMOOTH",
"226 322 OFFCURVE",
"228 351 OFFCURVE",
"241 369 CURVE SMOOTH",
"250 382 OFFCURVE",
"263 389 OFFCURVE",
"282 389 CURVE SMOOTH",
"301 389 OFFCURVE",
"314 382 OFFCURVE",
"323 369 CURVE SMOOTH",
"336 351 OFFCURVE",
"339 322 OFFCURVE",
"339 285 CURVE SMOOTH",
"339 245 LINE SMOOTH",
"339 208 OFFCURVE",
"335 179 OFFCURVE",
"323 161 CURVE SMOOTH",
"314 148 OFFCURVE",
"301 141 OFFCURVE",
"282 141 CURVE SMOOTH"
);
}
);
width = 564;
}
);
unicode = 006F;
},
{
color = 10;
glyphname = oslash;
lastChange = "2019-06-11 21:29:46 +0000";
layers = (
{
hints = (
{
horizontal = 1;
origin = "{0, 25}";
target = up;
type = BottomGhost;
},
{
horizontal = 1;
origin = "{0, 12}";
target = down;
type = TopGhost;
},
{
horizontal = 1;
origin = "{0, 25}";
target = "{1, 25}";
type = Stem;
},
{
horizontal = 1;
origin = "{0, 12}";
target = "{1, 12}";
type = Stem;
},
{
place = "{49, 20}";
type = Stem;
},
{
place = "{441, 20}";
type = Stem;
}
);
layerId = "444456EC-4579-471A-B2C3-7F5DF9BBCA9A";
paths = (
{
closed = 1;
nodes = (
"322 -10 OFFCURVE",
"371 9 OFFCURVE",
"403 43 CURVE SMOOTH",
"447 88 OFFCURVE",
"461 158 OFFCURVE",
"461 238 CURVE SMOOTH",
"461 292 LINE SMOOTH",
"461 372 OFFCURVE",
"447 442 OFFCURVE",
"403 487 CURVE SMOOTH",
"371 521 OFFCURVE",
"322 540 OFFCURVE",
"255 540 CURVE SMOOTH",
"188 540 OFFCURVE",
"139 521 OFFCURVE",
"107 487 CURVE SMOOTH",
"64 442 OFFCURVE",
"49 372 OFFCURVE",
"49 292 CURVE SMOOTH",
"49 238 LINE SMOOTH",
"49 158 OFFCURVE",
"64 88 OFFCURVE",
"107 43 CURVE SMOOTH",
"139 9 OFFCURVE",
"188 -10 OFFCURVE",
"255 -10 CURVE SMOOTH"
);
},
{
closed = 1;
nodes = (
"196 9 OFFCURVE",
"152 25 OFFCURVE",
"121 57 CURVE SMOOTH",
"86 94 OFFCURVE",
"69 155 OFFCURVE",
"69 238 CURVE SMOOTH",
"69 292 LINE SMOOTH",
"69 375 OFFCURVE",
"86 436 OFFCURVE",
"121 473 CURVE SMOOTH",
"152 505 OFFCURVE",
"196 521 OFFCURVE",
"255 521 CURVE SMOOTH",
"314 521 OFFCURVE",
"358 505 OFFCURVE",
"389 473 CURVE SMOOTH",
"424 436 OFFCURVE",
"441 375 OFFCURVE",
"441 292 CURVE SMOOTH",
"441 238 LINE SMOOTH",
"441 155 OFFCURVE",
"424 94 OFFCURVE",
"389 57 CURVE SMOOTH",
"358 25 OFFCURVE",
"314 9 OFFCURVE",
"255 9 CURVE SMOOTH"
);
},
{
closed = 1;
nodes = (
"88 -40 LINE",
"105 -40 LINE",
"423 570 LINE",
"405 570 LINE"
);
}
);
width = 510;
},
{
hints = (
{
horizontal = 1;
origin = "{0, 25}";
target = up;
type = BottomGhost;
},
{
horizontal = 1;
origin = "{0, 12}";
target = down;
type = TopGhost;
},
{
horizontal = 1;
origin = "{0, 25}";
target = "{1, 25}";
type = Stem;
},
{
horizontal = 1;
origin = "{0, 12}";
target = "{1, 12}";
type = Stem;
},
{
place = "{34, 185}";
type = Stem;
},
{
place = "{346, 185}";
type = Stem;
}
);
layerId = "CDA8F3AC-A9A8-4005-B9E6-B6E3BABC1C09";
paths = (
{
closed = 1;
nodes = (
"362 -10 OFFCURVE",
"422 11 OFFCURVE",
"463 51 CURVE SMOOTH",
"509 95 OFFCURVE",
"530 162 OFFCURVE",
"530 245 CURVE SMOOTH",
"530 285 LINE SMOOTH",
"530 368 OFFCURVE",
"508 435 OFFCURVE",
"463 479 CURVE SMOOTH",
"422 519 OFFCURVE",
"362 540 OFFCURVE",
"282 540 CURVE SMOOTH",
"202 540 OFFCURVE",
"140 519 OFFCURVE",
"101 479 CURVE SMOOTH",
"56 435 OFFCURVE",
"34 368 OFFCURVE",
"34 285 CURVE SMOOTH",
"34 245 LINE SMOOTH",
"34 162 OFFCURVE",
"54 95 OFFCURVE",
"101 51 CURVE SMOOTH",
"142 11 OFFCURVE",
"202 -10 OFFCURVE",
"282 -10 CURVE SMOOTH"
);
},
{
closed = 1;
nodes = (
"259 134 OFFCURVE",
"243 144 OFFCURVE",
"234 157 CURVE SMOOTH",
"221 175 OFFCURVE",
"219 208 OFFCURVE",
"219 245 CURVE SMOOTH",
"219 285 LINE SMOOTH",
"219 322 OFFCURVE",
"221 355 OFFCURVE",
"234 373 CURVE SMOOTH",
"243 386 OFFCURVE",
"259 396 OFFCURVE",
"282 396 CURVE SMOOTH",
"305 396 OFFCURVE",
"321 386 OFFCURVE",
"330 373 CURVE SMOOTH",
"343 355 OFFCURVE",
"346 322 OFFCURVE",
"346 285 CURVE SMOOTH",
"346 245 LINE SMOOTH",
"346 208 OFFCURVE",
"341 175 OFFCURVE",
"330 157 CURVE SMOOTH",
"321 144 OFFCURVE",
"305 134 OFFCURVE",
"282 134 CURVE SMOOTH"
);
},
{
closed = 1;
nodes = (
"65 -40 LINE",
"149 -40 LINE",
"499 570 LINE",
"415 570 LINE"
);
}
);
width = 564;
}
);
leftMetricsKey = o;
rightMetricsKey = o;
unicode = 00F8;
},
{
color = 10;
glyphname = oe;
lastChange = "2019-06-11 21:29:46 +0000";
layers = (
{
hints = (
{
horizontal = 1;
origin = "{0, 25}";
target = "{1, 2}";
type = Stem;
},
{
horizontal = 1;
origin = "{1, 5}";
target = "{2, 34}";
type = Stem;
},
{
horizontal = 1;
origin = "{0, 12}";
target = "{2, 22}";
type = Stem;
},
{
horizontal = 1;
origin = "{0, 12}";
target = "{1, 9}";
type = Stem;
},
{
place = "{18, 10}";
type = Stem;
},
{
place = "{113, 20}";
type = Stem;
},
{
place = "{481, 2000}";
type = Stem;
}
);
layerId = "444456EC-4579-471A-B2C3-7F5DF9BBCA9A";
paths = (
{
closed = 1;
nodes = (
"322 -10 OFFCURVE",
"371 9 OFFCURVE",
"403 43 CURVE SMOOTH",
"447 88 OFFCURVE",
"461 158 OFFCURVE",
"461 238 CURVE SMOOTH",
"461 292 LINE SMOOTH",
"461 372 OFFCURVE",
"447 442 OFFCURVE",
"403 487 CURVE SMOOTH",
"371 521 OFFCURVE",
"322 540 OFFCURVE",
"255 540 CURVE SMOOTH",
"188 540 OFFCURVE",
"139 521 OFFCURVE",
"107 487 CURVE SMOOTH",
"64 442 OFFCURVE",
"49 372 OFFCURVE",
"49 292 CURVE SMOOTH",
"49 238 LINE SMOOTH",
"49 158 OFFCURVE",
"64 88 OFFCURVE",
"107 43 CURVE SMOOTH",
"139 9 OFFCURVE",
"188 -10 OFFCURVE",
"255 -10 CURVE SMOOTH"
);
},
{
closed = 1;
nodes = (
"196 9 OFFCURVE",
"152 25 OFFCURVE",
"121 57 CURVE SMOOTH",
"86 94 OFFCURVE",
"69 155 OFFCURVE",
"69 238 CURVE SMOOTH",
"69 292 LINE SMOOTH",
"69 375 OFFCURVE",
"86 436 OFFCURVE",
"121 473 CURVE SMOOTH",
"152 505 OFFCURVE",
"196 521 OFFCURVE",
"255 521 CURVE SMOOTH",
"314 521 OFFCURVE",
"358 505 OFFCURVE",
"389 473 CURVE SMOOTH",
"424 436 OFFCURVE",
"441 375 OFFCURVE",
"441 292 CURVE SMOOTH",
"441 238 LINE SMOOTH",
"441 155 OFFCURVE",
"424 94 OFFCURVE",
"389 57 CURVE SMOOTH",
"358 25 OFFCURVE",
"314 9 OFFCURVE",
"255 9 CURVE SMOOTH"
);
},
{
closed = 1;
nodes = (
"715 -10 OFFCURVE",
"762 9 OFFCURVE",
"795 43 CURVE SMOOTH",
"811 59 OFFCURVE",
"823 79 OFFCURVE",
"832 102 CURVE",
"814 112 LINE",
"806 89 OFFCURVE",
"795 71 OFFCURVE",
"781 57 CURVE SMOOTH",
"749 25 OFFCURVE",
"706 9 OFFCURVE",
"647 9 CURVE SMOOTH",
"588 9 OFFCURVE",
"544 25 OFFCURVE",
"513 57 CURVE SMOOTH",
"478 94 OFFCURVE",
"461 155 OFFCURVE",
"461 238 CURVE SMOOTH",
"461 292 LINE",
"461 375 OFFCURVE",
"478 436 OFFCURVE",
"513 473 CURVE SMOOTH",
"544 505 OFFCURVE",
"588 521 OFFCURVE",
"647 521 CURVE SMOOTH",
"706 521 OFFCURVE",
"750 505 OFFCURVE",
"781 473 CURVE SMOOTH",
"816 436 OFFCURVE",
"833 375 OFFCURVE",
"833 292 CURVE",
"833 262 LINE",
"840 274 LINE",
"454 274 LINE",
"452 256 LINE",
"853 256 LINE",
"853 292 LINE SMOOTH",
"853 372 OFFCURVE",
"839 442 OFFCURVE",
"795 487 CURVE SMOOTH",
"762 521 OFFCURVE",
"714 540 OFFCURVE",
"647 540 CURVE SMOOTH",
"580 540 OFFCURVE",
"531 521 OFFCURVE",
"499 487 CURVE SMOOTH",
"456 442 OFFCURVE",
"441 372 OFFCURVE",
"441 292 CURVE SMOOTH",
"441 238 LINE SMOOTH",
"441 158 OFFCURVE",
"456 88 OFFCURVE",
"499 43 CURVE SMOOTH",
"532 9 OFFCURVE",
"580 -10 OFFCURVE",
"647 -10 CURVE SMOOTH"
);
}
);
width = 902;
},
{
hints = (
{
horizontal = 1;
origin = "{0, 25}";
target = "{1, 2}";
type = Stem;
},
{
horizontal = 1;
origin = "{1, 5}";
target = "{2, 34}";
type = Stem;
},
{
horizontal = 1;
origin = "{0, 12}";
target = "{2, 22}";
type = Stem;
},
{
horizontal = 1;
origin = "{0, 12}";
target = "{1, 9}";
type = Stem;
},
{
place = "{9, 41}";
type = Stem;
},
{
place = "{103, 192}";
type = Stem;
},
{
place = "{406, 297}";
type = Stem;
}
);
layerId = "CDA8F3AC-A9A8-4005-B9E6-B6E3BABC1C09";
paths = (
{
closed = 1;
nodes = (
"362 -10 OFFCURVE",
"422 11 OFFCURVE",
"463 51 CURVE SMOOTH",
"509 95 OFFCURVE",
"521 162 OFFCURVE",
"521 245 CURVE SMOOTH",
"521 285 LINE SMOOTH",
"521 368 OFFCURVE",
"508 435 OFFCURVE",
"463 479 CURVE SMOOTH",
"422 519 OFFCURVE",
"362 540 OFFCURVE",
"282 540 CURVE SMOOTH",
"202 540 OFFCURVE",
"140 519 OFFCURVE",
"101 479 CURVE SMOOTH",
"56 435 OFFCURVE",
"34 368 OFFCURVE",
"34 285 CURVE SMOOTH",
"34 245 LINE SMOOTH",
"34 162 OFFCURVE",
"54 95 OFFCURVE",
"101 51 CURVE SMOOTH",
"142 11 OFFCURVE",
"202 -10 OFFCURVE",
"282 -10 CURVE SMOOTH"
);
},
{
closed = 1;
nodes = (
"263 141 OFFCURVE",
"250 148 OFFCURVE",
"241 161 CURVE SMOOTH",
"228 179 OFFCURVE",
"226 208 OFFCURVE",
"226 245 CURVE SMOOTH",
"226 285 LINE SMOOTH",
"226 322 OFFCURVE",
"228 351 OFFCURVE",
"241 369 CURVE SMOOTH",
"250 382 OFFCURVE",
"263 389 OFFCURVE",
"282 389 CURVE SMOOTH",
"301 389 OFFCURVE",
"314 382 OFFCURVE",
"323 369 CURVE SMOOTH",
"336 351 OFFCURVE",
"339 322 OFFCURVE",
"339 285 CURVE SMOOTH",
"339 245 LINE SMOOTH",
"339 208 OFFCURVE",
"335 179 OFFCURVE",
"323 161 CURVE SMOOTH",
"314 148 OFFCURVE",
"301 141 OFFCURVE",
"282 141 CURVE SMOOTH"
);
},
{
closed = 1;
nodes = (
"678 -10 OFFCURVE",
"737 12 OFFCURVE",
"778 51 CURVE SMOOTH",
"797 69 OFFCURVE",
"812 91 OFFCURVE",
"823 119 CURVE",
"650 193 LINE",
"647 181 OFFCURVE",
"644 170 OFFCURVE",
"637 160 CURVE SMOOTH",
"626 145 OFFCURVE",
"608 141 OFFCURVE",
"592 141 CURVE SMOOTH",
"572 141 OFFCURVE",
"554 148 OFFCURVE",
"545 161 CURVE SMOOTH",
"532 179 OFFCURVE",
"530 215 OFFCURVE",
"530 245 CURVE SMOOTH",
"530 291 LINE",
"526 327 OFFCURVE",
"533 363 OFFCURVE",
"545 381 CURVE SMOOTH",
"554 394 OFFCURVE",
"567 402 OFFCURVE",
"587 402 CURVE SMOOTH",
"605 402 OFFCURVE",
"618 394 OFFCURVE",
"627 381 CURVE SMOOTH",
"640 363 OFFCURVE",
"647 327 OFFCURVE",
"643 285 CURVE",
"643 251 LINE",
"684 314 LINE",
"439 314 LINE",
"439 230 LINE",
"835 230 LINE",
"835 285 LINE SMOOTH",
"835 368 OFFCURVE",
"813 435 OFFCURVE",
"767 479 CURVE SMOOTH",
"727 519 OFFCURVE",
"667 540 OFFCURVE",
"587 540 CURVE SMOOTH",
"506 540 OFFCURVE",
"446 519 OFFCURVE",
"405 479 CURVE SMOOTH",
"360 435 OFFCURVE",
"348 368 OFFCURVE",
"348 285 CURVE SMOOTH",
"348 245 LINE SMOOTH",
"348 162 OFFCURVE",
"360 95 OFFCURVE",
"405 51 CURVE SMOOTH",
"443 13 OFFCURVE",
"503 -10 OFFCURVE",
"592 -10 CURVE SMOOTH"
);
}
);
width = 869;
}
);
leftMetricsKey = o;
rightMetricsKey = e;
unicode = 0153;
},
{
color = 10;
glyphname = p;
lastChange = "2019-06-11 21:29:46 +0000";
layers = (
{
hints = (
{
horizontal = 1;
origin = "{1, 9}";
target = up;
type = BottomGhost;
},
{
horizontal = 1;
origin = "{0, 39}";
target = up;
type = BottomGhost;
},
{
horizontal = 1;
origin = "{0, 12}";
target = down;
type = TopGhost;
},
{
horizontal = 1;
origin = "{1, 6}";
target = down;
type = TopGhost;
},
{
horizontal = 1;
origin = "{1, 6}";
target = "{0, 19}";
type = Stem;
},
{
place = "{463, 20}";
type = Stem;
},
{
place = "{-7, 2000}";
type = Stem;
}
);
layerId = "444456EC-4579-471A-B2C3-7F5DF9BBCA9A";
paths = (
{
closed = 1;
nodes = (
"363 -10 OFFCURVE",
"404 8 OFFCURVE",
"432 40 CURVE SMOOTH",
"468 81 OFFCURVE",
"485 145 OFFCURVE",
"485 229 CURVE SMOOTH",
"485 301 LINE SMOOTH",
"485 385 OFFCURVE",
"468 449 OFFCURVE",
"432 490 CURVE SMOOTH",
"404 522 OFFCURVE",
"363 540 OFFCURVE",
"310 540 CURVE SMOOTH",
"241 540 OFFCURVE",
"165 507 OFFCURVE",
"108 414 CURVE",
"114 398 LINE",
"163 478 OFFCURVE",
"230 520 OFFCURVE",
"306 520 CURVE SMOOTH",
"355 520 OFFCURVE",
"392 504 OFFCURVE",
"417 475 CURVE SMOOTH",
"450 437 OFFCURVE",
"465 377 OFFCURVE",
"465 300 CURVE SMOOTH",
"465 230 LINE SMOOTH",
"465 153 OFFCURVE",
"450 93 OFFCURVE",
"417 55 CURVE SMOOTH",
"392 26 OFFCURVE",
"355 10 OFFCURVE",
"306 10 CURVE SMOOTH",
"230 10 OFFCURVE",
"163 52 OFFCURVE",
"114 132 CURVE",
"108 116 LINE",
"165 23 OFFCURVE",
"241 -10 OFFCURVE",
"310 -10 CURVE SMOOTH"
);
},
{
closed = 1;
nodes = (
"117 -190 LINE",
"117 0 LINE",
"117 109 LINE",
"117 119 LINE",
"117 415 LINE",
"116 419 LINE",
"103 531 LINE",
"83 530 LINE",
"97 412 LINE",
"97 -190 LINE"
);
}
);
width = 534;
},
{
hints = (
{
horizontal = 1;
origin = "{1, 9}";
target = up;
type = BottomGhost;
},
{
horizontal = 1;
origin = "{0, 39}";
target = up;
type = BottomGhost;
},
{
horizontal = 1;
origin = "{0, 12}";
target = down;
type = TopGhost;
},
{
horizontal = 1;
origin = "{1, 6}";
target = down;
type = TopGhost;
},
{
horizontal = 1;
origin = "{1, 6}";
target = "{0, 19}";
type = Stem;
},
{
place = "{61, 294}";
type = Stem;
},
{
place = "{330, 2000}";
type = Stem;
}
);
layerId = "CDA8F3AC-A9A8-4005-B9E6-B6E3BABC1C09";
paths = (
{
closed = 1;
nodes = (
"416 -10 OFFCURVE",
"459 7 OFFCURVE",
"491 46 CURVE SMOOTH",
"525 87 OFFCURVE",
"541 149 OFFCURVE",
"541 228 CURVE SMOOTH",
"541 302 LINE SMOOTH",
"541 381 OFFCURVE",
"525 443 OFFCURVE",
"491 484 CURVE SMOOTH",
"459 523 OFFCURVE",
"416 540 OFFCURVE",
"365 540 CURVE SMOOTH",
"311 540 OFFCURVE",
"257 519 OFFCURVE",
"215 450 CURVE",
"217 299 LINE",
"238 343 OFFCURVE",
"268 375 OFFCURVE",
"302 375 CURVE SMOOTH",
"316 375 OFFCURVE",
"328 368 OFFCURVE",
"336 356 CURVE SMOOTH",
"347 338 OFFCURVE",
"350 313 OFFCURVE",
"350 286 CURVE SMOOTH",
"350 244 LINE SMOOTH",
"350 217 OFFCURVE",
"347 192 OFFCURVE",
"336 174 CURVE SMOOTH",
"328 162 OFFCURVE",
"316 155 OFFCURVE",
"302 155 CURVE SMOOTH",
"268 155 OFFCURVE",
"238 187 OFFCURVE",
"217 231 CURVE",
"215 80 LINE",
"257 11 OFFCURVE",
"311 -10 OFFCURVE",
"365 -10 CURVE SMOOTH"
);
},
{
closed = 1;
nodes = (
"239 -190 LINE",
"239 0 LINE",
"230 96 LINE",
"239 112 LINE",
"239 427 LINE",
"230 432 LINE",
"217 533 LINE",
"37 530 LINE",
"51 403 LINE",
"51 -190 LINE"
);
}
);
width = 575;
}
);
rightMetricsKey = o;
unicode = 0070;
},
{
color = 10;
glyphname = thorn;
lastChange = "2019-06-11 21:29:46 +0000";
layers = (
{
hints = (
{
horizontal = 1;
origin = "{1, 9}";
target = up;
type = BottomGhost;
},
{
horizontal = 1;
origin = "{0, 39}";
target = up;
type = BottomGhost;
},
{
horizontal = 1;
origin = "{0, 12}";
target = down;
type = TopGhost;
},
{
horizontal = 1;
origin = "{1, 8}";
target = down;
type = TopGhost;
},
{
place = "{-10, 2000}";
type = Stem;
},
{
place = "{538, 2000}";
type = Stem;
}
);
layerId = "444456EC-4579-471A-B2C3-7F5DF9BBCA9A";
paths = (
{
closed = 1;
nodes = (
"363 -10 OFFCURVE",
"404 8 OFFCURVE",
"431 40 CURVE SMOOTH",
"468 81 OFFCURVE",
"484 145 OFFCURVE",
"484 229 CURVE SMOOTH",
"484 301 LINE SMOOTH",
"484 385 OFFCURVE",
"468 449 OFFCURVE",
"431 490 CURVE SMOOTH",
"404 522 OFFCURVE",
"363 540 OFFCURVE",
"310 540 CURVE SMOOTH",
"241 540 OFFCURVE",
"165 507 OFFCURVE",
"108 414 CURVE",
"114 398 LINE",
"163 478 OFFCURVE",
"230 520 OFFCURVE",
"306 520 CURVE SMOOTH",
"355 520 OFFCURVE",
"391 504 OFFCURVE",
"417 475 CURVE SMOOTH",
"450 437 OFFCURVE",
"464 377 OFFCURVE",
"464 300 CURVE SMOOTH",
"464 230 LINE SMOOTH",
"464 153 OFFCURVE",
"450 93 OFFCURVE",
"417 55 CURVE SMOOTH",
"391 26 OFFCURVE",
"355 10 OFFCURVE",
"306 10 CURVE SMOOTH",
"230 10 OFFCURVE",
"163 52 OFFCURVE",
"114 132 CURVE",
"108 116 LINE",
"165 23 OFFCURVE",
"241 -10 OFFCURVE",
"310 -10 CURVE SMOOTH"
);
},
{
closed = 1;
nodes = (
"117 -190 LINE",
"117 0 LINE",
"116 109 LINE",
"117 119 LINE",
"117 415 LINE",
"116 421 LINE",
"117 530 LINE",
"117 734 LINE",
"97 734 LINE",
"97 -190 LINE"
);
}
);
width = 533;
},
{
hints = (
{
horizontal = 1;
origin = "{1, 9}";
target = up;
type = BottomGhost;
},
{
horizontal = 1;
origin = "{0, 39}";
target = up;
type = BottomGhost;
},
{
horizontal = 1;
origin = "{0, 12}";
target = down;
type = TopGhost;
},
{
horizontal = 1;
origin = "{1, 8}";
target = down;
type = TopGhost;
},
{
place = "{42, 2000}";
type = Stem;
},
{
place = "{360, 2000}";
type = Stem;
}
);
layerId = "CDA8F3AC-A9A8-4005-B9E6-B6E3BABC1C09";
paths = (
{
closed = 1;
nodes = (
"416 -10 OFFCURVE",
"459 7 OFFCURVE",
"491 46 CURVE SMOOTH",
"525 87 OFFCURVE",
"541 149 OFFCURVE",
"541 228 CURVE SMOOTH",
"541 302 LINE SMOOTH",
"541 381 OFFCURVE",
"525 443 OFFCURVE",
"491 484 CURVE SMOOTH",
"459 523 OFFCURVE",
"416 540 OFFCURVE",
"365 540 CURVE SMOOTH",
"311 540 OFFCURVE",
"257 519 OFFCURVE",
"215 450 CURVE",
"217 299 LINE",
"238 343 OFFCURVE",
"268 375 OFFCURVE",
"302 375 CURVE SMOOTH",
"316 375 OFFCURVE",
"328 368 OFFCURVE",
"336 356 CURVE SMOOTH",
"347 338 OFFCURVE",
"350 313 OFFCURVE",
"350 286 CURVE SMOOTH",
"350 244 LINE SMOOTH",
"350 217 OFFCURVE",
"347 192 OFFCURVE",
"336 174 CURVE SMOOTH",
"328 162 OFFCURVE",
"316 155 OFFCURVE",
"302 155 CURVE SMOOTH",
"268 155 OFFCURVE",
"238 187 OFFCURVE",
"217 231 CURVE",
"215 80 LINE",
"257 11 OFFCURVE",
"311 -10 OFFCURVE",
"365 -10 CURVE SMOOTH"
);
},
{
closed = 1;
nodes = (
"239 -190 LINE",
"239 0 LINE",
"230 96 LINE",
"239 112 LINE",
"239 427 LINE",
"230 434 LINE",
"239 530 LINE",
"239 734 LINE",
"51 734 LINE",
"51 -190 LINE"
);
}
);
width = 575;
}
);
leftMetricsKey = h;
rightMetricsKey = o;
unicode = 00FE;
},
{
color = 10;
glyphname = q;
lastChange = "2019-06-11 21:30:27 +0000";
layers = (
{
hints = (
{
horizontal = 1;
origin = "{1, 9}";
target = up;
type = BottomGhost;
},
{
horizontal = 1;
origin = "{0, 39}";
target = up;
type = BottomGhost;
},
{
horizontal = 1;
origin = "{1, 3}";
target = down;
type = TopGhost;
},
{
horizontal = 1;
origin = "{0, 26}";
target = down;
type = TopGhost;
},
{
horizontal = 1;
origin = "{1, 3}";
target = "{0, 19}";
type = Stem;
},
{
place = "{414, 20}";
type = Stem;
},
{
place = "{14, 2000}";
type = Stem;
}
);
layerId = "444456EC-4579-471A-B2C3-7F5DF9BBCA9A";
paths = (
{
closed = 1;
nodes = (
"293 -10 OFFCURVE",
"369 23 OFFCURVE",
"426 116 CURVE",
"420 132 LINE",
"370 52 OFFCURVE",
"303 10 OFFCURVE",
"227 10 CURVE SMOOTH",
"179 10 OFFCURVE",
"142 26 OFFCURVE",
"117 55 CURVE SMOOTH",
"83 93 OFFCURVE",
"69 153 OFFCURVE",
"69 230 CURVE SMOOTH",
"69 300 LINE SMOOTH",
"69 377 OFFCURVE",
"83 437 OFFCURVE",
"117 475 CURVE SMOOTH",
"142 504 OFFCURVE",
"179 520 OFFCURVE",
"227 520 CURVE SMOOTH",
"303 520 OFFCURVE",
"370 478 OFFCURVE",
"420 398 CURVE",
"426 414 LINE",
"369 507 OFFCURVE",
"293 540 OFFCURVE",
"224 540 CURVE SMOOTH",
"171 540 OFFCURVE",
"130 522 OFFCURVE",
"102 490 CURVE SMOOTH",
"65 449 OFFCURVE",
"49 385 OFFCURVE",
"49 301 CURVE SMOOTH",
"49 229 LINE SMOOTH",
"49 145 OFFCURVE",
"65 81 OFFCURVE",
"102 40 CURVE SMOOTH",
"130 8 OFFCURVE",
"171 -10 OFFCURVE",
"224 -10 CURVE SMOOTH"
);
},
{
closed = 1;
nodes = (
"437 -190 LINE",
"437 412 LINE",
"451 530 LINE",
"431 531 LINE",
"418 419 LINE",
"417 415 LINE",
"417 119 LINE",
"417 109 LINE",
"417 0 LINE",
"417 -190 LINE"
);
}
);
width = 534;
},
{
hints = (
{
horizontal = 1;
origin = "{1, 9}";
target = up;
type = BottomGhost;
},
{
horizontal = 1;
origin = "{0, 39}";
target = up;
type = BottomGhost;
},
{
horizontal = 1;
origin = "{1, 3}";
target = down;
type = TopGhost;
},
{
horizontal = 1;
origin = "{0, 26}";
target = down;
type = TopGhost;
},
{
horizontal = 1;
origin = "{1, 3}";
target = "{0, 19}";
type = Stem;
},
{
place = "{48, 297}";
type = Stem;
},
{
place = "{319, 2000}";
type = Stem;
}
);
layerId = "CDA8F3AC-A9A8-4005-B9E6-B6E3BABC1C09";
paths = (
{
closed = 1;
nodes = (
"265 -10 OFFCURVE",
"318 11 OFFCURVE",
"361 80 CURVE",
"358 231 LINE",
"337 187 OFFCURVE",
"307 155 OFFCURVE",
"273 155 CURVE SMOOTH",
"259 155 OFFCURVE",
"248 162 OFFCURVE",
"240 174 CURVE SMOOTH",
"229 192 OFFCURVE",
"226 217 OFFCURVE",
"226 244 CURVE SMOOTH",
"226 286 LINE SMOOTH",
"226 313 OFFCURVE",
"229 338 OFFCURVE",
"240 356 CURVE SMOOTH",
"248 368 OFFCURVE",
"259 375 OFFCURVE",
"273 375 CURVE SMOOTH",
"307 375 OFFCURVE",
"337 343 OFFCURVE",
"358 299 CURVE",
"361 450 LINE",
"318 519 OFFCURVE",
"265 540 OFFCURVE",
"210 540 CURVE SMOOTH",
"160 540 OFFCURVE",
"116 523 OFFCURVE",
"84 484 CURVE SMOOTH",
"50 443 OFFCURVE",
"34 381 OFFCURVE",
"34 302 CURVE SMOOTH",
"34 228 LINE SMOOTH",
"34 149 OFFCURVE",
"50 87 OFFCURVE",
"84 46 CURVE SMOOTH",
"116 7 OFFCURVE",
"160 -10 OFFCURVE",
"210 -10 CURVE SMOOTH"
);
},
{
closed = 1;
nodes = (
"525 -190 LINE",
"525 403 LINE",
"538 530 LINE",
"359 533 LINE",
"346 432 LINE",
"337 427 LINE",
"337 112 LINE",
"345 96 LINE",
"337 0 LINE",
"337 -190 LINE"
);
}
);
width = 575;
}
);
leftMetricsKey = o;
unicode = 0071;
},
{
color = 10;
glyphname = r;
lastChange = "2019-06-11 21:30:27 +0000";
layers = (
{
anchors = (
{
name = bottom;
position = "{105, 0}";
},
{
name = top;
position = "{173, 530}";
}
);
hints = (
{
horizontal = 1;
origin = "{0, 5}";
target = up;
type = BottomGhost;
},
{
horizontal = 1;
origin = "{1, 3}";
target = down;
type = TopGhost;
},
{
horizontal = 1;
origin = "{0, 4}";
target = down;
type = TopGhost;
},
{
place = "{536, 2000}";
type = Stem;
}
);
layerId = "444456EC-4579-471A-B2C3-7F5DF9BBCA9A";
paths = (
{
closed = 1;
nodes = (
"117 0 LINE",
"117 390 LINE",
"116 395 LINE",
"116 530 LINE",
"97 530 LINE",
"97 0 LINE"
);
},
{
closed = 1;
nodes = (
"144 482 OFFCURVE",
"201 522 OFFCURVE",
"299 520 CURVE",
"305 540 LINE",
"214 543 OFFCURVE",
"139 511 OFFCURVE",
"108 387 CURVE",
"114 368 LINE"
);
}
);
width = 346;
},
{
anchors = (
{
name = bottom;
position = "{137, 0}";
},
{
name = top;
position = "{224, 530}";
}
);
hints = (
{
horizontal = 1;
origin = "{0, 5}";
target = up;
type = BottomGhost;
},
{
horizontal = 1;
origin = "{1, 3}";
target = down;
type = TopGhost;
},
{
horizontal = 1;
origin = "{0, 4}";
target = down;
type = TopGhost;
},
{
place = "{300, 2000}";
type = Stem;
}
);
layerId = "CDA8F3AC-A9A8-4005-B9E6-B6E3BABC1C09";
paths = (
{
closed = 1;
nodes = (
"239 0 LINE",
"239 418 LINE",
"230 423 LINE",
"221 530 LINE",
"51 530 LINE",
"51 0 LINE"
);
},
{
closed = 1;
nodes = (
"250 353 OFFCURVE",
"300 364 OFFCURVE",
"396 354 CURVE",
"428 540 LINE",
"316 544 OFFCURVE",
"253 521 OFFCURVE",
"215 445 CURVE",
"232 280 LINE"
);
}
);
width = 448;
}
);
leftMetricsKey = n;
unicode = 0072;
},
{
color = 10;
glyphname = s;
lastChange = "2019-06-11 21:30:27 +0000";
layers = (
{
anchors = (
{
name = bottom;
position = "{231, 0}";
},
{
name = top;
position = "{231, 530}";
}
);
hints = (
{
horizontal = 1;
origin = "{0, 65}";
target = up;
type = BottomGhost;
},
{
horizontal = 1;
origin = "{0, 32}";
target = "{0, 16}";
type = Stem;
},
{
horizontal = 1;
origin = "{0, 65}";
target = "{0, 52}";
type = Stem;
},
{
place = "{98, 20}";
type = Stem;
},
{
place = "{391, 20}";
type = Stem;
}
);
layerId = "444456EC-4579-471A-B2C3-7F5DF9BBCA9A";
paths = (
{
closed = 1;
nodes = (
"283 -10 OFFCURVE",
"327 2 OFFCURVE",
"359 26 CURVE SMOOTH",
"392 51 OFFCURVE",
"411 89 OFFCURVE",
"411 136 CURVE SMOOTH",
"411 146 LINE SMOOTH",
"411 246 OFFCURVE",
"320 281 OFFCURVE",
"232 298 CURVE SMOOTH",
"155 315 OFFCURVE",
"90 331 OFFCURVE",
"90 403 CURVE SMOOTH",
"90 413 LINE SMOOTH",
"90 448 OFFCURVE",
"104 477 OFFCURVE",
"130 497 CURVE SMOOTH",
"153 514 OFFCURVE",
"186 524 OFFCURVE",
"227 524 CURVE SMOOTH",
"284 524 OFFCURVE",
"328 509 OFFCURVE",
"358 479 CURVE SMOOTH",
"370 466 OFFCURVE",
"379 451 OFFCURVE",
"385 434 CURVE",
"404 440 LINE",
"396 461 OFFCURVE",
"385 478 OFFCURVE",
"371 492 CURVE SMOOTH",
"338 526 OFFCURVE",
"290 543 OFFCURVE",
"227 543 CURVE SMOOTH",
"183 543 OFFCURVE",
"145 532 OFFCURVE",
"118 511 CURVE SMOOTH",
"87 489 OFFCURVE",
"70 455 OFFCURVE",
"70 413 CURVE SMOOTH",
"70 403 LINE SMOOTH",
"70 317 OFFCURVE",
"146 298 OFFCURVE",
"223 281 CURVE SMOOTH",
"306 265 OFFCURVE",
"391 236 OFFCURVE",
"391 146 CURVE SMOOTH",
"391 136 LINE SMOOTH",
"391 95 OFFCURVE",
"374 63 OFFCURVE",
"345 41 CURVE SMOOTH",
"318 20 OFFCURVE",
"279 9 OFFCURVE",
"230 9 CURVE SMOOTH",
"170 9 OFFCURVE",
"126 25 OFFCURVE",
"95 58 CURVE SMOOTH",
"81 73 OFFCURVE",
"70 93 OFFCURVE",
"61 119 CURVE",
"42 113 LINE",
"53 84 OFFCURVE",
"64 62 OFFCURVE",
"80 45 CURVE SMOOTH",
"115 8 OFFCURVE",
"165 -10 OFFCURVE",
"229 -10 CURVE SMOOTH"
);
}
);
width = 462;
},
{
anchors = (
{
name = bottom;
position = "{266, 0}";
},
{
name = top;
position = "{266, 530}";
}
);
hints = (
{
horizontal = 1;
origin = "{0, 65}";
target = up;
type = BottomGhost;
},
{
horizontal = 1;
origin = "{0, 32}";
target = "{0, 16}";
type = Stem;
},
{
horizontal = 1;
origin = "{0, 65}";
target = "{0, 52}";
type = Stem;
},
{
place = "{39, 180}";
type = Stem;
},
{
place = "{311, 184}";
type = Stem;
}
);
layerId = "CDA8F3AC-A9A8-4005-B9E6-B6E3BABC1C09";
paths = (
{
closed = 1;
nodes = (
"322 -10 OFFCURVE",
"385 2 OFFCURVE",
"430 33 CURVE SMOOTH",
"471 61 OFFCURVE",
"498 107 OFFCURVE",
"498 159 CURVE SMOOTH",
"498 166 LINE SMOOTH",
"498 278 OFFCURVE",
"404 311 OFFCURVE",
"322 333 CURVE SMOOTH",
"268 347 OFFCURVE",
"218 357 OFFCURVE",
"218 387 CURVE SMOOTH",
"218 389 LINE SMOOTH",
"218 398 OFFCURVE",
"222 405 OFFCURVE",
"229 411 CURVE SMOOTH",
"236 416 OFFCURVE",
"247 420 OFFCURVE",
"261 420 CURVE SMOOTH",
"279 420 OFFCURVE",
"290 415 OFFCURVE",
"298 408 CURVE SMOOTH",
"309 398 OFFCURVE",
"313 384 OFFCURVE",
"316 368 CURVE",
"486 401 LINE",
"474 440 OFFCURVE",
"452 473 OFFCURVE",
"419 498 CURVE SMOOTH",
"384 524 OFFCURVE",
"324 541 OFFCURVE",
"256 541 CURVE SMOOTH",
"198 541 OFFCURVE",
"143 528 OFFCURVE",
"103 503 CURVE SMOOTH",
"57 475 OFFCURVE",
"34 429 OFFCURVE",
"34 380 CURVE SMOOTH",
"34 373 LINE SMOOTH",
"34 273 OFFCURVE",
"110 237 OFFCURVE",
"194 213 CURVE SMOOTH",
"241 200 OFFCURVE",
"311 184 OFFCURVE",
"311 150 CURVE SMOOTH",
"311 148 LINE SMOOTH",
"311 140 OFFCURVE",
"309 133 OFFCURVE",
"300 126 CURVE SMOOTH",
"292 119 OFFCURVE",
"278 116 OFFCURVE",
"266 116 CURVE SMOOTH",
"249 116 OFFCURVE",
"234 121 OFFCURVE",
"223 133 CURVE SMOOTH",
"214 144 OFFCURVE",
"207 158 OFFCURVE",
"204 171 CURVE",
"27 133 LINE",
"45 87 OFFCURVE",
"70 51 OFFCURVE",
"107 27 CURVE SMOOTH",
"144 1 OFFCURVE",
"198 -10 OFFCURVE",
"259 -10 CURVE SMOOTH"
);
}
);
width = 535;
}
);
unicode = 0073;
},
{
color = 10;
glyphname = germandbls;
lastChange = "2019-06-11 21:31:58 +0000";
layers = (
{
hints = (
{
horizontal = 1;
origin = "{0, 67}";
target = up;
type = BottomGhost;
},
{
horizontal = 1;
origin = "{0, 19}";
target = "{0, 31}";
type = Stem;
},
{
horizontal = 1;
origin = "{0, 26}";
target = up;
type = BottomGhost;
},
{
horizontal = 1;
origin = "{0, 67}";
target = "{0, 54}";
type = Stem;
},
{
place = "{112, 20}";
type = Stem;
},
{
place = "{263, 20}";
type = Stem;
},
{
place = "{584, 20}";
type = Stem;
}
);
layerId = "444456EC-4579-471A-B2C3-7F5DF9BBCA9A";
paths = (
{
closed = 1;
nodes = (
"477 -10 OFFCURVE",
"521 2 OFFCURVE",
"552 26 CURVE SMOOTH",
"585 51 OFFCURVE",
"604 89 OFFCURVE",
"604 136 CURVE SMOOTH",
"604 146 LINE SMOOTH",
"604 246 OFFCURVE",
"511 281 OFFCURVE",
"426 309 CURVE SMOOTH",
"348 335 OFFCURVE",
"283 352 OFFCURVE",
"283 451 CURVE SMOOTH",
"283 603 LINE SMOOTH",
"283 653 OFFCURVE",
"279 683 OFFCURVE",
"260 706 CURVE SMOOTH",
"241 730 OFFCURVE",
"210 734 OFFCURVE",
"190 734 CURVE SMOOTH",
"170 734 OFFCURVE",
"139 730 OFFCURVE",
"120 706 CURVE SMOOTH",
"101 683 OFFCURVE",
"97 652 OFFCURVE",
"97 603 CURVE SMOOTH",
"97 0 LINE",
"117 0 LINE",
"117 602 LINE SMOOTH",
"117 643 OFFCURVE",
"119 676 OFFCURVE",
"135 695 CURVE SMOOTH",
"151 715 OFFCURVE",
"176 716 OFFCURVE",
"190 716 CURVE SMOOTH",
"204 716 OFFCURVE",
"229 715 OFFCURVE",
"245 695 CURVE SMOOTH",
"261 676 OFFCURVE",
"263 643 OFFCURVE",
"263 602 CURVE SMOOTH",
"263 451 LINE SMOOTH",
"263 338 OFFCURVE",
"340 318 OFFCURVE",
"417 292 CURVE SMOOTH",
"497 265 OFFCURVE",
"584 236 OFFCURVE",
"584 146 CURVE SMOOTH",
"584 136 LINE SMOOTH",
"584 95 OFFCURVE",
"568 63 OFFCURVE",
"539 41 CURVE SMOOTH",
"512 20 OFFCURVE",
"472 9 OFFCURVE",
"423 9 CURVE SMOOTH",
"364 9 OFFCURVE",
"320 25 OFFCURVE",
"289 58 CURVE SMOOTH",
"275 73 OFFCURVE",
"264 93 OFFCURVE",
"254 119 CURVE",
"236 113 LINE",
"246 84 OFFCURVE",
"258 62 OFFCURVE",
"274 45 CURVE SMOOTH",
"309 8 OFFCURVE",
"358 -10 OFFCURVE",
"423 -10 CURVE SMOOTH"
);
}
);
width = 655;
},
{
hints = (
{
horizontal = 1;
origin = "{0, 67}";
target = up;
type = BottomGhost;
},
{
horizontal = 1;
origin = "{0, 19}";
target = "{0, 31}";
type = Stem;
},
{
horizontal = 1;
origin = "{0, 26}";
target = up;
type = BottomGhost;
},
{
horizontal = 1;
origin = "{0, 67}";
target = "{0, 54}";
type = Stem;
},
{
place = "{52, 188}";
type = Stem;
},
{
place = "{316, 180}";
type = Stem;
},
{
place = "{589, 184}";
type = Stem;
}
);
layerId = "CDA8F3AC-A9A8-4005-B9E6-B6E3BABC1C09";
paths = (
{
closed = 1;
nodes = (
"600 -10 OFFCURVE",
"660 2 OFFCURVE",
"705 33 CURVE SMOOTH",
"745 61 OFFCURVE",
"773 107 OFFCURVE",
"773 159 CURVE SMOOTH",
"773 169 LINE SMOOTH",
"773 277 OFFCURVE",
"685 308 OFFCURVE",
"598 343 CURVE SMOOTH",
"536 368 OFFCURVE",
"496 385 OFFCURVE",
"496 450 CURVE SMOOTH",
"496 524 LINE SMOOTH",
"496 597 OFFCURVE",
"481 644 OFFCURVE",
"453 673 CURVE SMOOTH",
"416 714 OFFCURVE",
"357 735 OFFCURVE",
"274 735 CURVE SMOOTH",
"191 735 OFFCURVE",
"130 714 OFFCURVE",
"93 672 CURVE SMOOTH",
"65 643 OFFCURVE",
"51 597 OFFCURVE",
"51 524 CURVE SMOOTH",
"51 0 LINE",
"239 0 LINE",
"239 538 LINE SMOOTH",
"239 561 OFFCURVE",
"241 581 OFFCURVE",
"250 592 CURVE SMOOTH",
"256 601 OFFCURVE",
"265 604 OFFCURVE",
"277 604 CURVE SMOOTH",
"289 604 OFFCURVE",
"299 601 OFFCURVE",
"305 592 CURVE SMOOTH",
"314 581 OFFCURVE",
"316 562 OFFCURVE",
"316 538 CURVE SMOOTH",
"316 427 LINE SMOOTH",
"316 303 OFFCURVE",
"395 266 OFFCURVE",
"469 236 CURVE SMOOTH",
"530 211 OFFCURVE",
"589 192 OFFCURVE",
"589 156 CURVE SMOOTH",
"589 151 LINE SMOOTH",
"589 143 OFFCURVE",
"587 133 OFFCURVE",
"578 126 CURVE SMOOTH",
"570 119 OFFCURVE",
"556 116 OFFCURVE",
"544 116 CURVE SMOOTH",
"527 116 OFFCURVE",
"512 121 OFFCURVE",
"501 133 CURVE SMOOTH",
"492 144 OFFCURVE",
"486 158 OFFCURVE",
"483 177 CURVE",
"310 139 LINE",
"327 87 OFFCURVE",
"351 51 OFFCURVE",
"389 27 CURVE SMOOTH",
"426 1 OFFCURVE",
"476 -10 OFFCURVE",
"537 -10 CURVE SMOOTH"
);
}
);
width = 810;
}
);
leftMetricsKey = h;
rightMetricsKey = s;
unicode = 00DF;
},
{
color = 10;
glyphname = t;
lastChange = "2019-06-11 21:31:58 +0000";
layers = (
{
anchors = (
{
name = bottom;
position = "{132, 0}";
},
{
name = center;
position = "{132, 265}";
},
{
name = top;
position = "{132, 530}";
},
{
name = topright;
position = "{242, 530}";
}
);
hints = (
{
horizontal = 1;
origin = "{0, 18}";
target = "{0, 3}";
type = Stem;
},
{
horizontal = 1;
origin = "{1, 2}";
target = "{1, 3}";
type = Stem;
},
{
place = "{94, 20}";
type = Stem;
}
);
layerId = "444456EC-4579-471A-B2C3-7F5DF9BBCA9A";
paths = (
{
closed = 1;
nodes = (
"195 0 OFFCURVE",
"201 0 OFFCURVE",
"217 0 CURVE",
"217 18 LINE",
"177 17 OFFCURVE",
"151 18 OFFCURVE",
"132 37 CURVE SMOOTH",
"114 58 OFFCURVE",
"114 91 OFFCURVE",
"114 132 CURVE SMOOTH",
"114 674 LINE",
"94 670 LINE",
"94 129 LINE SMOOTH",
"94 87 OFFCURVE",
"95 49 OFFCURVE",
"116 25 CURVE SMOOTH",
"130 9 OFFCURVE",
"153 0 OFFCURVE",
"190 0 CURVE SMOOTH"
);
},
{
closed = 1;
nodes = (
"217 512 LINE",
"217 530 LINE",
"28 530 LINE",
"28 512 LINE"
);
}
);
width = 262;
},
{
anchors = (
{
name = bottom;
position = "{182, 0}";
},
{
name = center;
position = "{182, 265}";
},
{
name = top;
position = "{182, 530}";
},
{
name = topright;
position = "{343, 530}";
}
);
hints = (
{
horizontal = 1;
origin = "{0, 18}";
target = "{0, 3}";
type = Stem;
},
{
horizontal = 1;
origin = "{1, 2}";
target = "{1, 3}";
type = Stem;
},
{
place = "{72, 188}";
type = Stem;
}
);
layerId = "CDA8F3AC-A9A8-4005-B9E6-B6E3BABC1C09";
paths = (
{
closed = 1;
nodes = (
"262 -2 OFFCURVE",
"305 -1 OFFCURVE",
"339 0 CURVE",
"339 127 LINE",
"302 125 OFFCURVE",
"283 124 OFFCURVE",
"271 137 CURVE SMOOTH",
"263 146 OFFCURVE",
"260 160 OFFCURVE",
"260 182 CURVE SMOOTH",
"260 674 LINE",
"72 664 LINE",
"72 139 LINE SMOOTH",
"72 92 OFFCURVE",
"81 60 OFFCURVE",
"98 39 CURVE SMOOTH",
"123 7 OFFCURVE",
"164 -2 OFFCURVE",
"237 -2 CURVE SMOOTH"
);
},
{
closed = 1;
nodes = (
"339 405 LINE",
"339 530 LINE",
"13 530 LINE",
"13 405 LINE"
);
}
);
width = 363;
}
);
unicode = 0074;
},
{
color = 10;
glyphname = tbar;
lastChange = "2019-06-11 21:31:58 +0000";
layers = (
{
hints = (
{
horizontal = 1;
origin = "{2, 3}";
target = "{2, 2}";
type = Stem;
},
{
place = "{1, 23}";
type = Stem;
},
{
horizontal = 1;
origin = "{0, 18}";
target = "{0, 3}";
type = Stem;
},
{
horizontal = 1;
origin = "{1, 2}";
target = "{1, 3}";
type = Stem;
},
{
place = "{94, 20}";
type = Stem;
}
);
layerId = "444456EC-4579-471A-B2C3-7F5DF9BBCA9A";
paths = (
{
closed = 1;
nodes = (
"195 0 OFFCURVE",
"201 0 OFFCURVE",
"217 0 CURVE",
"217 18 LINE",
"177 17 OFFCURVE",
"151 18 OFFCURVE",
"132 37 CURVE SMOOTH",
"114 58 OFFCURVE",
"114 91 OFFCURVE",
"114 132 CURVE SMOOTH",
"114 674 LINE",
"94 670 LINE",
"94 129 LINE SMOOTH",
"94 87 OFFCURVE",
"95 49 OFFCURVE",
"116 25 CURVE SMOOTH",
"130 9 OFFCURVE",
"153 0 OFFCURVE",
"190 0 CURVE SMOOTH"
);
},
{
closed = 1;
nodes = (
"217 512 LINE",
"217 530 LINE",
"28 530 LINE",
"28 512 LINE"
);
},
{
closed = 1;
nodes = (
"216 285 LINE",
"216 303 LINE",
"28 303 LINE",
"28 285 LINE"
);
}
);
width = 262;
},
{
hints = (
{
horizontal = 1;
origin = "{2, 3}";
target = "{2, 2}";
type = Stem;
},
{
place = "{12, 353}";
type = Stem;
},
{
horizontal = 1;
origin = "{0, 18}";
target = "{0, 3}";
type = Stem;
},
{
horizontal = 1;
origin = "{1, 2}";
target = "{1, 3}";
type = Stem;
},
{
place = "{72, 188}";
type = Stem;
}
);
layerId = "CDA8F3AC-A9A8-4005-B9E6-B6E3BABC1C09";
paths = (
{
closed = 1;
nodes = (
"262 -2 OFFCURVE",
"305 -1 OFFCURVE",
"339 0 CURVE",
"339 127 LINE",
"302 125 OFFCURVE",
"283 124 OFFCURVE",
"271 137 CURVE SMOOTH",
"263 146 OFFCURVE",
"260 160 OFFCURVE",
"260 182 CURVE SMOOTH",
"260 674 LINE",
"72 664 LINE",
"72 139 LINE SMOOTH",
"72 92 OFFCURVE",
"81 60 OFFCURVE",
"98 39 CURVE SMOOTH",
"123 7 OFFCURVE",
"164 -2 OFFCURVE",
"237 -2 CURVE SMOOTH"
);
},
{
closed = 1;
nodes = (
"339 405 LINE",
"339 530 LINE",
"13 530 LINE",
"13 405 LINE"
);
},
{
closed = 1;
nodes = (
"335 225 LINE",
"335 326 LINE",
"13 326 LINE",
"13 225 LINE"
);
}
);
width = 363;
}
);
widthMetricsKey = t;
unicode = 0167;
},
{
color = 10;
glyphname = u;
lastChange = "2019-06-11 21:31:58 +0000";
layers = (
{
anchors = (
{
name = bottom;
position = "{293, 0}";
},
{
name = ogonek;
position = "{488, 0}";
},
{
name = top;
position = "{293, 530}";
},
{
name = topright;
position = "{553, 530}";
}
);
hints = (
{
horizontal = 1;
origin = "{1, 5}";
target = up;
type = BottomGhost;
},
{
horizontal = 1;
origin = "{0, 11}";
target = down;
type = TopGhost;
},
{
horizontal = 1;
origin = "{1, 5}";
target = "{0, 6}";
type = Stem;
},
{
horizontal = 1;
origin = "{0, 15}";
target = up;
type = BottomGhost;
},
{
place = "{97, 20}";
type = Stem;
},
{
place = "{468, 20}";
type = Stem;
}
);
layerId = "444456EC-4579-471A-B2C3-7F5DF9BBCA9A";
paths = (
{
closed = 1;
nodes = (
"344 -10 OFFCURVE",
"418 19 OFFCURVE",
"477 115 CURVE",
"472 131 LINE",
"421 48 OFFCURVE",
"357 10 OFFCURVE",
"278 10 CURVE SMOOTH",
"175 10 OFFCURVE",
"117 75 OFFCURVE",
"117 187 CURVE SMOOTH",
"117 530 LINE",
"97 530 LINE",
"97 184 LINE SMOOTH",
"97 76 OFFCURVE",
"150 -10 OFFCURVE",
"275 -10 CURVE SMOOTH"
);
},
{
closed = 1;
nodes = (
"488 0 LINE",
"488 530 LINE",
"468 530 LINE",
"468 112 LINE",
"469 107 LINE",
"469 0 LINE"
);
}
);
width = 585;
},
{
anchors = (
{
name = bottom;
position = "{296, 0}";
},
{
name = ogonek;
position = "{541, 0}";
},
{
name = top;
position = "{296, 530}";
},
{
name = topright;
position = "{568, 530}";
}
);
hints = (
{
horizontal = 1;
origin = "{1, 5}";
target = up;
type = BottomGhost;
},
{
horizontal = 1;
origin = "{0, 11}";
target = down;
type = TopGhost;
},
{
horizontal = 1;
origin = "{1, 5}";
target = "{0, 6}";
type = Stem;
},
{
horizontal = 1;
origin = "{0, 15}";
target = up;
type = BottomGhost;
},
{
place = "{51, 188}";
type = Stem;
},
{
place = "{353, 188}";
type = Stem;
}
);
layerId = "CDA8F3AC-A9A8-4005-B9E6-B6E3BABC1C09";
paths = (
{
closed = 1;
nodes = (
"274 -10 OFFCURVE",
"330 9 OFFCURVE",
"376 76 CURVE",
"376 229 LINE",
"353 181 OFFCURVE",
"324 149 OFFCURVE",
"287 149 CURVE SMOOTH",
"248 149 OFFCURVE",
"239 185 OFFCURVE",
"239 235 CURVE SMOOTH",
"239 530 LINE",
"51 530 LINE",
"51 187 LINE SMOOTH",
"51 56 OFFCURVE",
"125 -10 OFFCURVE",
"221 -10 CURVE SMOOTH"
);
},
{
closed = 1;
nodes = (
"541 0 LINE",
"541 530 LINE",
"353 530 LINE",
"353 103 LINE",
"362 98 LINE",
"371 0 LINE"
);
}
);
width = 591;
}
);
leftMetricsKey = n;
rightMetricsKey = n;
unicode = 0075;
},
{
color = 10;
glyphname = v;
lastChange = "2019-06-11 21:31:58 +0000";
layers = (
{
hints = (
{
horizontal = 1;
origin = "{0, 9}";
target = up;
type = BottomGhost;
},
{
horizontal = 1;
origin = "{0, 8}";
target = down;
type = TopGhost;
},
{
place = "{0, 24}";
type = Stem;
}
);
layerId = "444456EC-4579-471A-B2C3-7F5DF9BBCA9A";
paths = (
{
closed = 1;
nodes = (
"239 0 LINE",
"431 530 LINE",
"409 530 LINE",
"290 195 LINE",
"227 16 LINE",
"232 16 LINE",
"169 195 LINE",
"50 530 LINE",
"28 530 LINE",
"220 0 LINE"
);
}
);
width = 459;
},
{
hints = (
{
horizontal = 1;
origin = "{0, 9}";
target = up;
type = BottomGhost;
},
{
horizontal = 1;
origin = "{0, 8}";
target = down;
type = TopGhost;
},
{
place = "{10, 458}";
type = Stem;
}
);
layerId = "CDA8F3AC-A9A8-4005-B9E6-B6E3BABC1C09";
paths = (
{
closed = 1;
nodes = (
"350 0 LINE",
"513 530 LINE",
"320 530 LINE",
"275 252 LINE",
"245 71 LINE",
"280 71 LINE",
"251 252 LINE",
"205 530 LINE",
"12 530 LINE",
"175 0 LINE"
);
}
);
width = 525;
}
);
unicode = 0076;
},
{
color = 10;
glyphname = w;
lastChange = "2019-06-11 21:32:05 +0000";
layers = (
{
anchors = (
{
name = bottom;
position = "{401, 0}";
},
{
name = top;
position = "{401, 530}";
}
);
hints = (
{
horizontal = 1;
place = "{498, 29}";
type = Stem;
},
{
horizontal = 1;
origin = "{0, 10}";
target = down;
type = TopGhost;
},
{
horizontal = 1;
origin = "{0, 11}";
target = up;
type = BottomGhost;
},
{
place = "{3, 26}";
type = Stem;
},
{
place = "{2, 1}";
type = Stem;
}
);
layerId = "444456EC-4579-471A-B2C3-7F5DF9BBCA9A";
paths = (
{
closed = 1;
nodes = (
"239 0 LINE",
"389 457 LINE",
"404 514 LINE",
"408 530 LINE",
"390 530 LINE",
"283 195 LINE",
"227 16 LINE",
"232 16 LINE",
"169 195 LINE",
"50 530 LINE",
"28 530 LINE",
"219 0 LINE"
);
},
{
closed = 1;
nodes = (
"581 0 LINE",
"772 530 LINE",
"750 530 LINE",
"631 195 LINE",
"568 16 LINE",
"574 16 LINE",
"517 195 LINE",
"410 530 LINE",
"392 530 LINE",
"397 514 LINE",
"412 457 LINE",
"562 0 LINE"
);
}
);
width = 800;
},
{
anchors = (
{
name = bottom;
position = "{402, 0}";
},
{
name = top;
position = "{402, 530}";
}
);
hints = (
{
horizontal = 1;
place = "{345, 134}";
type = Stem;
},
{
horizontal = 1;
origin = "{0, 10}";
target = down;
type = TopGhost;
},
{
horizontal = 1;
origin = "{0, 11}";
target = up;
type = BottomGhost;
},
{
place = "{65, 27}";
type = Stem;
},
{
place = "{44, 20}";
type = Stem;
}
);
layerId = "CDA8F3AC-A9A8-4005-B9E6-B6E3BABC1C09";
paths = (
{
closed = 1;
nodes = (
"358 0 LINE",
"392 217 LINE",
"410 380 LINE",
"457 530 LINE",
"324 530 LINE",
"279 252 LINE",
"249 71 LINE",
"285 71 LINE",
"256 252 LINE",
"210 530 LINE",
"12 530 LINE",
"174 0 LINE"
);
},
{
closed = 1;
nodes = (
"631 0 LINE",
"792 530 LINE",
"594 530 LINE",
"549 252 LINE",
"520 71 LINE",
"555 71 LINE",
"526 252 LINE",
"480 530 LINE",
"348 530 LINE",
"395 380 LINE",
"413 217 LINE",
"446 0 LINE"
);
}
);
width = 804;
}
);
leftMetricsKey = v;
rightMetricsKey = v;
unicode = 0077;
},
{
color = 10;
glyphname = x;
lastChange = "2019-06-11 21:31:58 +0000";
layers = (
{
hints = (
{
horizontal = 1;
origin = "{1, 7}";
target = up;
type = BottomGhost;
},
{
horizontal = 1;
origin = "{0, 4}";
target = down;
type = TopGhost;
},
{
place = "{0, 4}";
type = Stem;
}
);
layerId = "444456EC-4579-471A-B2C3-7F5DF9BBCA9A";
paths = (
{
closed = 1;
nodes = (
"442 0 LINE",
"243 280 LINE",
"237 285 LINE",
"65 530 LINE",
"42 530 LINE",
"227 270 LINE",
"233 264 LINE",
"419 0 LINE"
);
},
{
closed = 1;
nodes = (
"52 0 LINE",
"237 264 LINE",
"243 270 LINE",
"428 530 LINE",
"405 530 LINE",
"233 285 LINE",
"227 280 LINE",
"28 0 LINE"
);
}
);
width = 470;
},
{
hints = (
{
horizontal = 1;
origin = "{1, 7}";
target = up;
type = BottomGhost;
},
{
horizontal = 1;
origin = "{0, 4}";
target = down;
type = TopGhost;
},
{
place = "{10, 491}";
type = Stem;
}
);
layerId = "CDA8F3AC-A9A8-4005-B9E6-B6E3BABC1C09";
paths = (
{
closed = 1;
nodes = (
"548 0 LINE",
"356 297 LINE",
"293 310 LINE",
"240 530 LINE",
"18 530 LINE",
"203 237 LINE",
"260 224 LINE",
"326 0 LINE"
);
},
{
closed = 1;
nodes = (
"234 0 LINE",
"299 224 LINE",
"358 237 LINE",
"542 530 LINE",
"320 530 LINE",
"267 310 LINE",
"205 297 LINE",
"12 0 LINE"
);
}
);
width = 560;
}
);
leftMetricsKey = v;
rightMetricsKey = v;
unicode = 0078;
},
{
color = 10;
glyphname = y;
lastChange = "2019-06-11 21:31:58 +0000";
layers = (
{
anchors = (
{
name = bottom;
position = "{230, 0}";
},
{
name = top;
position = "{230, 530}";
}
);
hints = (
{
horizontal = 1;
origin = "{0, 18}";
target = "{0, 17}";
type = Stem;
},
{
horizontal = 1;
origin = "{0, 11}";
target = down;
type = TopGhost;
},
{
place = "{0, 4}";
type = Stem;
}
);
layerId = "444456EC-4579-471A-B2C3-7F5DF9BBCA9A";
paths = (
{
closed = 1;
nodes = (
"74 -190 LINE SMOOTH",
"127 -190 OFFCURVE",
"171 -188 OFFCURVE",
"197 -119 CURVE SMOOTH",
"431 530 LINE",
"409 530 LINE",
"290 195 LINE",
"227 16 LINE",
"232 16 LINE",
"169 195 LINE",
"50 530 LINE",
"28 530 LINE",
"220 0 LINE",
"178 -113 LINE SMOOTH",
"157 -169 OFFCURVE",
"124 -172 OFFCURVE",
"74 -172 CURVE SMOOTH",
"38 -172 LINE",
"38 -190 LINE"
);
}
);
width = 459;
},
{
anchors = (
{
name = bottom;
position = "{269, 0}";
},
{
name = top;
position = "{269, 530}";
}
);
hints = (
{
horizontal = 1;
origin = "{0, 18}";
target = "{0, 17}";
type = Stem;
},
{
horizontal = 1;
origin = "{0, 11}";
target = down;
type = TopGhost;
},
{
place = "{10, 469}";
type = Stem;
}
);
layerId = "CDA8F3AC-A9A8-4005-B9E6-B6E3BABC1C09";
paths = (
{
closed = 1;
nodes = (
"111 -190 LINE SMOOTH",
"220 -190 OFFCURVE",
"305 -188 OFFCURVE",
"345 -56 CURVE SMOOTH",
"525 530 LINE",
"326 530 LINE",
"280 252 LINE",
"251 71 LINE",
"286 71 LINE",
"257 252 LINE",
"210 530 LINE",
"12 530 LINE",
"175 0 LINE",
"171 -12 LINE SMOOTH",
"171 -36 OFFCURVE",
"154 -47 OFFCURVE",
"111 -47 CURVE SMOOTH",
"49 -47 LINE",
"49 -190 LINE"
);
}
);
width = 537;
}
);
leftMetricsKey = v;
rightMetricsKey = v;
unicode = 0079;
},
{
color = 10;
glyphname = z;
lastChange = "2019-06-11 21:31:58 +0000";
layers = (
{
anchors = (
{
name = bottom;
position = "{229, 0}";
},
{
name = top;
position = "{229, 530}";
}
);
hints = (
{
horizontal = 1;
origin = "{0, 11}";
target = "{0, 2}";
type = Stem;
},
{
horizontal = 1;
origin = "{0, 6}";
target = "{0, 7}";
type = Stem;
},
{
place = "{368, 29}";
type = Stem;
}
);
layerId = "444456EC-4579-471A-B2C3-7F5DF9BBCA9A";
paths = (
{
closed = 1;
nodes = (
"417 0 LINE",
"417 18 LINE",
"61 18 LINE",
"61 13 LINE",
"406 511 LINE",
"406 530 LINE",
"68 530 LINE",
"68 512 LINE",
"388 512 LINE",
"386 517 LINE",
"41 19 LINE",
"41 0 LINE"
);
}
);
width = 458;
},
{
anchors = (
{
name = bottom;
position = "{232, 0}";
},
{
name = top;
position = "{232, 530}";
}
);
hints = (
{
horizontal = 1;
origin = "{0, 11}";
target = "{0, 2}";
type = Stem;
},
{
horizontal = 1;
origin = "{0, 6}";
target = "{0, 7}";
type = Stem;
},
{
place = "{39, 381}";
type = Stem;
}
);
layerId = "CDA8F3AC-A9A8-4005-B9E6-B6E3BABC1C09";
paths = (
{
closed = 1;
nodes = (
"442 0 LINE",
"442 146 LINE",
"206 146 LINE",
"217 123 LINE",
"440 375 LINE",
"440 530 LINE",
"30 530 LINE",
"30 384 LINE",
"260 384 LINE",
"249 406 LINE",
"23 155 LINE",
"23 0 LINE"
);
}
);
width = 464;
}
);
unicode = 007A;
},
{
color = 10;
glyphname = ordfeminine;
lastChange = "2019-06-11 21:23:58 +0000";
layers = (
{
hints = (
{
horizontal = 1;
place = "{545, 2000}";
type = Stem;
},
{
horizontal = 1;
origin = "{0, 5}";
target = "{0, 18}";
type = Stem;
},
{
place = "{224, 18}";
type = Stem;
},
{
place = "{347, 2000}";
type = Stem;
}
);
layerId = "444456EC-4579-471A-B2C3-7F5DF9BBCA9A";
paths = (
{
closed = 1;
nodes = (
"283 393 LINE",
"274 470 LINE",
"274 651 LINE SMOOTH",
"274 716 OFFCURVE",
"221 744 OFFCURVE",
"162 744 CURVE SMOOTH",
"118 744 OFFCURVE",
"87 731 OFFCURVE",
"66 710 CURVE SMOOTH",
"49 693 OFFCURVE",
"38 670 OFFCURVE",
"33 644 CURVE",
"50 639 LINE",
"55 664 OFFCURVE",
"64 684 OFFCURVE",
"78 698 CURVE SMOOTH",
"97 718 OFFCURVE",
"125 729 OFFCURVE",
"161 729 CURVE SMOOTH",
"219 729 OFFCURVE",
"256 699 OFFCURVE",
"256 651 CURVE SMOOTH",
"256 469 LINE",
"266 392 LINE"
);
},
{
closed = 1;
nodes = (
"182 387 OFFCURVE",
"233 416 OFFCURVE",
"261 464 CURVE",
"258 480 LINE",
"231 431 OFFCURVE",
"186 402 OFFCURVE",
"129 402 CURVE SMOOTH",
"75 402 OFFCURVE",
"45 428 OFFCURVE",
"45 475 CURVE SMOOTH",
"45 572 OFFCURVE",
"174 570 OFFCURVE",
"260 583 CURVE",
"259 596 LINE",
"171 584 OFFCURVE",
"27 584 OFFCURVE",
"27 474 CURVE SMOOTH",
"27 414 OFFCURVE",
"69 387 OFFCURVE",
"125 387 CURVE SMOOTH"
);
}
);
width = 319;
},
{
hints = (
{
horizontal = 1;
place = "{499, 2000}";
type = Stem;
},
{
horizontal = 1;
origin = "{0, 5}";
target = "{0, 18}";
type = Stem;
},
{
place = "{158, 113}";
type = Stem;
},
{
place = "{334, 2000}";
type = Stem;
}
);
layerId = "CDA8F3AC-A9A8-4005-B9E6-B6E3BABC1C09";
paths = (
{
closed = 1;
nodes = (
"322 393 LINE",
"313 475 LINE",
"313 631 LINE SMOOTH",
"313 719 OFFCURVE",
"242 744 OFFCURVE",
"176 744 CURVE SMOOTH",
"136 744 OFFCURVE",
"100 735 OFFCURVE",
"70 712 CURVE SMOOTH",
"48 694 OFFCURVE",
"31 669 OFFCURVE",
"26 632 CURVE",
"129 617 LINE",
"129 631 OFFCURVE",
"135 644 OFFCURVE",
"142 651 CURVE SMOOTH",
"148 658 OFFCURVE",
"157 662 OFFCURVE",
"168 662 CURVE SMOOTH",
"189 662 OFFCURVE",
"201 650 OFFCURVE",
"201 624 CURVE SMOOTH",
"201 475 LINE",
"217 391 LINE"
);
},
{
closed = 1;
nodes = (
"160 387 OFFCURVE",
"195 404 OFFCURVE",
"221 435 CURVE",
"207 501 LINE",
"196 480 OFFCURVE",
"171 468 OFFCURVE",
"151 468 CURVE SMOOTH",
"127 468 OFFCURVE",
"124 483 OFFCURVE",
"124 494 CURVE SMOOTH",
"124 528 OFFCURVE",
"169 538 OFFCURVE",
"204 541 CURVE",
"203 604 LINE",
"152 599 OFFCURVE",
"11 587 OFFCURVE",
"11 481 CURVE SMOOTH",
"11 421 OFFCURVE",
"54 387 OFFCURVE",
"119 387 CURVE SMOOTH"
);
}
);
width = 339;
}
);
unicode = 00AA;
},
{
color = 10;
glyphname = ordmasculine;
lastChange = "2019-06-11 21:23:58 +0000";
layers = (
{
hints = (
{
horizontal = 1;
origin = "{0, 25}";
target = "{1, 25}";
type = Stem;
},
{
horizontal = 1;
origin = "{0, 12}";
target = "{1, 9}";
type = Stem;
},
{
place = "{25, 18}";
type = Stem;
},
{
place = "{277, 18}";
type = Stem;
}
);
layerId = "444456EC-4579-471A-B2C3-7F5DF9BBCA9A";
paths = (
{
closed = 1;
nodes = (
"204 387 OFFCURVE",
"237 400 OFFCURVE",
"258 421 CURVE SMOOTH",
"285 450 OFFCURVE",
"295 496 OFFCURVE",
"295 548 CURVE SMOOTH",
"295 583 LINE SMOOTH",
"295 634 OFFCURVE",
"286 680 OFFCURVE",
"258 709 CURVE SMOOTH",
"236 731 OFFCURVE",
"204 744 OFFCURVE",
"160 744 CURVE SMOOTH",
"116 744 OFFCURVE",
"85 731 OFFCURVE",
"63 709 CURVE SMOOTH",
"34 680 OFFCURVE",
"25 634 OFFCURVE",
"25 583 CURVE SMOOTH",
"25 548 LINE SMOOTH",
"25 496 OFFCURVE",
"34 450 OFFCURVE",
"63 421 CURVE SMOOTH",
"84 399 OFFCURVE",
"116 387 OFFCURVE",
"160 387 CURVE SMOOTH"
);
},
{
closed = 1;
nodes = (
"123 403 OFFCURVE",
"96 412 OFFCURVE",
"77 433 CURVE SMOOTH",
"53 457 OFFCURVE",
"43 495 OFFCURVE",
"43 548 CURVE SMOOTH",
"43 583 LINE SMOOTH",
"43 636 OFFCURVE",
"54 674 OFFCURVE",
"77 698 CURVE SMOOTH",
"95 718 OFFCURVE",
"123 728 OFFCURVE",
"160 728 CURVE SMOOTH",
"197 728 OFFCURVE",
"225 718 OFFCURVE",
"244 698 CURVE SMOOTH",
"266 674 OFFCURVE",
"277 636 OFFCURVE",
"277 583 CURVE SMOOTH",
"277 548 LINE SMOOTH",
"277 495 OFFCURVE",
"267 457 OFFCURVE",
"244 433 CURVE SMOOTH",
"224 413 OFFCURVE",
"197 403 OFFCURVE",
"160 403 CURVE SMOOTH"
);
}
);
width = 320;
},
{
hints = (
{
horizontal = 1;
origin = "{0, 25}";
target = "{1, 25}";
type = Stem;
},
{
horizontal = 1;
origin = "{0, 12}";
target = "{1, 9}";
type = Stem;
},
{
place = "{10, 114}";
type = Stem;
},
{
place = "{213, 114}";
type = Stem;
}
);
layerId = "CDA8F3AC-A9A8-4005-B9E6-B6E3BABC1C09";
paths = (
{
closed = 1;
nodes = (
"220 387 OFFCURVE",
"259 400 OFFCURVE",
"285 426 CURVE SMOOTH",
"314 454 OFFCURVE",
"328 499 OFFCURVE",
"328 552 CURVE SMOOTH",
"328 579 LINE SMOOTH",
"328 632 OFFCURVE",
"314 676 OFFCURVE",
"285 705 CURVE SMOOTH",
"258 730 OFFCURVE",
"220 744 OFFCURVE",
"169 744 CURVE SMOOTH",
"117 744 OFFCURVE",
"79 730 OFFCURVE",
"53 705 CURVE SMOOTH",
"24 676 OFFCURVE",
"10 632 OFFCURVE",
"10 579 CURVE SMOOTH",
"10 552 LINE SMOOTH",
"10 499 OFFCURVE",
"23 455 OFFCURVE",
"53 426 CURVE SMOOTH",
"79 400 OFFCURVE",
"117 387 OFFCURVE",
"169 387 CURVE SMOOTH"
);
},
{
closed = 1;
nodes = (
"154 481 OFFCURVE",
"143 486 OFFCURVE",
"137 496 CURVE SMOOTH",
"126 509 OFFCURVE",
"124 530 OFFCURVE",
"124 552 CURVE SMOOTH",
"124 579 LINE SMOOTH",
"124 600 OFFCURVE",
"127 622 OFFCURVE",
"137 635 CURVE SMOOTH",
"143 644 OFFCURVE",
"154 649 OFFCURVE",
"169 649 CURVE SMOOTH",
"183 649 OFFCURVE",
"195 644 OFFCURVE",
"202 635 CURVE SMOOTH",
"211 621 OFFCURVE",
"213 600 OFFCURVE",
"213 579 CURVE SMOOTH",
"213 552 LINE SMOOTH",
"213 530 OFFCURVE",
"211 509 OFFCURVE",
"202 496 CURVE SMOOTH",
"194 486 OFFCURVE",
"183 481 OFFCURVE",
"169 481 CURVE SMOOTH"
);
}
);
width = 338;
}
);
unicode = 00BA;
},
{
color = 6;
glyphname = uni2E8C;
lastChange = "2019-07-12 15:36:29 +0000";
layers = (
{
layerId = "444456EC-4579-471A-B2C3-7F5DF9BBCA9A";
paths = (
{
closed = 1;
nodes = (
"260 341 OFFCURVE",
"206 417 OFFCURVE",
"147 494 CURVE",
"131 482 LINE",
"190 405 OFFCURVE",
"244 329 OFFCURVE",
"295 252 CURVE",
"311 264 LINE"
);
},
{
closed = 1;
nodes = (
"510 542 LINE",
"490 542 LINE",
"490 235 LINE",
"510 235 LINE"
);
},
{
closed = 1;
nodes = (
"769 331 OFFCURVE",
"825 408 OFFCURVE",
"871 487 CURVE",
"855 499 LINE",
"809 420 OFFCURVE",
"753 343 OFFCURVE",
"687 268 CURVE",
"703 256 LINE"
);
}
);
vertWidth = 1000;
width = 1000;
},
{
background = {
paths = (
{
closed = 1;
nodes = (
"295 367 OFFCURVE",
"261 454 OFFCURVE",
"233 540 CURVE",
"71 470 LINE",
"102 384 OFFCURVE",
"140 297 OFFCURVE",
"183 211 CURVE",
"335 281 LINE"
);
},
{
closed = 1;
nodes = (
"594 579 LINE",
"408 579 LINE",
"408 217 LINE",
"594 217 LINE"
);
},
{
closed = 1;
nodes = (
"858 306 OFFCURVE",
"894 397 OFFCURVE",
"925 487 CURVE",
"761 553 LINE",
"734 463 OFFCURVE",
"700 372 OFFCURVE",
"661 282 CURVE",
"815 216 LINE"
);
}
);
};
layerId = "CDA8F3AC-A9A8-4005-B9E6-B6E3BABC1C09";
paths = (
{
closed = 1;
nodes = (
"295 367 OFFCURVE",
"261 454 OFFCURVE",
"233 540 CURVE",
"71 470 LINE",
"102 384 OFFCURVE",
"140 297 OFFCURVE",
"183 211 CURVE",
"335 281 LINE"
);
},
{
closed = 1;
nodes = (
"594 579 LINE",
"408 579 LINE",
"408 217 LINE",
"594 217 LINE"
);
},
{
closed = 1;
nodes = (
"858 306 OFFCURVE",
"894 397 OFFCURVE",
"925 487 CURVE",
"761 553 LINE",
"734 463 OFFCURVE",
"700 372 OFFCURVE",
"661 282 CURVE",
"815 216 LINE"
);
}
);
vertWidth = 1000;
width = 1000;
}
);
note = uni2E8C;
unicode = 2E8C;
},
{
color = 6;
glyphname = uni2E8D;
lastChange = "2019-07-12 15:36:29 +0000";
layers = (
{
layerId = "444456EC-4579-471A-B2C3-7F5DF9BBCA9A";
paths = (
{
closed = 1;
nodes = (
"235 353 OFFCURVE",
"192 430 OFFCURVE",
"140 497 CURVE",
"122 487 LINE",
"174 420 OFFCURVE",
"217 343 OFFCURVE",
"249 256 CURVE",
"267 266 LINE"
);
},
{
closed = 1;
nodes = (
"507 373 OFFCURVE",
"468 455 OFFCURVE",
"418 527 CURVE",
"400 519 LINE",
"450 447 OFFCURVE",
"489 365 OFFCURVE",
"519 273 CURVE",
"537 281 LINE"
);
},
{
closed = 1;
nodes = (
"748 316 OFFCURVE",
"816 409 OFFCURVE",
"875 511 CURVE",
"859 523 LINE",
"800 421 OFFCURVE",
"732 328 OFFCURVE",
"653 246 CURVE",
"669 234 LINE"
);
}
);
vertWidth = 1000;
width = 1000;
},
{
layerId = "CDA8F3AC-A9A8-4005-B9E6-B6E3BABC1C09";
paths = (
{
closed = 1;
nodes = (
"316 363 OFFCURVE",
"283 451 OFFCURVE",
"241 536 CURVE",
"75 474 LINE",
"117 389 OFFCURVE",
"150 301 OFFCURVE",
"172 212 CURVE",
"338 274 LINE"
);
},
{
closed = 1;
nodes = (
"577 397 OFFCURVE",
"549 481 OFFCURVE",
"510 563 CURVE",
"344 507 LINE",
"383 425 OFFCURVE",
"411 341 OFFCURVE",
"430 255 CURVE",
"596 311 LINE"
);
},
{
closed = 1;
nodes = (
"835 279 OFFCURVE",
"890 381 OFFCURVE",
"925 483 CURVE",
"768 547 LINE",
"736 465 OFFCURVE",
"681 363 OFFCURVE",
"606 261 CURVE",
"760 177 LINE"
);
}
);
vertWidth = 1000;
width = 1000;
}
);
note = uni2E8D;
unicode = 2E8D;
},
{
color = 6;
glyphname = uni2E90;
lastChange = "2019-07-12 15:36:29 +0000";
layers = (
{
background = {
paths = (
{
closed = 1;
nodes = (
"765 -50 OFFCURVE",
"812 -49 OFFCURVE",
"866 -37 OFFCURVE",
"889 -28 OFFCURVE",
"917 11 OFFCURVE",
"925 42 OFFCURVE",
"936 120 OFFCURVE",
"938 186 OFFCURVE",
"940 250 QCURVE",
"920 250 LINE",
"913 40 OFFCURVE",
"863 -30 OFFCURVE",
"720 -30 QCURVE SMOOTH",
"660 -30 OFFCURVE",
"605 -28 OFFCURVE",
"573 -12 OFFCURVE",
"570 6 OFFCURVE",
"570 30 QCURVE SMOOTH",
"570 610 LINE",
"920 610 LINE",
"920 630 LINE",
"480 630 LINE",
"480 800 LINE",
"460 800 LINE",
"460 630 LINE",
"80 630 LINE",
"80 610 LINE",
"460 610 LINE",
"460 580 LINE SMOOTH",
"460 385 OFFCURVE",
"248 57 OFFCURVE",
"66 -31 QCURVE",
"74 -49 LINE",
"262 41 OFFCURVE",
"480 379 OFFCURVE",
"480 580 QCURVE SMOOTH",
"480 610 LINE",
"550 610 LINE",
"550 30 LINE SMOOTH",
"550 -25 OFFCURVE",
"606 -50 OFFCURVE",
"720 -50 QCURVE SMOOTH"
);
}
);
};
layerId = "444456EC-4579-471A-B2C3-7F5DF9BBCA9A";
paths = (
{
closed = 1;
nodes = (
"917 544 LINE",
"917 564 LINE",
"83 564 LINE",
"83 544 LINE"
);
},
{
closed = 1;
nodes = (
"294 33 OFFCURVE",
"470 182 OFFCURVE",
"470 563 CURVE SMOOTH",
"470 800 LINE",
"450 800 LINE",
"450 563 LINE SMOOTH",
"450 192 OFFCURVE",
"284 51 OFFCURVE",
"71 -24 CURVE",
"77 -42 LINE"
);
},
{
closed = 1;
nodes = (
"851 -48 OFFCURVE",
"916 -40 OFFCURVE",
"928 59 CURVE SMOOTH",
"936 125 OFFCURVE",
"937 193 OFFCURVE",
"941 259 CURVE",
"921 259 LINE",
"917 193 OFFCURVE",
"916 127 OFFCURVE",
"908 61 CURVE SMOOTH",
"898 -22 OFFCURVE",
"849 -28 OFFCURVE",
"729 -28 CURVE SMOOTH",
"609 -28 OFFCURVE",
"569 -23 OFFCURVE",
"569 60 CURVE SMOOTH",
"569 557 LINE",
"549 557 LINE",
"549 60 LINE SMOOTH",
"549 -41 OFFCURVE",
"607 -48 OFFCURVE",
"729 -48 CURVE SMOOTH"
);
}
);
width = 1000;
},
{
background = {
paths = (
{
closed = 0;
nodes = (
"668 538 LINE",
"498 538 LINE"
);
}
);
};
layerId = "CDA8F3AC-A9A8-4005-B9E6-B6E3BABC1C09";
paths = (
{
closed = 1;
nodes = (
"941 520 LINE",
"941 676 LINE",
"58 676 LINE",
"58 520 LINE"
);
},
{
closed = 1;
nodes = (
"410 34 OFFCURVE",
"507 249 OFFCURVE",
"507 572 CURVE SMOOTH",
"507 820 LINE",
"331 820 LINE",
"331 572 LINE SMOOTH",
"331 315 OFFCURVE",
"270 161 OFFCURVE",
"58 55 CURVE",
"136 -103 LINE"
);
},
{
closed = 1;
nodes = (
"864 -96 OFFCURVE",
"936 -81 OFFCURVE",
"949 52 CURVE SMOOTH",
"955 120 OFFCURVE",
"958 190 OFFCURVE",
"958 299 CURVE",
"782 317 LINE",
"782 213 OFFCURVE",
"779 131 OFFCURVE",
"775 94 CURVE SMOOTH",
"772 57 OFFCURVE",
"760 50 OFFCURVE",
"720 50 CURVE SMOOTH",
"681 50 OFFCURVE",
"668 57 OFFCURVE",
"668 94 CURVE SMOOTH",
"668 538 LINE",
"498 538 LINE",
"502 60 LINE SMOOTH",
"503 -78 OFFCURVE",
"568 -96 OFFCURVE",
"718 -96 CURVE SMOOTH"
);
}
);
width = 1000;
}
);
note = uni2E90;
unicode = 2E90;
},
{
color = 6;
glyphname = uni2E9F;
lastChange = "2019-07-12 15:36:29 +0000";
layers = (
{
layerId = "444456EC-4579-471A-B2C3-7F5DF9BBCA9A";
paths = (
{
closed = 1;
nodes = (
"718 -64 OFFCURVE",
"744 -56 OFFCURVE",
"759 23 CURVE SMOOTH",
"806 269 OFFCURVE",
"841 514 OFFCURVE",
"867 760 CURVE",
"217 760 LINE",
"191 514 OFFCURVE",
"155 269 OFFCURVE",
"99 -17 CURVE",
"118 -20 LINE",
"174 261 OFFCURVE",
"209 501 OFFCURVE",
"235 740 CURVE",
"845 740 LINE",
"819 501 OFFCURVE",
"784 262 OFFCURVE",
"739 23 CURVE SMOOTH",
"728 -36 OFFCURVE",
"716 -44 OFFCURVE",
"643 -44 CURVE SMOOTH",
"610 -44 OFFCURVE",
"543 -44 OFFCURVE",
"518 -42 CURVE",
"517 -62 LINE",
"541 -64 OFFCURVE",
"608 -64 OFFCURVE",
"641 -64 CURVE SMOOTH"
);
},
{
closed = 1;
nodes = (
"904 56 LINE",
"904 76 LINE",
"127 76 LINE",
"127 56 LINE"
);
},
{
closed = 1;
nodes = (
"609 159 LINE",
"530 226 OFFCURVE",
"440 291 OFFCURVE",
"371 336 CURVE",
"359 320 LINE",
"428 275 OFFCURVE",
"518 210 OFFCURVE",
"597 143 CURVE"
);
},
{
closed = 1;
nodes = (
"950 397 LINE",
"950 417 LINE",
"53 417 LINE",
"53 397 LINE"
);
},
{
closed = 1;
nodes = (
"639 499 LINE",
"560 566 OFFCURVE",
"470 631 OFFCURVE",
"401 676 CURVE",
"389 660 LINE",
"458 615 OFFCURVE",
"548 550 OFFCURVE",
"627 483 CURVE"
);
}
);
width = 1000;
},
{
layerId = "CDA8F3AC-A9A8-4005-B9E6-B6E3BABC1C09";
paths = (
{
closed = 1;
nodes = (
"809 -120 OFFCURVE",
"821 -69 OFFCURVE",
"836 52 CURVE SMOOTH",
"865 297 OFFCURVE",
"895 542 OFFCURVE",
"916 797 CURVE",
"160 797 LINE",
"140 548 OFFCURVE",
"115 298 OFFCURVE",
"52 -29 CURVE",
"236 -31 LINE",
"285 239 OFFCURVE",
"314 452 OFFCURVE",
"334 661 CURVE",
"718 661 LINE",
"700 457 OFFCURVE",
"677 253 OFFCURVE",
"652 49 CURVE SMOOTH",
"647 11 OFFCURVE",
"633 7 OFFCURVE",
"613 7 CURVE SMOOTH",
"591 7 OFFCURVE",
"553 7 OFFCURVE",
"498 9 CURVE",
"486 -115 LINE",
"555 -118 OFFCURVE",
"601 -120 OFFCURVE",
"634 -120 CURVE SMOOTH"
);
},
{
closed = 1;
nodes = (
"938 49 LINE",
"938 185 LINE",
"187 185 LINE",
"187 49 LINE"
);
},
{
closed = 1;
nodes = (
"606 263 LINE",
"540 304 OFFCURVE",
"473 341 OFFCURVE",
"407 376 CURVE",
"333 240 LINE",
"400 209 OFFCURVE",
"467 174 OFFCURVE",
"534 137 CURVE"
);
},
{
closed = 1;
nodes = (
"978 355 LINE",
"978 491 LINE",
"22 491 LINE",
"22 355 LINE"
);
},
{
closed = 1;
nodes = (
"644 583 LINE",
"578 624 OFFCURVE",
"511 661 OFFCURVE",
"445 696 CURVE",
"371 560 LINE",
"438 529 OFFCURVE",
"505 494 OFFCURVE",
"572 457 CURVE"
);
}
);
width = 1000;
}
);
note = uni2E9F;
unicode = 2E9F;
},
{
color = 6;
glyphname = uni2EA0;
lastChange = "2019-07-12 15:36:29 +0000";
layers = (
{
background = {
paths = (
{
closed = 0;
nodes = (
"829 -39 LINE SMOOTH"
);
},
{
closed = 0;
nodes = (
"829 -59 LINE SMOOTH"
);
}
);
};
layerId = "444456EC-4579-471A-B2C3-7F5DF9BBCA9A";
paths = (
{
closed = 1;
nodes = (
"852 525 LINE",
"852 760 LINE",
"160 760 LINE",
"160 -26 LINE",
"180 -26 LINE",
"180 740 LINE",
"832 740 LINE",
"832 545 LINE",
"176 545 LINE",
"176 525 LINE"
);
},
{
closed = 1;
nodes = (
"176 349 LINE",
"176 329 LINE",
"883 329 LINE",
"883 349 LINE"
);
},
{
closed = 1;
nodes = (
"925 149 OFFCURVE",
"902 -39 OFFCURVE",
"829 -39 CURVE SMOOTH",
"673 -39 OFFCURVE",
"563 416 OFFCURVE",
"542 529 CURVE",
"522 526 LINE",
"543 412 OFFCURVE",
"655 -59 OFFCURVE",
"829 -59 CURVE SMOOTH",
"921 -59 OFFCURVE",
"945 149 OFFCURVE",
"945 173 CURVE",
"925 173 LINE"
);
},
{
closed = 1;
nodes = (
"395 37 OFFCURVE",
"228 -4 OFFCURVE",
"60 -35 CURVE",
"64 -55 LINE",
"233 -23 OFFCURVE",
"402 18 OFFCURVE",
"567 68 CURVE",
"561 88 LINE"
);
}
);
width = 1000;
},
{
layerId = "CDA8F3AC-A9A8-4005-B9E6-B6E3BABC1C09";
paths = (
{
closed = 1;
nodes = (
"888 450 LINE",
"888 800 LINE",
"110 800 LINE",
"110 35 LINE",
"286 35 LINE",
"286 664 LINE",
"712 664 LINE",
"712 586 LINE",
"207 586 LINE",
"207 450 LINE"
);
},
{
closed = 1;
nodes = (
"206 387 LINE",
"206 241 LINE",
"936 241 LINE",
"936 387 LINE"
);
},
{
closed = 1;
nodes = (
"819 170 OFFCURVE",
"811 90 OFFCURVE",
"786 90 CURVE SMOOTH",
"754 90 OFFCURVE",
"654 229 OFFCURVE",
"650 522 CURVE",
"474 518 LINE",
"481 249 OFFCURVE",
"611 -96 OFFCURVE",
"786 -96 CURVE SMOOTH",
"905 -96 OFFCURVE",
"963 42 OFFCURVE",
"973 186 CURVE",
"819 210 LINE"
);
},
{
closed = 1;
nodes = (
"356 88 OFFCURVE",
"186 64 OFFCURVE",
"20 47 CURVE",
"43 -95 LINE",
"212 -80 OFFCURVE",
"382 -56 OFFCURVE",
"551 -21 CURVE",
"525 123 LINE"
);
}
);
width = 1000;
}
);
note = uni2EA0;
unicode = 2EA0;
},
{
color = 6;
glyphname = uni2EA1;
lastChange = "2019-07-12 15:36:29 +0000";
layers = (
{
layerId = "444456EC-4579-471A-B2C3-7F5DF9BBCA9A";
paths = (
{
closed = 1;
nodes = (
"548 691 OFFCURVE",
"477 741 OFFCURVE",
"403 789 CURVE",
"391 773 LINE",
"465 725 OFFCURVE",
"536 675 OFFCURVE",
"606 623 CURVE",
"618 639 LINE"
);
},
{
closed = 1;
nodes = (
"488 465 OFFCURVE",
"409 519 OFFCURVE",
"328 572 CURVE",
"316 556 LINE",
"397 503 OFFCURVE",
"476 449 OFFCURVE",
"553 392 CURVE",
"565 408 LINE"
);
},
{
closed = 1;
nodes = (
"476 17 OFFCURVE",
"589 142 OFFCURVE",
"662 259 CURVE",
"646 271 LINE",
"573 156 OFFCURVE",
"460 31 OFFCURVE",
"368 -48 CURVE",
"384 -62 LINE"
);
}
);
width = 1000;
},
{
layerId = "CDA8F3AC-A9A8-4005-B9E6-B6E3BABC1C09";
paths = (
{
closed = 1;
nodes = (
"595 746 OFFCURVE",
"506 790 OFFCURVE",
"412 829 CURVE",
"330 683 LINE",
"424 641 OFFCURVE",
"513 593 OFFCURVE",
"599 541 CURVE",
"681 697 LINE"
);
},
{
closed = 1;
nodes = (
"552 519 OFFCURVE",
"456 568 OFFCURVE",
"355 612 CURVE",
"271 468 LINE",
"372 421 OFFCURVE",
"468 368 OFFCURVE",
"561 311 CURVE",
"645 465 LINE"
);
},
{
closed = 1;
nodes = (
"553 -9 OFFCURVE",
"655 106 OFFCURVE",
"748 242 CURVE",
"626 338 LINE",
"530 209 OFFCURVE",
"424 100 OFFCURVE",
"305 17 CURVE",
"437 -99 LINE"
);
}
);
width = 1000;
}
);
note = uni2EA1;
unicode = 2EA1;
},
{
color = 6;
glyphname = uni2EA2;
lastChange = "2019-07-12 15:36:29 +0000";
layers = (
{
layerId = "444456EC-4579-471A-B2C3-7F5DF9BBCA9A";
paths = (
{
closed = 1;
nodes = (
"501 -64 OFFCURVE",
"517 -56 OFFCURVE",
"517 23 CURVE SMOOTH",
"517 800 LINE",
"497 800 LINE",
"497 23 LINE SMOOTH",
"497 -36 OFFCURVE",
"497 -44 OFFCURVE",
"421 -44 CURVE SMOOTH",
"388 -44 OFFCURVE",
"321 -44 OFFCURVE",
"265 -42 CURVE",
"267 -62 LINE",
"321 -64 OFFCURVE",
"388 -64 OFFCURVE",
"421 -64 CURVE SMOOTH"
);
},
{
closed = 1;
nodes = (
"191 129 OFFCURVE",
"290 213 OFFCURVE",
"380 308 CURVE",
"368 324 LINE",
"278 229 OFFCURVE",
"179 145 OFFCURVE",
"69 70 CURVE",
"81 54 LINE"
);
},
{
closed = 1;
nodes = (
"381 437 LINE",
"289 532 OFFCURVE",
"197 618 OFFCURVE",
"105 693 CURVE",
"91 679 LINE",
"183 604 OFFCURVE",
"275 518 OFFCURVE",
"367 423 CURVE"
);
},
{
closed = 1;
nodes = (
"936 66 LINE",
"844 163 OFFCURVE",
"742 250 OFFCURVE",
"630 327 CURVE",
"618 311 LINE",
"730 234 OFFCURVE",
"832 147 OFFCURVE",
"924 50 CURVE"
);
},
{
closed = 1;
nodes = (
"732 499 OFFCURVE",
"825 584 OFFCURVE",
"907 680 CURVE",
"893 694 LINE",
"811 598 OFFCURVE",
"718 513 OFFCURVE",
"616 437 CURVE",
"630 423 LINE"
);
}
);
width = 1000;
},
{
layerId = "CDA8F3AC-A9A8-4005-B9E6-B6E3BABC1C09";
paths = (
{
closed = 1;
nodes = (
"611 -97 OFFCURVE",
"611 -56 OFFCURVE",
"611 55 CURVE",
"610 820 LINE",
"422 820 LINE",
"423 52 LINE SMOOTH",
"423 34 OFFCURVE",
"412 30 OFFCURVE",
"392 30 CURVE SMOOTH",
"370 30 OFFCURVE",
"334 30 OFFCURVE",
"278 32 CURVE",
"281 -92 LINE",
"351 -95 OFFCURVE",
"397 -97 OFFCURVE",
"430 -97 CURVE SMOOTH"
);
},
{
closed = 1;
nodes = (
"236 93 OFFCURVE",
"323 178 OFFCURVE",
"400 274 CURVE",
"278 402 LINE",
"201 306 OFFCURVE",
"114 221 OFFCURVE",
"17 145 CURVE",
"139 17 LINE"
);
},
{
closed = 1;
nodes = (
"421 496 LINE",
"350 595 OFFCURVE",
"269 684 OFFCURVE",
"178 763 CURVE",
"48 645 LINE",
"139 566 OFFCURVE",
"220 477 OFFCURVE",
"291 378 CURVE"
);
},
{
closed = 1;
nodes = (
"986 113 LINE",
"914 219 OFFCURVE",
"832 315 OFFCURVE",
"740 401 CURVE",
"608 285 LINE",
"700 199 OFFCURVE",
"782 103 OFFCURVE",
"854 -3 CURVE"
);
},
{
closed = 1;
nodes = (
"804 445 OFFCURVE",
"882 538 OFFCURVE",
"951 638 CURVE",
"823 758 LINE",
"754 658 OFFCURVE",
"676 565 OFFCURVE",
"587 497 CURVE",
"715 377 LINE"
);
}
);
width = 1000;
}
);
note = uni2EA2;
unicode = 2EA2;
},
{
color = 6;
glyphname = uni2EA3;
lastChange = "2019-07-12 15:36:29 +0000";
layers = (
{
layerId = "444456EC-4579-471A-B2C3-7F5DF9BBCA9A";
paths = (
{
closed = 1;
nodes = (
"141 315 OFFCURVE",
"191 410 OFFCURVE",
"236 508 CURVE",
"218 516 LINE",
"173 419 OFFCURVE",
"124 324 OFFCURVE",
"71 231 CURVE",
"88 221 LINE"
);
},
{
closed = 1;
nodes = (
"427 223 LINE",
"418 313 OFFCURVE",
"406 412 OFFCURVE",
"393 509 CURVE",
"373 505 LINE",
"386 408 OFFCURVE",
"398 310 OFFCURVE",
"407 221 CURVE"
);
},
{
closed = 1;
nodes = (
"678 230 LINE",
"654 320 OFFCURVE",
"622 413 OFFCURVE",
"584 516 CURVE",
"565 510 LINE",
"597 423 OFFCURVE",
"629 328 OFFCURVE",
"658 224 CURVE"
);
},
{
closed = 1;
nodes = (
"928 238 LINE",
"880 333 OFFCURVE",
"831 427 OFFCURVE",
"779 522 CURVE",
"761 512 LINE",
"813 417 OFFCURVE",
"863 323 OFFCURVE",
"911 228 CURVE"
);
}
);
width = 1000;
},
{
layerId = "CDA8F3AC-A9A8-4005-B9E6-B6E3BABC1C09";
paths = (
{
closed = 1;
nodes = (
"218.333 284.333 OFFCURVE",
"262 387 OFFCURVE",
"295 487 CURVE",
"150 546 LINE",
"114 450 OFFCURVE",
"72 343 OFFCURVE",
"25 252 CURVE",
"165 182 LINE"
);
},
{
closed = 1;
nodes = (
"501 200 LINE",
"497 317.667 OFFCURVE",
"484 421 OFFCURVE",
"475 515 CURVE",
"305 503 LINE",
"316 377 OFFCURVE",
"326 271 OFFCURVE",
"331 185 CURVE"
);
},
{
closed = 1;
nodes = (
"731 215 LINE",
"719 304.667 OFFCURVE",
"697 426 OFFCURVE",
"670 525 CURVE",
"507 498 LINE",
"532 400 OFFCURVE",
"553 275 OFFCURVE",
"566 185 CURVE"
);
},
{
closed = 1;
nodes = (
"978 249 LINE",
"943 344 OFFCURVE",
"901 450 OFFCURVE",
"850 558 CURVE",
"705 493 LINE",
"755 390 OFFCURVE",
"793.333 287.333 OFFCURVE",
"830 187 CURVE"
);
}
);
width = 1000;
}
);
note = uni2EA3;
unicode = 2EA3;
},
{
color = 6;
glyphname = uni4E00;
lastChange = "2019-07-12 15:36:29 +0000";
layers = (
{
layerId = "444456EC-4579-471A-B2C3-7F5DF9BBCA9A";
paths = (
{
closed = 1;
nodes = (
"939 368 LINE",
"939 388 LINE",
"61 388 LINE",
"61 368 LINE"
);
}
);
vertWidth = 1000;
width = 1000;
},
{
layerId = "CDA8F3AC-A9A8-4005-B9E6-B6E3BABC1C09";
paths = (
{
closed = 1;
nodes = (
"959 289 LINE",
"959 479 LINE",
"41 479 LINE",
"41 289 LINE"
);
}
);
vertWidth = 1000;
width = 1000;
}
);
note = uni4E00;
unicode = 4E00;
},
{
color = 6;
glyphname = uni4E09;
lastChange = "2019-07-12 15:55:01 +0000";
layers = (
{
layerId = "444456EC-4579-471A-B2C3-7F5DF9BBCA9A";
paths = (
{
closed = 1;
nodes = (
"920 2 LINE",
"920 22 LINE",
"80 22 LINE",
"80 2 LINE"
);
},
{
closed = 1;
nodes = (
"850 698 LINE",
"850 718 LINE",
"150 718 LINE",
"150 698 LINE"
);
},
{
closed = 1;
nodes = (
"780 355 LINE",
"780 375 LINE",
"220 375 LINE",
"220 355 LINE"
);
}
);
vertWidth = 1000;
width = 1000;
},
{
layerId = "CDA8F3AC-A9A8-4005-B9E6-B6E3BABC1C09";
paths = (
{
closed = 1;
nodes = (
"940 -46 LINE",
"940 124 LINE",
"60 124 LINE",
"60 -46 LINE"
);
},
{
closed = 1;
nodes = (
"878 596 LINE",
"878 766 LINE",
"122 766 LINE",
"122 596 LINE"
);
},
{
closed = 1;
nodes = (
"814 280 LINE",
"814 446 LINE",
"186 446 LINE",
"186 280 LINE"
);
}
);
vertWidth = 1000;
width = 1000;
}
);
note = uni4E09;
unicode = 4E09;
},
{
color = 6;
glyphname = uni4E28;
lastChange = "2019-07-12 15:36:29 +0000";
layers = (
{
layerId = "444456EC-4579-471A-B2C3-7F5DF9BBCA9A";
paths = (
{
closed = 1;
nodes = (
"510 -80 LINE",
"510 800 LINE",
"490 800 LINE",
"490 -80 LINE"
);
}
);
vertWidth = 1000;
width = 1000;
},
{
layerId = "CDA8F3AC-A9A8-4005-B9E6-B6E3BABC1C09";
paths = (
{
closed = 1;
nodes = (
"600 -99 LINE",
"600 819 LINE",
"400 819 LINE",
"400 -99 LINE"
);
}
);
vertWidth = 1000;
width = 1000;
}
);
note = uni4E28;
unicode = 4E28;
},
{
color = 6;
glyphname = uni4E80;
lastChange = "2019-07-24 17:04:37 +0000";
layers = (
{
layerId = "444456EC-4579-471A-B2C3-7F5DF9BBCA9A";
paths = (
{
closed = 1;
nodes = (
"164 632 OFFCURVE",
"257 722 OFFCURVE",
"341 842 CURVE",
"320 845 LINE",
"238 731 OFFCURVE",
"149 647 OFFCURVE",
"53 592 CURVE",
"63 574 LINE"
);
},
{
closed = 1;
nodes = (
"513 665 LINE",
"555 700 OFFCURVE",
"591 735 OFFCURVE",
"623 771 CURVE",
"623 789 LINE",
"281 789 LINE",
"281 769 LINE",
"597 769 LINE",
"567 737 OFFCURVE",
"533 705 OFFCURVE",
"486 665 CURVE"
);
},
{
closed = 1;
nodes = (
"824 405 LINE",
"824 673 LINE",
"176 673 LINE",
"176 405 LINE"
);
},
{
closed = 1;
nodes = (
"814 529 LINE",
"814 549 LINE",
"186 549 LINE",
"186 529 LINE"
);
},
{
closed = 1;
nodes = (
"196 653 LINE",
"804 653 LINE",
"804 425 LINE",
"196 425 LINE"
);
},
{
closed = 1;
nodes = (
"146 -21 LINE",
"146 319 LINE",
"854 319 LINE",
"854 71 LINE",
"137 71 LINE",
"137 51 LINE",
"874 51 LINE",
"874 339 LINE",
"126 339 LINE",
"126 -21 LINE"
);
},
{
closed = 1;
nodes = (
"864 185 LINE",
"864 205 LINE",
"136 205 LINE",
"136 185 LINE"
);
},
{
closed = 1;
nodes = (
"895 -79 OFFCURVE",
"940 -65 OFFCURVE",
"947 -11 CURVE SMOOTH",
"966 136 LINE",
"946 140 LINE",
"927 -7 LINE SMOOTH",
"922 -48 OFFCURVE",
"887 -59 OFFCURVE",
"709 -59 CURVE SMOOTH",
"535 -59 OFFCURVE",
"510 -49 OFFCURVE",
"510 -9 CURVE SMOOTH",
"510 662 LINE",
"490 662 LINE",
"490 -9 LINE SMOOTH",
"490 -66 OFFCURVE",
"526 -79 OFFCURVE",
"709 -79 CURVE SMOOTH"
);
}
);
vertWidth = 1000;
width = 1000;
},
{
layerId = "CDA8F3AC-A9A8-4005-B9E6-B6E3BABC1C09";
paths = (
{
closed = 1;
nodes = (
"277 588 OFFCURVE",
"381 702 OFFCURVE",
"440 834 CURVE",
"269 856 LINE",
"229 771 OFFCURVE",
"149 680 OFFCURVE",
"10 581 CURVE",
"124 477 LINE"
);
},
{
closed = 1;
nodes = (
"615 599 LINE",
"661 628 OFFCURVE",
"704 659 OFFCURVE",
"740 689 CURVE",
"740 797 LINE",
"319 797 LINE",
"304 676 LINE",
"529 676 LINE",
"508 657 OFFCURVE",
"498 650 OFFCURVE",
"440 603 CURVE"
);
},
{
closed = 1;
nodes = (
"897 358 LINE",
"897 642 LINE",
"103 642 LINE",
"103 358 LINE"
);
},
{
closed = 1;
nodes = (
"809 472 LINE",
"809 528 LINE",
"192 528 LINE",
"192 472 LINE"
);
},
{
closed = 1;
nodes = (
"280 561 LINE",
"720 561 LINE",
"720 439 LINE",
"280 439 LINE"
);
},
{
closed = 1;
nodes = (
"244 -20 LINE",
"244 243 LINE",
"756 243 LINE",
"756 121 LINE",
"186 121 LINE",
"186 40 LINE",
"933 40 LINE",
"933 324 LINE",
"67 324 LINE",
"67 -20 LINE"
);
},
{
closed = 1;
nodes = (
"845 154 LINE",
"845 210 LINE",
"156 210 LINE",
"156 154 LINE"
);
},
{
closed = 1;
nodes = (
"867 -115 OFFCURVE",
"963 -109 OFFCURVE",
"972 -1 CURVE SMOOTH",
"983 125 LINE",
"827 137 LINE",
"817 32 LINE SMOOTH",
"815 10 OFFCURVE",
"780 6 OFFCURVE",
"697 6 CURVE SMOOTH",
"606 6 OFFCURVE",
"583 8 OFFCURVE",
"583 32 CURVE SMOOTH",
"583 582 LINE",
"417 582 LINE",
"417 5 LINE SMOOTH",
"417 -111 OFFCURVE",
"512 -115 OFFCURVE",
"687 -115 CURVE SMOOTH"
);
}
);
vertWidth = 1000;
width = 1000;
}
);
note = uni4E80;
unicode = 4E80;
},
{
color = 6;
glyphname = uni4E85;
lastChange = "2019-07-15 18:38:42 +0000";
layers = (
{
layerId = "444456EC-4579-471A-B2C3-7F5DF9BBCA9A";
paths = (
{
closed = 1;
nodes = (
"516 -70 OFFCURVE",
"532 -62 OFFCURVE",
"532 17 CURVE SMOOTH",
"532 800 LINE",
"512 800 LINE",
"512 17 LINE SMOOTH",
"512 -42 OFFCURVE",
"512 -50 OFFCURVE",
"436 -50 CURVE SMOOTH",
"403 -50 OFFCURVE",
"346 -50 OFFCURVE",
"290 -48 CURVE",
"292 -68 LINE",
"346 -70 OFFCURVE",
"403 -70 OFFCURVE",
"436 -70 CURVE SMOOTH"
);
}
);
vertWidth = 1000;
width = 1000;
},
{
layerId = "CDA8F3AC-A9A8-4005-B9E6-B6E3BABC1C09";
paths = (
{
closed = 1;
nodes = (
"595 -100 OFFCURVE",
"615 -59 OFFCURVE",
"615 52 CURVE SMOOTH",
"615 826 LINE",
"427 826 LINE",
"427 86 LINE SMOOTH",
"427 61 OFFCURVE",
"416 57 OFFCURVE",
"396 57 CURVE SMOOTH",
"364 57 OFFCURVE",
"298 57 OFFCURVE",
"242 59 CURVE",
"245 -95 LINE",
"315 -98 OFFCURVE",
"371 -100 OFFCURVE",
"414 -100 CURVE SMOOTH"
);
}
);
vertWidth = 1000;
width = 1000;
}
);
note = uni4E85;
unicode = 4E85;
},
{
color = 6;
glyphname = uni4E8C;
lastChange = "2019-07-12 15:36:29 +0000";
layers = (
{
layerId = "444456EC-4579-471A-B2C3-7F5DF9BBCA9A";
paths = (
{
closed = 1;
nodes = (
"925 35 LINE",
"925 55 LINE",
"75 55 LINE",
"75 35 LINE"
);
},
{
closed = 1;
nodes = (
"825 665 LINE",
"825 685 LINE",
"175 685 LINE",
"175 665 LINE"
);
}
);
vertWidth = 1000;
width = 1000;
},
{
layerId = "CDA8F3AC-A9A8-4005-B9E6-B6E3BABC1C09";
paths = (
{
closed = 1;
nodes = (
"944 -16 LINE",
"944 160 LINE",
"56 160 LINE",
"56 -16 LINE"
);
},
{
closed = 1;
nodes = (
"851 562 LINE",
"851 738 LINE",
"149 738 LINE",
"149 562 LINE"
);
}
);
vertWidth = 1000;
width = 1000;
}
);
note = uni4E8C;
unicode = 4E8C;
},
{
color = 6;
glyphname = uni4EA0;
lastChange = "2019-07-12 15:36:29 +0000";
layers = (
{
layerId = "444456EC-4579-471A-B2C3-7F5DF9BBCA9A";
paths = (
{
closed = 1;
nodes = (
"938 360 LINE",
"938 380 LINE",
"510 380 LINE",
"510 586 LINE",
"490 586 LINE",
"490 380 LINE",
"62 380 LINE",
"62 360 LINE"
);
}
);
vertWidth = 1000;
width = 1000;
},
{
layerId = "CDA8F3AC-A9A8-4005-B9E6-B6E3BABC1C09";
paths = (
{
closed = 1;
nodes = (
"960 277 LINE",
"960 443 LINE",
"594 443 LINE",
"594 634 LINE",
"406 634 LINE",
"406 443 LINE",
"40 443 LINE",
"40 277 LINE"
);
}
);
vertWidth = 1000;
width = 1000;
}
);
note = uni4EA0;
unicode = 4EA0;
},
{
color = 6;
glyphname = uni4EBB;
lastChange = "2019-07-12 15:36:29 +0000";
layers = (
{
layerId = "444456EC-4579-471A-B2C3-7F5DF9BBCA9A";
paths = (
{
closed = 1;
nodes = (
"408 406 OFFCURVE",
"601 559 OFFCURVE",
"775 794 CURVE",
"759 806 LINE",
"587 574 OFFCURVE",
"397 423 OFFCURVE",
"189 352 CURVE",
"195 334 LINE"
);
},
{
closed = 1;
nodes = (
"531 534 LINE",
"511 534 LINE",
"511 -80 LINE",
"531 -80 LINE"
);
}
);
vertWidth = 1000;
width = 1000;
},
{
layerId = "CDA8F3AC-A9A8-4005-B9E6-B6E3BABC1C09";
paths = (
{
closed = 1;
nodes = (
"442 370 OFFCURVE",
"671 519 OFFCURVE",
"860 712 CURVE",
"741 841 LINE",
"562 658 OFFCURVE",
"360 528 OFFCURVE",
"127 444 CURVE",
"187 278 LINE"
);
},
{
closed = 1;
nodes = (
"609 525 LINE",
"425 525 LINE",
"425 -100 LINE",
"609 -100 LINE"
);
}
);
vertWidth = 1000;
width = 1000;
}
);
note = uni4EBB;
unicode = 4EBB;
},
